<?xml version="1.0" encoding="UTF-8" standalone="no"?>
<svg
   xmlns:dc="http://purl.org/dc/elements/1.1/"
   xmlns:cc="http://creativecommons.org/ns#"
   xmlns:rdf="http://www.w3.org/1999/02/22-rdf-syntax-ns#"
   xmlns:svg="http://www.w3.org/2000/svg"
   xmlns="http://www.w3.org/2000/svg"
   xmlns:sodipodi="http://sodipodi.sourceforge.net/DTD/sodipodi-0.dtd"
   xmlns:inkscape="http://www.inkscape.org/namespaces/inkscape"
   viewBox="0 0 870.95126 169.92067"
   version="1.1"
   id="svg86"
   sodipodi:docname="Bottom Shelf.svg"
   inkscape:version="0.92.4 (5da689c313, 2019-01-14)"
   width="870.95123"
   height="169.92067">
  <metadata
     id="metadata90">
    <rdf:RDF>
      <cc:Work
         rdf:about="">
        <dc:format>image/svg+xml</dc:format>
        <dc:type
           rdf:resource="http://purl.org/dc/dcmitype/StillImage" />
      </cc:Work>
    </rdf:RDF>
  </metadata>
  <sodipodi:namedview
     pagecolor="#ffffff"
     bordercolor="#666666"
     borderopacity="1"
     objecttolerance="10"
     gridtolerance="10"
     guidetolerance="10"
     inkscape:pageopacity="0"
     inkscape:pageshadow="2"
     inkscape:window-width="1910"
     inkscape:window-height="524"
     id="namedview88"
     showgrid="false"
     inkscape:zoom="1.0813249"
     inkscape:cx="157.26392"
     inkscape:cy="60.363538"
     inkscape:window-x="1922"
     inkscape:window-y="1603"
     inkscape:window-maximized="0"
     inkscape:current-layer="_3rd_shelf"
     inkscape:snap-global="false"
     inkscape:lockguides="true" />
  <defs
     id="defs4">
    <style
       id="style2">.cls-1{fill:#bd9975;}.cls-2{fill:#916f6f;}.cls-3{fill:#30b6bb;}.cls-4{fill:#f2f2f2;}.cls-5{fill:#b8e7e9;}.cls-6{fill:#da942b;}.cls-7{fill:#f6bd6a;}.cls-8{fill:#507d3b;}.cls-9{fill:#98c583;}.cls-10{fill:#ffffcb;}.cls-11{fill:#dbca4d;}</style>
    <filter
       style="color-interpolation-filters:sRGB"
       inkscape:label="Drop Shadow"
       id="filter1630">
      <feFlood
         flood-opacity="0.498039"
         flood-color="rgb(0,0,0)"
         result="flood"
         id="feFlood1620" />
      <feComposite
         in="flood"
         in2="SourceGraphic"
         operator="in"
         result="composite1"
         id="feComposite1622" />
      <feGaussianBlur
         in="composite1"
         stdDeviation="0"
         result="blur"
         id="feGaussianBlur1624" />
      <feOffset
         dx="7.4"
         dy="1.4"
         result="offset"
         id="feOffset1626" />
      <feComposite
         in="offset"
         in2="offset"
         operator="atop"
         result="composite2"
         id="feComposite1628" />
    </filter>
    <filter
       style="color-interpolation-filters:sRGB"
       inkscape:label="Drop Shadow"
       id="filter1671">
      <feFlood
         flood-opacity="0.498039"
         flood-color="rgb(0,0,0)"
         result="flood"
         id="feFlood1661" />
      <feComposite
         in="flood"
         in2="SourceGraphic"
         operator="in"
         result="composite1"
         id="feComposite1663" />
      <feGaussianBlur
         in="composite1"
         stdDeviation="0"
         result="blur"
         id="feGaussianBlur1665" />
      <feOffset
         dx="7.4"
         dy="1.4"
         result="offset"
         id="feOffset1667" />
      <feComposite
         in="offset"
         in2="offset"
         operator="atop"
         result="fbSourceGraphic"
         id="feComposite1669" />
      <feColorMatrix
         result="fbSourceGraphicAlpha"
         in="fbSourceGraphic"
         values="0 0 0 -1 0 0 0 0 -1 0 0 0 0 -1 0 0 0 0 1 0"
         id="feColorMatrix1673" />
      <feFlood
         id="feFlood1675"
         flood-opacity="0.498039"
         flood-color="rgb(0,0,0)"
         result="flood"
         in="fbSourceGraphic" />
      <feComposite
         in2="fbSourceGraphic"
         id="feComposite1677"
         in="flood"
         operator="in"
         result="composite1" />
      <feGaussianBlur
         id="feGaussianBlur1679"
         in="composite1"
         stdDeviation="0"
         result="blur" />
      <feOffset
         id="feOffset1681"
         dx="7.4"
         dy="1.4"
         result="offset" />
      <feComposite
         in2="offset"
         id="feComposite1683"
         in="offset"
         operator="atop"
         result="composite2" />
    </filter>
    <filter
       style="color-interpolation-filters:sRGB"
       inkscape:label="Drop Shadow"
       id="filter1723">
      <feFlood
         flood-opacity="0.498039"
         flood-color="rgb(0,0,0)"
         result="flood"
         id="feFlood1713" />
      <feComposite
         in="flood"
         in2="SourceGraphic"
         operator="in"
         result="composite1"
         id="feComposite1715" />
      <feGaussianBlur
         in="composite1"
         stdDeviation="0"
         result="blur"
         id="feGaussianBlur1717" />
      <feOffset
         dx="7.4"
         dy="1.4"
         result="offset"
         id="feOffset1719" />
      <feComposite
         in="offset"
         in2="offset"
         operator="atop"
         result="composite2"
         id="feComposite1721" />
    </filter>
    <filter
       style="color-interpolation-filters:sRGB;"
       inkscape:label="Drop Shadow"
       id="filter2186">
      <feFlood
         flood-opacity="0.498039"
         flood-color="rgb(0,0,0)"
         result="flood"
         id="feFlood2176" />
      <feComposite
         in="flood"
         in2="SourceGraphic"
         operator="in"
         result="composite1"
         id="feComposite2178" />
      <feGaussianBlur
         in="composite1"
         stdDeviation="0"
         result="blur"
         id="feGaussianBlur2180" />
      <feOffset
         dx="4.1"
         dy="-1.9"
         result="offset"
         id="feOffset2182" />
      <feComposite
         in="SourceGraphic"
         in2="offset"
         operator="over"
         result="composite2"
         id="feComposite2184" />
    </filter>
    <filter
       style="color-interpolation-filters:sRGB;"
       inkscape:label="Drop Shadow"
       id="filter2198">
      <feFlood
         flood-opacity="0.498039"
         flood-color="rgb(0,0,0)"
         result="flood"
         id="feFlood2188" />
      <feComposite
         in="flood"
         in2="SourceGraphic"
         operator="in"
         result="composite1"
         id="feComposite2190" />
      <feGaussianBlur
         in="composite1"
         stdDeviation="0"
         result="blur"
         id="feGaussianBlur2192" />
      <feOffset
         dx="4.1"
         dy="-1.9"
         result="offset"
         id="feOffset2194" />
      <feComposite
         in="SourceGraphic"
         in2="offset"
         operator="over"
         result="composite2"
         id="feComposite2196" />
    </filter>
    <filter
       style="color-interpolation-filters:sRGB;"
       inkscape:label="Drop Shadow"
       id="filter2210">
      <feFlood
         flood-opacity="0.498039"
         flood-color="rgb(0,0,0)"
         result="flood"
         id="feFlood2200" />
      <feComposite
         in="flood"
         in2="SourceGraphic"
         operator="in"
         result="composite1"
         id="feComposite2202" />
      <feGaussianBlur
         in="composite1"
         stdDeviation="0"
         result="blur"
         id="feGaussianBlur2204" />
      <feOffset
         dx="4.1"
         dy="-1.9"
         result="offset"
         id="feOffset2206" />
      <feComposite
         in="SourceGraphic"
         in2="offset"
         operator="over"
         result="composite2"
         id="feComposite2208" />
    </filter>
  </defs>
  <g
     id="Layer_2"
     data-name="Layer 2"
     transform="translate(32.165406,0.03152492)">
    <g
       id="_3rd_shelf"
       data-name="3rd shelf">
      <rect
         class="cls-1"
         x="332.14896"
         y="92.029999"
         width="153.57814"
         height="69.059998"
         id="rect6"
         style="fill:#bd9975;stroke-width:1" />
      <path
         class="cls-1"
         d="m 829.49,147.89 -14.39,13.19 -100.4,-0.63 v 0.64 H 477.88 V 92 H 714.7 v 0.1 l 11.81,-0.1 3.94,3.08 19.19,0.52 z"
         id="path8"
         inkscape:connector-curvature="0"
         style="fill:#bd9975" />
      <path
         class="cls-1"
         d="m 120.46,92 h 220.19 v 69.06 H 120.46 v -0.64 l -103,0.64 L 3,147.9 82.89,95.64 102.08,95.12 106,92 l 14.44,0.12 z"
         id="path10"
         inkscape:connector-curvature="0"
         style="fill:#bd9975" />
      <path
         class="cls-7"
         d="m 676.02389,57.922237 3.33478,-1.238295 c 7.52687,-3.826176 37.34239,-3.584713 45.78893,3.712667 l -1.2763,30.45255 c -18.79694,2.852167 -45.91087,0.04896 -47.84741,-32.926964 z"
         id="path36-6"
         inkscape:connector-curvature="0"
         style="fill:#000000;fill-opacity:0.4745098;stroke-width:0.99999994"
         sodipodi:nodetypes="cccccc" />
      <g
         id="g957">
        <path
           inkscape:connector-curvature="0"
           id="path925-7"
           d="m 17.661993,169.60014 -19.0245376,-19.51157 4.3734584,-5.4578 14.6510792,15.82759 z"
           style="fill:#000000;fill-opacity:0.49756098;stroke:none;stroke-width:0.99999982px;stroke-linecap:butt;stroke-linejoin:miter;stroke-opacity:1" />
        <rect
           y="161.91571"
           x="17.65601"
           height="7.8471198"
           width="801.05975"
           id="rect906"
           style="fill:#000000;fill-opacity:0.49756098;stroke:none;stroke-width:5.49999952;stroke-linecap:round;stroke-miterlimit:4;stroke-dasharray:none;stroke-opacity:1" />
        <path
           inkscape:connector-curvature="0"
           id="path925"
           d="m 818.67163,169.88914 20.11422,-16.53064 -4.62396,-4.62396 -15.49026,13.40948 z"
           style="fill:#000000;fill-opacity:0.49756098;stroke:none;stroke-width:1px;stroke-linecap:butt;stroke-linejoin:miter;stroke-opacity:1" />
      </g>
      <path
         id="Right_Shelf_Outline"
         data-name="Right Shelf Outline"
         class="cls-2"
         d="m 833,151 a 81,81 0 0 1 -8.28,7.29 l -6.41,5.06 H 477.88 v -5.59 l 339.81,-0.15 3.5,-2.67 a 20.51,20.51 0 0 0 3.33,-2.83 c -1.14,-1.14 -163.41,-1.93 -346.64,-2 v -4.43 c 104.83,0.14 214.56,0.68 304,1.57 38.42,0.38 43.78,0.3 42.84,-0.61 -0.6,-0.58 -17.21,-11.48 -36.93,-24.22 l -35.85,-23.26 -11.82,0.42 26.57,18.36 c 14.61,10.09 27.5,18.82 28.63,19.39 1.13,0.57 1.95,1.38 1.81,1.8 -0.28,0.86 -75.55,1 -297.13,0.44 h -22.12 v -3 c 35,0.05 69.5,0.13 99.88,0.26 88.5,0.37 172.32,0.57 186.25,0.46 l 25.33,-0.21 -18.78,-13 c -30.95,-21.36 -36.15,-24.84 -37,-24.84 a 7.93,7.93 0 0 1 -2.87,-1.62 L 728.63,96 H 477.88 v -6.19 c 81.5,0 156.27,0.21 189.78,0.49 l 62.17,0.5 2.17,1.82 c 2.09,1.77 2.45,1.82 11.62,1.67 L 753.08,94.14 793,120 c 22,14.24 40.38,26.52 40.89,27.29 0.84,1.24 0.71,1.71 -0.89,3.71 z"
         inkscape:connector-curvature="0"
         style="fill:#916f6f" />
      <g
         id="Shelf_Middle"
         data-name="Shelf Middle">
        <polygon
           class="cls-2"
           points="340.65,163.3 340.65,157.76 419.08,157.73 477.88,157.71 477.88,163.3 "
           id="polygon14"
           style="fill:#916f6f" />
        <path
           class="cls-2"
           d="M 477.88,145.59 V 150 c -45.17,0 -91.37,0 -137.23,0 v -4.43 c 43.94,-0.02 90.19,-0.03 137.23,0.02 z"
           id="path16"
           inkscape:connector-curvature="0"
           style="fill:#916f6f" />
        <path
           class="cls-2"
           d="m 477.88,136.51 v 3 c -39.88,0 -88,0 -137.23,0 v -3 c 42.35,-0.05 90.07,-0.05 137.23,0 z"
           id="path18"
           inkscape:connector-curvature="0"
           style="fill:#916f6f" />
        <path
           class="cls-2"
           d="M 477.88,89.83 V 96 H 340.65 v -6.15 c 44.82,-0.03 91.86,-0.03 137.23,-0.02 z"
           id="path20"
           inkscape:connector-curvature="0"
           style="fill:#916f6f" />
      </g>
      <path
         style="fill:#000000;fill-opacity:0.47465437;stroke:none;stroke-width:1.00157475;stroke-linecap:butt;stroke-linejoin:miter;stroke-miterlimit:4;stroke-dasharray:none;stroke-opacity:1"
         d="m 717.1273,104.77359 6.65111,-8.522827 0.11799,-5.536576 -6.37143,0.163482 z"
         id="path1687-8"
         inkscape:connector-curvature="0"
         sodipodi:nodetypes="ccccc" />
      <g
         id="Bottom_Candles"
         data-name="Bottom Candles">
        <g
           id="Orange_Candle"
           data-name="Orange Candle">
          <path
             class="cls-6"
             d="M 715.78,58.52 A 30.64,30.64 0 0 0 706,56.61 c -6.24,-0.41 -6.42,-0.47 -7.27,-2.53 -1.13,-2.72 -4,-4.7 -5.15,-3.56 -0.61,0.61 -0.42,1.24 0.76,2.49 a 6.08,6.08 0 0 1 1.57,2.43 c 0,0.43 -2.74,0.92 -6.44,1.16 a 31.24,31.24 0 0 0 -9.83,1.91 l -3.38,1.49 0.47,11.33 c 1.49,35.32 1.24,32.55 3.1,34.76 1.64,2 6.08,3.85 10.67,4.56 4.2,0.66 16.57,-0.2 20,-1.37 a 13.66,13.66 0 0 0 5.11,-3.2 c 1.59,-1.88 1.73,-2.82 2.18,-14.15 0.26,-6.68 0.69,-16.59 0.94,-22 l 0.46,-9.89 z"
             id="path30"
             inkscape:connector-curvature="0"
             style="fill:#da942b" />
          <path
             class="cls-7"
             d="m 687,60.75 c 7.85,-1.14 9.67,-1 9.67,0.69 0,1.91 1.94,1.85 2.55,-0.09 0.45,-1.43 0.82,-1.5 5.27,-1.06 9.32,0.92 11.88,1.89 7.48,2.85 -3.66,0.8 -20.66,1.1 -25.28,0.45 -7.25,-1.01 -7.16,-1.77 0.31,-2.84 z"
             id="path32"
             inkscape:connector-curvature="0"
             style="fill:#f6bd6a" />
          <path
             class="cls-4"
             d="m 683.12,65.6 a 138.22,138.22 0 0 0 14.58,0.52 137.93,137.93 0 0 0 14.58,-0.52 c 2,-0.45 2.34,-0.33 2.34,0.87 0,1.2 -0.9,1.66 -3.75,2.51 -10,3 -30.09,1.28 -30.09,-2.54 0,-1.17 0.34,-1.29 2.34,-0.84 z"
             id="path34"
             inkscape:connector-curvature="0"
             style="fill:#f2f2f2" />
          <path
             class="cls-7"
             d="m 714.21,84 c -0.28,7.57 -0.7,15.23 -1,17 -0.43,3.13 -0.56,3.28 -4,4.47 -5,1.69 -18.07,1.69 -23,0 -3.34,-1.15 -3.61,-1.43 -4.05,-4.11 -0.25,-1.59 -0.69,-9.24 -1,-17 l -0.5,-14.13 3.83,1.33 c 5.44,1.88 20.94,1.88 26.38,0 l 3.82,-1.32 z"
             id="path36"
             inkscape:connector-curvature="0"
             style="fill:#f6bd6a" />
        </g>
        <g
           transform="matrix(2.0975925,0,0,2.2932033,-647.71883,-215.34899)"
           id="Blue_Candle-5-5"
           data-name="Blue Candle"
           style="stroke-width:0.45595098">
          <path
             inkscape:connector-curvature="0"
             class="cls-5"
             d="m 641.47642,147.27286 c -3.77109,1.17078 -10.95431,1.44398 -13.82101,0.0869 -4.92533,-1.4224 -6.50067,-3.75443 -6.53809,-6.24307 2.69403,-5.1983 22.37903,-5.68822 27.56242,-2.15034 2.61286,1.78338 -0.33662,5.67618 -7.20332,8.30646 z"
             id="path27-1-0"
             style="fill:#000000;fill-opacity:0.41013824;stroke-width:0.45595092"
             sodipodi:nodetypes="cccscc" />
        </g>
        <g
           id="Green_Candle"
           data-name="Green Candle">
          <path
             class="cls-8"
             d="m 702.66,103.7 c -8.22,-4.62 -35.55,-4.8 -43.26,-0.29 -3.89,2.28 -5.18,4.66 -4.6,8.49 0.9,6 6.3,10.21 15.86,12.29 12.51,2.73 29.8,-0.75 34.38,-6.91 3.72,-5.02 2.72,-10.71 -2.38,-13.58 z"
             id="path39"
             inkscape:connector-curvature="0"
             style="fill:#507d3b" />
          <path
             class="cls-9"
             d="m 702.78,115.07 c -1.09,2 -6.82,4.88 -12.47,6.22 -10.87,2.56 -24.39,0.22 -30.22,-5.23 -2.56,-2.4 -2,-3.12 1.52,-1.91 7.57,2.6 23.93,3.28 32.83,1.34 10.18,-2.21 9.27,-2.16 8.34,-0.42 z"
             id="path41"
             inkscape:connector-curvature="0"
             style="fill:#98c583" />
          <path
             class="cls-4"
             d="m 696.49,112.56 c -11.3,2.85 -32.21,1.57 -37,-2.27 L 658,109 l 1.67,-1.54 c 2.55,-2.36 6.51,-3.18 17.41,-3.63 11.31,-0.47 20.61,0.58 24.13,2.72 3.95,2.45 2.6,4.16 -4.72,6.01 z"
             id="path43"
             inkscape:connector-curvature="0"
             style="fill:#f2f2f2" />
        </g>
        <g
           transform="matrix(0.97179417,0,0,2.3855223,130.29088,-270.40307)"
           id="Blue_Candle-5"
           data-name="Blue Candle"
           style="stroke-width:0.65678179">
          <path
             inkscape:connector-curvature="0"
             class="cls-5"
             d="m 533.81388,155.98456 c 9.14176,1.80557 22.05012,-2.29814 22.01299,-7.39216 -2.24445,-7.02309 -11.50081,-8.92036 -11.50081,-8.92036 -33.9568,-2.77676 -27.68545,10.93388 -10.51218,16.31252 z"
             id="path27-1"
             style="fill:#000000;fill-opacity:0.41013824;stroke-width:0.65678179"
             sodipodi:nodetypes="cccc" />
        </g>
        <g
           id="Blue_Candle"
           data-name="Blue Candle">
          <path
             class="cls-3"
             d="m 662.45,69.7 c -2,-3.33 -2.83,-4.06 -5.59,-4.89 -3.84,-1.15 -13.81,-0.82 -16.7,0.55 -1.38,0.66 -3,2.93 -5.4,7.75 -3.16,6.22 -3.48,7.33 -3.71,12.75 -0.2,5 0,6.43 1.28,8.92 a 16,16 0 0 0 9.58,7.32 c 3.56,0.85 10.83,0.81 15,-0.08 4.87,-1 9.54,-5.38 10.78,-10 1.59,-6.02 -0.3,-14.09 -5.24,-22.32 z"
             id="path23"
             inkscape:connector-curvature="0"
             style="fill:#30b6bb" />
          <path
             class="cls-4"
             d="m 641.37,69 c 0.62,-1 9.15,-1.66 12.6,-1 3.87,0.77 4.42,2 1.38,3 -4.83,1.73 -15.35,0.19 -13.98,-2 z"
             id="path25"
             inkscape:connector-curvature="0"
             style="fill:#f2f2f2" />
          <path
             class="cls-5"
             d="m 656.86,98.34 c -4.42,1.32 -13,1 -16.36,-0.53 -4.66,-2.14 -6.08,-5 -5.79,-11.56 0.32,-7.12 3.54,-14.77 5.89,-14 6.39,2 13.21,2 17.87,0 1,-0.44 1.65,0.31 3.38,4.05 4.99,10.78 2.98,19.7 -4.99,22.04 z"
             id="path27"
             inkscape:connector-curvature="0"
             style="fill:#b8e7e9" />
        </g>
      </g>
      <path
         id="Left_Shelf_Outline"
         data-name="Left Shelf Outline"
         class="cls-2"
         d="m 100,99.64 a 24.39,24.39 0 0 0 4.21,-2.52 c 1.12,-1 24,-1.12 236.48,-1.13 v -6.16 c -75,0 -142.39,0.21 -174.09,0.46 l -62.28,0.49 -2,1.7 c -2.42,2 -1.63,1.91 -12.36,1.75 L 81.32,94.09 41.28,120 C 19.3,134.27 0.92,146.53 0.43,147.27 c -1.25,1.87 -0.12,3.28 8.2,10.25 l 6.89,5.78 h 325.13 v -5.54 L 16.74,157.9 13.21,155 a 21.28,21.28 0 0 1 -3.37,-3 c 0.64,-0.65 30.87,-1 138,-1.47 58.89,-0.28 125.38,-0.44 192.81,-0.51 v -4.43 c -31.91,0 -62.33,0.15 -90.39,0.3 -42.32,0.23 -85.72,0.48 -121.54,0.71 -35.82,0.23 -64.08,0.44 -76.1,0.56 -24.06,0.25 -43.74,0.26 -43.74,0 0,-0.47 0.51,-0.81 44.12,-29 l 29.36,-19 5.91,0.21 5.91,0.21 -26.35,18.15 c -14.49,10 -27.36,18.73 -28.6,19.44 -6,3.44 -12.55,3.32 148.39,2.68 43.23,-0.17 99,-0.29 153,-0.33 v -3 c -26.34,0 -50.07,0.1 -69,0.19 -65.54,0.32 -143.45,0.6 -173.12,0.63 l -54,0.06 2.85,-2 C 59.88,126.42 97.66,100.74 100,99.64 Z"
         inkscape:connector-curvature="0"
         style="fill:#916f6f" />
      <g
         id="Bottom_Books"
         data-name="Bottom Books">
        <g
           id="Blue_Book"
           data-name="Blue Book"
           style="filter:url(#filter2186)">
          <path
             class="cls-5"
             d="m 119.81,95.08 -26,25.13 V 21.75 L 120.28,5 Q 120,50 119.81,95.08 Z"
             id="path47"
             inkscape:connector-curvature="0"
             style="fill:#b8e7e9" />
          <path
             class="cls-3"
             d="M 121.52,2.26 A 2.75,2.75 0 0 0 119.12,3 c -1,0.92 -2.89,1.17 -8.93,1.17 h -7.63 l -0.23,-2 C 102.2,1.03 101.6,0.1 100.91,-0.03 99.84,-0.21 74.39,15.6 71.32,18.37 c -1.17,1.07 -1.26,4.51 -1.26,52.56 0,34.06 0.25,51.88 0.75,52.81 0.69,1.28 1.6,1.39 11.64,1.39 9.13,0 11.11,-0.19 12.22,-1.19 1.46,-1.32 1.72,-2.87 0.56,-3.26 C 94.7,120.5 94.65,105.45 95.05,71.23 L 95.62,22 l 11,-6.77 c 6,-3.72 11.3,-6.77 11.7,-6.77 0.4,0 0.73,2.66 0.73,6.66 0,7.06 0.57,8.94 2.44,8.23 1.67,-0.62 1.71,-20.44 0.03,-21.09 z"
             id="path49"
             inkscape:connector-curvature="0"
             style="fill:#30b6bb" />
          <path
             class="cls-5"
             d="m 92,28.11 c 0,3.07 -0.09,25.34 -0.18,49.5 l -0.16,43.92 h -18 L 73.84,72 74,22.53 h 18 z"
             id="path51"
             inkscape:connector-curvature="0"
             style="fill:#b8e7e9" />
          <path
             class="cls-4"
             d="m 103.39,13.35 -9.52,5.94 h -8.84 c -10.27,0 -10.44,0.56 2,-7.25 l 8,-5 8.91,0.21 8.91,0.2 z"
             id="path53"
             inkscape:connector-curvature="0"
             style="fill:#f2f2f2" />
        </g>
        <g
           id="Yellow_Book"
           data-name="Yellow Book">
          <rect
             class="cls-10"
             x="94.879997"
             y="52.650002"
             width="10.14"
             height="67.010002"
             id="rect56"
             style="fill:#ffffcb" />
          <path
             class="cls-11"
             d="m 95.146069,122.77729 a 3.3813222,3.3061965 0 0 1 -0.563553,-2.00576 c 0,-1.26738 0.710077,-1.45473 5.635534,-1.45473 5.13962,0 5.63555,0.15429 5.63555,1.58698 0,1.43268 -0.54102,1.58697 -4.00124,1.58697 a 22.722485,22.21764 0 0 0 -5.105798,0.41879 1.7582875,1.7192222 0 0 1 -1.690661,-0.13225 z"
             id="path58"
             inkscape:connector-curvature="0"
             style="fill:#dbca4d;stroke-width:1" />
          <path
             class="cls-4"
             d="M 106.83,51.73 96,52.64 c 0,-0.58 0,-1.16 -0.07,-1.75 l 10.69,-8.1 z"
             id="path60"
             inkscape:connector-curvature="0"
             style="fill:#f2f2f2" />
          <path
             class="cls-11"
             d="m 95.26,54.32 a 6.18,6.18 0 0 1 -0.38,-2.61 c 0,-1.84 0.68,-2.75 4,-5.28 4.43,-3.42 5,-3.61 5.73,-1.8 0.35,0.9 -0.25,1.91 -2.15,3.55 l -2.63,2.3 2.75,0.22 c 3.25,0.27 4.37,2.46 1.56,3 -3,0.62 -8.44,1 -8.84,0.58 z"
             id="path62"
             inkscape:connector-curvature="0"
             style="fill:#dbca4d" />
        </g>
        <g
           id="Orange_Book"
           data-name="Orange Book"
           style="filter:url(#filter2210)">
          <path
             class="cls-7"
             d="M 152.55,11.84 119,33.51 v 88 L 152.67,91.7 Z"
             id="path65"
             inkscape:connector-curvature="0"
             style="fill:#f6bd6a" />
          <path
             class="cls-6"
             d="m 105.22,122.94 c -0.72,-1.88 -0.5,-89.32 0.23,-91.24 0.42,-1.12 3.45,-3.5 8.27,-6.53 A 75.6,75.6 0 0 1 122,20.4 16.78,16.78 0 0 0 125.74,18 c 4.92,-3.76 16.12,-10.55 17.4,-10.55 a 2,2 0 0 1 1.6,1.44 c 0.59,1.83 4.35,2 6.29,0.21 1,-0.94 1.65,-1.05 2.58,-0.46 1.09,0.7 1.21,2.69 1.21,19.41 0,10.25 -0.24,19.39 -0.54,20.31 -0.3,0.92 -1,1.59 -1.8,1.43 -1.14,-0.22 -1.29,-1.84 -1.62,-18 L 150.5,13.97 135.38,23.55 120.26,33.13 119.9,41 c -0.19,4.34 -0.19,23.51 0,42.61 l 0.36,34.72 3.16,-2.5 c 3.54,-2.79 3.89,-2.9 5,-1.54 1.11,1.36 0.12,2.4 -5.62,6.51 l -4.64,3.33 h -6.26 c -5,0 -6.35,-0.22 -6.7,-1.14 z"
             id="path67"
             inkscape:connector-curvature="0"
             style="fill:#da942b" />
          <path
             class="cls-7"
             d="M 116.3,77.24 V 34.08 h -7.92 l -0.17,30.24 c -0.09,16.63 -0.17,36 -0.18,43 v 12.78 l 3.6,0.38 a 18.38,18.38 0 0 0 4.14,0.14 c 0.3,-0.14 0.54,-19.67 0.54,-43.4 z"
             id="path69"
             inkscape:connector-curvature="0"
             style="fill:#f6bd6a" />
          <path
             class="cls-4"
             d="m 129.26,23.42 c 6.14,-3.88 12.25,-7.73 13.59,-8.55 l 2.42,-1.49 -2.51,-0.3 c -2.18,-0.25 -4.25,0.78 -15.74,7.88 l -14.32,8.82 c -0.75,0.46 -0.11,0.66 2.16,0.67 2.88,0 4.5,-0.77 14.4,-7 z"
             id="path71"
             inkscape:connector-curvature="0"
             style="fill:#f2f2f2" />
        </g>
        <g
           id="Green_Book"
           data-name="Green Book"
           style="filter:url(#filter2198)">
          <path
             class="cls-8"
             d="m 173.82,50 c -0.43,-1.68 -0.48,-1.69 -8.28,-1.28 -6.93,0.37 -7.86,0.28 -7.86,-0.75 a 2.75,2.75 0 0 0 -1.5,-2 c -1.32,-0.71 -3.2,0.33 -15.3,8.46 l -13.8,9.27 -0.2,26.61 c -0.11,14.64 0,27.34 0.19,28.23 0.39,1.59 0.6,1.62 11.17,1.62 H 149 l 12.08,-8 c 6.64,-4.4 12.3,-8.37 12.59,-8.82 0.63,-0.93 0.76,-50.89 0.15,-53.34 z"
             id="path74"
             inkscape:connector-curvature="0"
             style="fill:#507d3b" />
          <path
             class="cls-9"
             d="m 145.8,117 -7.64,0.2 -7.64,0.21 -0.46,-3.37 c -0.25,-1.85 -0.46,-13.2 -0.46,-25.22 V 66.93 h 16.58 z"
             id="path76"
             inkscape:connector-curvature="0"
             style="fill:#98c583" />
          <path
             class="cls-4"
             d="m 147.24,63.33 h -6.3 c -3.46,0 -6.3,-0.16 -6.3,-0.35 a 89.35,89.35 0 0 1 8.1,-5.76 l 8.09,-5.41 h 13.69 l -8.64,5.76 z"
             id="path78"
             inkscape:connector-curvature="0"
             style="fill:#f2f2f2" />
          <path
             class="cls-9"
             d="M 170.64,102.07 160.18,109 c -5.76,3.8 -10.62,6.91 -10.8,6.91 -0.18,0 -0.38,-11.19 -0.38,-24.84 V 66.25 l 9.75,-6.68 c 5.36,-3.67 10.22,-6.78 10.8,-6.91 0.91,-0.2 1,3.17 1,24.59 z"
             id="path80"
             inkscape:connector-curvature="0"
             style="fill:#98c583" />
        </g>
        <g
           transform="translate(-32.165406,79.673366)"
           id="Green_Book-1"
           data-name="Green Book"
           style="filter:url(#filter1630)" />
      </g>
    </g>
  </g>
</svg>
