<svg xmlns="http://www.w3.org/2000/svg" viewBox="0 0 673.2 280.53"><defs><style>.cls-1{fill:#78634c}.cls-2{fill:#a68b6b}.cls-3{fill:#e2725b}.cls-4{fill:#ffb07f}.cls-5{fill:#c8885c}</style></defs><g id="Layer_2" data-name="Layer 2"><g id="Layer_2-2" data-name="Layer 2"><g id="Right_Side_Couch" data-name="Right Side Couch"><path class="cls-1" d="M640.15 266.07a3.47 3.47 0 00-2.64-3c-3.29-1.14-75.75-1-76.9.1-2 2-.73 3.85 6.5 9.94l7.27 6.12 6.22.4c3.42.23 18 .47 32.4.54l26.18.14.71-1.85c.78-2.04.93-9.02.26-12.39z"/><path class="cls-2" d="M574 269l-.22 3.94-4.92-4-4.86-4.08 4.82-.21a23 23 0 015.13.09A15.93 15.93 0 01574 269zM613.73 275.87c-12.42-.08-25.43-.25-28.9-.39l-6.32-.24V264.5h57.39l.21 5.76.2 5.76z"/><path class="cls-3" d="M673.2 191.23v72.91l-1.63 1c-1.39.85-14.5 1-82.63 1.05-44.55 0-117.28.38-161.62.8-17 .16-31.39.29-44.24.38V0c83.78.09 156.28.43 159.13 1 5.76 1.19 13.18 34.16 14.53 64.58a102.63 102.63 0 00.74 10.62 16.79 16.79 0 002.52-1.08c3.06-1.57 43.67-1.52 53.39.07 11.43 1.87 14 2.93 33.54 13.83 12 6.7 18 11.48 21.82 17.32 4.57 7.08 4.45 4.66 4.45 84.89z"/><path class="cls-4" d="M587.85 78.6c22.46.28 25.68.47 30.85 1.82a81.54 81.54 0 018.44 2.58c4.37 1.83 26.64 14.77 30.58 17.77 3.15 2.39 8.26 8.31 8.26 9.57 0 .23-1.32-.27-2.92-1.11-11.13-5.79-34.19-6.42-47.86-1.31a37.5 37.5 0 00-6.53 3.21l-2.56 1.73-1.88-4.2c-3.09-6.86-5.53-8.67-31.54-23.39-5.46-3.09-9.92-5.94-9.92-6.32s9.08-.55 25.08-.35z"/><path class="cls-4" d="M558.66 82.73c1 0 27.66 15.2 33.7 19.18a25.82 25.82 0 016.18 5.46c3.33 5.25 3.47 6.34 3.74 30.44.15 12.68.17 25 0 27.3l-.22 4.26-2.86-3.54c-10.15-12.54-19.4-21.17-31.2-29.09a72.92 72.92 0 00-11.77-6.54c-3.07-1.12-4.29-1.91-4-2.6 2.43-6.35 4.66-20.76 5.22-33.89.3-6.61.77-10.98 1.21-10.98zM547.82 124.23l-1.16 3.69-13.91.44c-7.65.24-50.35.61-94.9.81-19.91.1-39.11.22-54.77.35V4.41l16.58.12c34.78.25 80.94.65 102.55.89l39.3.44 2.23 6.58c5.34 15.74 8.13 35.43 8.68 61.46.5 23.72-.83 38.2-4.6 50.33z"/><path class="cls-4" d="M604.53 188.79l-.44 1.71-72.77.48c-40 .26-100.47.69-134.32 1l-13.92.11v-58.18c49-.48 137.27-1.14 161.25-1.14 6.27 0 6.88.15 12.71 3 21.65 10.66 50.16 42.47 47.49 53.02zM601.65 238.25l-.22 11.52-.21 11.52h-6.33c-3.47 0-61.88.49-129.8 1.06-29 .25-57.68.47-82 .64v-23.41c16.83-.08 34.55-.2 54.05-.36 56.93-.46 117.23-.87 134-.91zM603.23 230.5c-1.05 2.51-1.23 2.6-5.69 3-2.54.22-53.15.74-112.47 1.16-38.79.27-77 .51-102 .64v-38.59c13-.15 39.59-.36 69.3-.53 40.95-.23 92-.62 113.38-.88 37.81-.46 38.93-.43 39.51.9.33.76.74 5.59.92 10.74.37 9.74-.7 18.24-2.95 23.56zM652.82 261.85c-8.84-.09-22.82-.26-31.05-.38l-15-.21v-13.57c0-10.9.24-14.13 1.17-16.37 2.83-6.75 4.25-27.52 2.33-34.47a45.44 45.44 0 01-.93-8.28 26.31 26.31 0 00-1.36-8.18c-1.06-2.46-1.21-6.22-1.21-31.47 0-20 .26-29.23.83-30.49 1.68-3.69 8.71-7 18.4-8.69 15.21-2.65 32.39.13 39.67 6.4l2.82 2.43.19 71.72.19 71.72z"/></g><g id="Left_Side_Couch" data-name="Left Side Couch"><path class="cls-1" d="M115.05 263.76c-1.38-1.38-2.53-1.42-39.08-1.42-31.39 0-37.9.17-39.06 1s-1.44 2.09-1.64 7c-.13 3.3.12 6.93.56 8.07l.79 2.08 31.94-.32 31.93-.32 7.59-6.43c4.18-3.54 7.77-6.85 8-7.36s-.24-1.51-1.03-2.3z"/><path class="cls-2" d="M97.07 275.08l-9.18.47c-5 .25-18 .47-28.83.47H39.41l.13-5.76.12-5.76h57.41zM106.88 268.7a39.82 39.82 0 01-5 3.73c-.25 0-.45-1.78-.45-4v-4h5a27 27 0 015 .24 56.14 56.14 0 01-4.55 4.03z"/><path class="cls-3" d="M131.2 1.05c2.86-.59 75.94-.93 160.2-1v267.36c-14.77-.1-31.54-.26-52-.46-31.82-.31-98.18-.68-147.48-.83-71.42-.22-89.88-.47-90.77-1.2S0 255.89 0 191.16c0-80.16-.13-77.74 4.46-84.82 3.72-5.73 9.85-10.63 21.4-17.1C51.74 74.73 54 74.18 88.77 74.06c19.07-.06 22.74.1 24.62 1.06a16.79 16.79 0 002.51 1.13 109.57 109.57 0 00.74-11c1.27-29.67 8.83-63.02 14.56-64.2z"/><path class="cls-4" d="M291.4 4.47v125.28c-17.94-.16-40.35-.34-64.18-.53-54.9-.44-100-1-100.14-1.14-.68-.73-2.59-7.1-3.66-12.25-2.11-10.22-2.86-23.15-2.44-42.33.58-27 3.32-45.82 9-62.14l2.02-5.5 39.34-.44c45.19-.51 88.83-.84 120.06-.95zM291.4 133.91V192c-23.14-.1-60.25-.36-86.22-.6-28.22-.25-70.35-.5-93.63-.56l-42.32-.11-.45-2c-2.36-10.61 25.38-41.76 46.69-52.45 6.76-3.39 7.06-3.47 13.56-3.47 24.39-.04 113.7.62 162.37 1.1zM114.21 82.73c.48 0 .93 4 1.22 11 .53 13 2.76 27.5 5.22 33.89.26.69-1 1.48-4 2.6-9.58 3.49-27.87 17.81-37.79 29.59-2.78 3.29-5.78 6.82-6.68 7.84l-1.63 1.86.2-27.72c.2-27.56.21-27.74 1.91-31.18 3-6.11 4.66-7.29 31.06-22.31 5.34-3.07 10.07-5.57 10.49-5.57z"/><path class="cls-5" d="M15.61 100.65c1.91-1.44 8.91-5.74 15.57-9.55C52.25 79 52.25 79 85.14 78.6c16-.2 25-.06 25 .39s-4.46 3.23-9.9 6.32c-26 14.73-28.39 16.53-31.49 23.43a36.26 36.26 0 01-2 4.17c-.08 0-1.23-.83-2.55-1.77-11.2-8-40.44-9-54.08-1.87-1.6.84-2.91 1.25-2.91.93-.01-1.26 5.11-7.07 8.4-9.55z"/><path class="cls-4" d="M65.1 231.39c.9 2.15 1.14 5.55 1.14 16.2v13.47l-21.72.48c-12 .26-25.88.47-31 .47H4.3l.19-71.72.19-71.72 2.8-2.43c3.37-2.91 9-5.13 16.28-6.46 17.17-3.11 39.1 1.74 41.71 9.22.49 1.42.77 12.3.77 30.45 0 24.85-.15 28.58-1.21 31a26.31 26.31 0 00-1.36 8.18 45.44 45.44 0 01-.93 8.28c-1.95 7.19-.55 27.62 2.36 34.58zM291.4 196.72v38.52C214.28 235 80.57 234 75.78 233.51c-4.46-.41-4.65-.51-5.7-3-2.24-5.32-3.31-13.82-3-23.56.18-5.15.59-10 .93-10.74.57-1.33 1.7-1.35 39.22-.9 21.24.26 72.34.65 113.56.88 30.59.16 57.83.38 70.61.53zM236.46 239.22c19.85.16 37.85.28 54.94.36v23.55c-75.52-.53-218.93-1.87-219.16-2.11s-.36-5.35-.45-11.53l-.14-11.24 30.56.07c16.79.03 77.23.44 134.25.9z"/><path class="cls-5" d="M7.2 110.2c0-1.26 5.12-7.07 8.41-9.55 1.91-1.44 8.91-5.74 15.57-9.55C52.25 79 52.25 79 85.14 78.6c16-.2 25-.06 25 .39s-4.46 3.23-9.9 6.32c-26 14.73-28.39 16.53-31.49 23.43a36.26 36.26 0 01-2 4.17c-.08 0-1.23-.83-2.55-1.77-11.2-8-40.44-9-54.08-1.87-1.61.84-2.92 1.25-2.92.93z"/><path class="cls-4" d="M110.16 79c0 .38-4.46 3.23-9.9 6.32-26 14.73-28.39 16.53-31.49 23.43a36.26 36.26 0 01-2 4.17c-.08 0-1.23-.83-2.55-1.77-11.2-8-40.44-9-54.08-1.87-1.6.84-2.91 1.25-2.91.93 0-1.26 5.12-7.07 8.41-9.55 1.91-1.44 8.91-5.74 15.57-9.55C52.25 79 52.25 79 85.14 78.6c15.96-.2 25.02-.06 25.02.4z"/></g><g id="Middle_Couch" data-name="Middle Couch"><path class="cls-3" d="M338.88 43.59c-.63 52.07-.61 85.58.06 86.25.29.3 5.07.35 10.62.12 3.06-.12 16.87-.29 36.07-.44v4.39c-17 .17-29.27.32-32.29.41l-14.94.45v57.64l47.23-.37v4.67c-4.89.06-7.86.11-8.35.15-1.79.15-11.26.29-21.06.31H338.4v38.16h20.7c3.94 0 13.4 0 26.53-.11v4.3c-33.64.15-63.67.15-97.26 0v-4.34H290l44.1.12v-38.09h-17.46c-9.61 0-18.92-.16-20.7-.31-.47 0-3.14-.08-7.55-.14V192h5.57l40.14.17v-57.41l-14.58-.45c-2.9-.09-14.66-.23-31.13-.4v-4.16c23.14.2 38.8.35 40.4.39l5.13.11.33-62.46c.19-34.35.19-62.74 0-63.08s-18-.35-45.86-.24V0h97.26v4.41l-46.28-.32z"/><path class="cls-4" d="M334.08 134.76v57.44l-40.14-.2h-5.57v-58.09c16.47.17 28.23.31 31.13.4zM334.08 197.21v38.16l-44.1-.12h-1.61v-38.53c4.41.06 7.08.1 7.55.14 1.78.15 11.09.29 20.7.31zM334.23 67.79l-.33 62.46-5.13-.11c-1.6 0-17.26-.19-40.4-.39V4.47c27.82-.11 45.71 0 45.86.24s.19 28.73 0 63.08zM385.63 4.41v125.11c-19.2.15-33 .32-36.07.44-5.55.23-10.33.18-10.62-.12-.67-.67-.69-34.18-.06-86.25l.47-39.5zM385.63 133.91V192l-47.23.37v-57.6l14.94-.45c3.02-.09 15.26-.24 32.29-.41zM385.63 196.71v38.57c-13.13.07-22.59.11-26.53.11h-20.7v-38.18h17.82c9.8 0 19.27-.16 21.06-.31.49-.08 3.46-.13 8.35-.19zM385.63 239.58V263c-32.32.22-56.89.35-64.15.32-7.9 0-19.37-.1-33.11-.2v-23.54c33.63.15 63.63.15 97.26 0z"/><path class="cls-3" d="M385.63 263v4.37c-37.4.29-61.38.3-97.26 0v-4.28c13.74.1 25.21.17 33.11.2 7.26.07 31.83-.06 64.15-.29z"/></g></g></g></svg>