<?xml version="1.0" encoding="UTF-8"?>
<svg version="1.1" viewBox="0 0 840 181" xmlns="http://www.w3.org/2000/svg" xmlns:cc="http://creativecommons.org/ns#" xmlns:dc="http://purl.org/dc/elements/1.1/" xmlns:rdf="http://www.w3.org/1999/02/22-rdf-syntax-ns#">
 <metadata>
  <rdf:RDF>
   <cc:Work rdf:about="">
    <dc:format>image/svg+xml</dc:format>
    <dc:type rdf:resource="http://purl.org/dc/dcmitype/StillImage"/>
    <dc:title/>
   </cc:Work>
  </rdf:RDF>
 </metadata>
 <defs>
  <filter color-interpolation-filters="sRGB">
   <feFlood flood-opacity=".5" result="flood"/>
   <feComposite in="flood" in2="SourceGraphic" operator="in" result="composite1"/>
   <feGaussianBlur in="composite1" result="blur"/>
   <feOffset dx="4" dy="-2" result="offset"/>
   <feComposite in="SourceGraphic" in2="offset" result="composite2"/>
  </filter>
  <style>.cls-4n{fill:#ffffcb}.cls-1{fill:#bd9975}.cls-2{fill:#916f6f}.cls-5{fill:#a14f14}.cls-6{fill:#f58a01}.cls-7{fill:#335810}.cls-8{fill:#649239}</style>
 </defs>
 <g transform="translate(2 11)" data-name="Layer 2">
  <g id="_1st_Shelf" data-name="1st Shelf">
   <g fill-opacity=".5">
    <path d="m18 170-19-20 4-5 15 15z"/>
    <path d="M18 162h801v8H18z" stroke-linecap="round" stroke-width="5.5"/>
    <path d="m819 170 20-17-5-4-15 13z"/>
   </g>
   <g fill="#bd9975">
    <path class="cls-1" d="M329 91h157v68H329z"/>
    <path class="cls-1" d="M829 146l-14 13H478V90h237v1l12-1 3 4h20z"/>
    <path class="cls-1" d="M120 90h221v69H17L3 146l80-52 19-1 4-3 14 1z"/>
   </g>
   <path id="Left_Shelf_Outline" class="cls-2" d="M100 98a24 24 0 004-2c1-1 24-2 236-2v-6l-174 1h-62l-2 2c-2 2-2 2-12 2h-9l-40 25-41 28c-1 1 0 3 9 10l6 6h325v-6H17l-4-3a21 21 0 01-3-3l137-1 193-1v-4a24002 24002 0 00-331 2l44-29 29-19h12l-26 18-29 20c-6 3-12 3 148 2h153v-3a14182 14182 0 00-242 1H44l3-2 53-36z" fill="#916f6f" data-name="Left Shelf Outline"/>
   <path id="Right_Shelf_Outline" class="cls-2" d="M833 149a81 81 0 01-8 8l-7 5H478v-6h340l3-3a21 21 0 004-2c-2-2-164-2-347-2v-5a37086 37086 0 01347 1l-37-24-36-23h-12l27 18a1075 1075 0 0030 22H478v-3a23386 23386 0 01286 1l25-1-18-13-37-24a8 8 0 01-3-2l-2-2H478v-6l190 1h62l2 2c2 2 2 2 12 2h9l40 25 41 28c1 1 1 1-1 3z" fill="#916f6f" data-name="Right Shelf Outline"/>
   <g id="Shelf_Middle" fill="#916f6f" data-name="Shelf Middle">
    <path class="cls-2" d="M509 162H315v-6h194z"/>
    <path class="cls-2" d="M509 144v4H315v-4h194z"/>
    <path class="cls-2" d="M509 135v3H315v-3h194z"/>
    <path class="cls-2" d="M509 88v6H315v-6h194z"/>
   </g>
  </g>
 </g>
</svg>
