<?xml version="1.0" encoding="UTF-8" standalone="no"?>
<svg
   xmlns:dc="http://purl.org/dc/elements/1.1/"
   xmlns:cc="http://creativecommons.org/ns#"
   xmlns:rdf="http://www.w3.org/1999/02/22-rdf-syntax-ns#"
   xmlns:svg="http://www.w3.org/2000/svg"
   xmlns="http://www.w3.org/2000/svg"
   viewBox="0 0 712.80005 492.32083"
   version="1.1"
   id="svg906"
   width="712.80005"
   height="492.32083">
  <metadata
     id="metadata910">
    <rdf:RDF>
      <cc:Work
         rdf:about="">
        <dc:format>image/svg+xml</dc:format>
        <dc:type
           rdf:resource="http://purl.org/dc/dcmitype/StillImage" />
        <dc:title></dc:title>
      </cc:Work>
    </rdf:RDF>
  </metadata>
  <defs
     id="defs817">
    <style
       id="style815">.cls-1{fill:#a6544e;}.cls-2{fill:#b36951;}.cls-3{fill:#d1d1d1;}.cls-4{fill:#524249;}.cls-5{fill:#ff634a;}.cls-6{fill:#ffa467;}.cls-7{fill:#6e6e6e;}.cls-8{fill:#bb998f;}.cls-9{fill:#e9ddaf;}.cls-10{fill:#a1a1a1;}</style>
    <filter
       style="color-interpolation-filters:sRGB"
       id="filter950">
      <feFlood
         flood-opacity="0.498039"
         flood-color="rgb(0,0,0)"
         result="flood"
         id="feFlood940" />
      <feComposite
         in="flood"
         in2="SourceGraphic"
         operator="in"
         result="composite1"
         id="feComposite942" />
      <feGaussianBlur
         in="composite1"
         stdDeviation="0"
         result="blur"
         id="feGaussianBlur944" />
      <feOffset
         dx="6"
         dy="6"
         result="offset"
         id="feOffset946" />
      <feComposite
         in="SourceGraphic"
         in2="offset"
         operator="over"
         result="composite2"
         id="feComposite948" />
    </filter>
    <filter
       style="color-interpolation-filters:sRGB"
       id="filter986">
      <feFlood
         flood-opacity="0.498039"
         flood-color="rgb(0,0,0)"
         result="flood"
         id="feFlood976" />
      <feComposite
         in="flood"
         in2="SourceGraphic"
         operator="in"
         result="composite1"
         id="feComposite978" />
      <feGaussianBlur
         in="composite1"
         stdDeviation="0"
         result="blur"
         id="feGaussianBlur980" />
      <feOffset
         dx="6"
         dy="6"
         result="offset"
         id="feOffset982" />
      <feComposite
         in="SourceGraphic"
         in2="offset"
         operator="over"
         result="composite2"
         id="feComposite984" />
    </filter>
    <filter
       style="color-interpolation-filters:sRGB"
       id="filter998">
      <feFlood
         flood-opacity="0.498039"
         flood-color="rgb(0,0,0)"
         result="flood"
         id="feFlood988" />
      <feComposite
         in="flood"
         in2="SourceGraphic"
         operator="in"
         result="composite1"
         id="feComposite990" />
      <feGaussianBlur
         in="composite1"
         stdDeviation="0"
         result="blur"
         id="feGaussianBlur992" />
      <feOffset
         dx="6"
         dy="6"
         result="offset"
         id="feOffset994" />
      <feComposite
         in="SourceGraphic"
         in2="offset"
         operator="over"
         result="composite2"
         id="feComposite996" />
    </filter>
    <filter
       style="color-interpolation-filters:sRGB"
       id="filter1094">
      <feFlood
         flood-opacity="0.498039"
         flood-color="rgb(0,0,0)"
         result="flood"
         id="feFlood1084" />
      <feComposite
         in="flood"
         in2="SourceGraphic"
         operator="in"
         result="composite1"
         id="feComposite1086" />
      <feGaussianBlur
         in="composite1"
         stdDeviation="0"
         result="blur"
         id="feGaussianBlur1088" />
      <feOffset
         dx="-0.3"
         dy="7.4"
         result="offset"
         id="feOffset1090" />
      <feComposite
         in="SourceGraphic"
         in2="offset"
         operator="over"
         result="composite2"
         id="feComposite1092" />
    </filter>
    <filter
       style="color-interpolation-filters:sRGB;"
       id="filter1094-4">
      <feFlood
         flood-opacity="0.498039"
         flood-color="rgb(0,0,0)"
         result="flood"
         id="feFlood1084-6" />
      <feComposite
         in="flood"
         in2="SourceGraphic"
         operator="in"
         result="composite1"
         id="feComposite1086-2" />
      <feGaussianBlur
         in="composite1"
         stdDeviation="0"
         result="blur"
         id="feGaussianBlur1088-6" />
      <feOffset
         dx="-0.3"
         dy="7.4"
         result="offset"
         id="feOffset1090-7" />
      <feComposite
         in="SourceGraphic"
         in2="offset"
         operator="over"
         result="fbSourceGraphic"
         id="feComposite1092-5" />
      <feColorMatrix
         result="fbSourceGraphicAlpha"
         in="fbSourceGraphic"
         values="0 0 0 -1 0 0 0 0 -1 0 0 0 0 -1 0 0 0 0 1 0"
         id="feColorMatrix1450" />
      <feFlood
         id="feFlood1452"
         flood-opacity="0.498039"
         flood-color="rgb(0,0,0)"
         result="flood"
         in="fbSourceGraphic" />
      <feComposite
         in2="fbSourceGraphic"
         id="feComposite1454"
         in="flood"
         operator="in"
         result="composite1" />
      <feGaussianBlur
         id="feGaussianBlur1456"
         in="composite1"
         stdDeviation="0"
         result="blur" />
      <feOffset
         id="feOffset1458"
         dx="-4.4"
         dy="-4.1"
         result="offset" />
      <feComposite
         in2="offset"
         id="feComposite1460"
         in="offset"
         operator="atop"
         result="composite2" />
    </filter>
  </defs>
  <g
     id="Layer_2"
     data-name="Layer 2"
     transform="translate(59.400002,33.596072)">
    <g
       id="Layer_2-2"
       data-name="Layer 2">
      <g
         id="Bricks"
         style="filter:url(#filter998)">
        <rect
           class="cls-1"
           x="41.52"
           y="72.870003"
           width="512.09003"
           height="335.56"
           id="rect819"
           style="fill:#a6544e" />
        <path
           id="path92"
           class="cls-2"
           d="m 557.18,337.63 v -9.07 c 0,-23.1 -0.11,-54.09 -0.22,-85.08 v -0.58 c -0.1,-29.11 -0.21,-58.19 -0.34,-80.66 l -0.44,-84.6 -26.64,-0.17 C 514.89,77.38 458.68,77 404.62,76.61 386.14,76.48 361.23,76.41 333.04,76.39 h -1.64 c -44.52,0 -97,0.06 -145.11,0.23 h -1.67 c -42,0.15 -80.51,0.36 -107.42,0.6 h -0.86 c -23,0.21 -37.34,0.44 -37.61,0.68 -0.27,0.24 -0.73,75.2 -1,166.58 l -0.51,166.14 h 41.16 c 36.61,0 41.44,0.13 43.45,1.17 l 1.25,0.62 c 3.57,1.67 6.41,2.09 15.13,2.51 12.88,0.62 16.11,0.26 20.77,-2.35 l 3.84,-2.16 h 270.59 l 3.19,1.7 1.29,0.69 c 3.67,2 5.51,2.45 10.07,2.72 7.41,0.43 18.64,-1 22.8,-3 1.44,-0.67 2.42,-1.05 6.53,-1.29 3.27,-0.21 8.51,-0.32 17.54,-0.42 h 2.7 l 18.16,-0.17 41.59,-0.36 z m -42.3,70.83 h -17.31 -2.93 -15.24 -2.76 l -6.44,2.21 a 45.74,45.74 0 0 1 -14.28,2.66 c -10.24,0.59 -13.72,0 -18.25,-3 L 434,407.76 H 163.87 l -3.29,1.55 A 26.47,26.47 0 0 0 156,412 c -1,0.85 -3.54,1.14 -11.16,1.29 -11.27,0.21 -16.09,-0.45 -21.63,-3 l -3.9,-1.78 H 41.52 L 41.75,338 v -2.25 l 0.1,-30 v -0.67 l 0.09,-27.37 v -1 l 0.1,-32.32 v -0.23 c 0,-0.83 0,-1.65 0,-2.48 0,-10.64 0.07,-21 0.1,-31.11 0,-0.93 0,-1.86 0,-2.78 0,-10.79 0.08,-21.19 0.13,-31.07 0,-0.68 0,-1.36 0,-2 0,-10.92 0.1,-21.2 0.15,-30.67 0,-0.72 0,-1.44 0,-2.16 0.07,-12.72 0.14,-23.92 0.21,-33.2 0,-0.53 0,-1.06 0,-1.58 0.13,-17.41 0.25,-27.62 0.35,-27.71 0.26,-0.25 12.41,-0.46 32.81,-0.63 h 1.93 c 25.59,-0.2 63.36,-0.35 106.59,-0.44 h 2.32 c 44.82,-0.09 95.34,-0.13 144.17,-0.1 h 2.72 c 36,0 71,0.08 102,0.16 h 1.82 c 66,0.19 113.66,0.53 114.16,1 0.1,0.1 0.22,10.1 0.34,27.18 0,0.82 0,1.65 0,2.5 0.07,9.19 0.13,20.25 0.2,32.79 0,0.8 0,1.61 0,2.42 0.05,9.48 0.11,19.76 0.16,30.68 v 1.56 c 0,9.89 0.09,20.3 0.13,31.1 0,1 0,2.06 0,3.1 0,10.1 0.07,20.53 0.1,31.19 0,0.77 0,1.53 0,2.3 v 0.28 l 0.1,31.79 v 2.09 l 0.08,25.89 v 1.92 l 0.09,29.45 v 2.32 l 0.1,34.21 V 374 l 0.11,34.49 z"
           style="fill:#b36951" />
        <path
           class="cls-3"
           d="m 552.8,306.12 c -4.8,0.45 -16.26,0.52 -40.25,0.52 -26.84,0 -37.63,-0.11 -41.41,-0.53 -0.1,-0.77 -0.17,-1.48 -0.23,-2.11 2.19,-0.15 6.08,-0.24 10.39,-0.24 h 11.76 v -25.2 h -13 c -4.28,0 -7.2,0 -9.18,-0.1 a 19,19 0 0 0 -0.49,-3 c 4.41,-0.11 12.7,-0.11 22,0 l 24.43,0.35 v -15.5 c 0,-15.46 0,-15.49 -1.62,-15.93 -0.89,-0.24 -13,-0.44 -27,-0.44 -14.4,0 -20.63,0 -23.33,-0.3 -0.15,-0.67 -0.32,-1.4 -0.52,-2.15 3.24,-0.45 13.35,-0.41 44.88,-0.28 25.16,0.11 37.71,0.25 43.36,0.57 0,0.77 0,1.53 0,2.3 v 0.28 c -3,0.21 -7.85,0.28 -15.08,0.28 H 519.7 v 30.93 l 17.81,0.2 c 8.31,0.09 12.78,0.16 15.19,0.37 v 2.09 c -3.44,0.23 -10.84,0.25 -26.47,0.25 h -29.57 v 25.2 h 28.62 c 12.29,0 23.1,0.18 27.51,0.43 z"
           id="path822"
           style="fill:#d1d1d1" />
        <path
           class="cls-3"
           d="m 552.9,337.89 c -15.3,0.54 -63.95,0.6 -78.16,0.08 0,0 0,0 0,0 a 11.07,11.07 0 0 1 -1.07,-3.06 c 4.46,-0.27 14.94,-0.22 40,0 22.35,0.17 33.72,0.3 39.27,0.71 z"
           id="path824"
           style="fill:#d1d1d1" />
        <path
           class="cls-3"
           d="M 525.88,374.32 H 497 l 0.36,18 c 0.14,6.74 0.21,12.79 0.19,16.1 h -2.93 c -0.08,-3.25 -0.09,-9.49 0,-16.39 l 0.22,-17.72 h -10.06 a 74.64,74.64 0 0 1 -9.5,-0.39 17.56,17.56 0 0 0 0.28,-2 c 12,-0.81 66.55,-0.69 77.44,0.2 V 374 c -4.42,0.2 -15,0.32 -27.12,0.32 z"
           id="path826"
           style="fill:#d1d1d1" />
        <path
           class="cls-3"
           d="m 96.34,338.32 v 33.12 h 13.74 c 7.11,0 10.56,0 12.17,0.26 a 9.91,9.91 0 0 0 0.34,1.67 c -2.43,0.56 -10.76,0.64 -39.71,0.78 -26.61,0.12 -40.6,-0.07 -40.89,-0.54 -1.21,-2 1.23,-2.17 25.52,-2.17 22.21,0 25.13,-0.13 25.52,-1.14 0.24,-0.63 0.43,-8.08 0.43,-16.56 v -15.42 h -27 c -15.1,0 -21.78,0 -24.71,-0.29 v -2.25 c 1.86,-0.23 5.21,-0.37 11.21,-0.58 15.49,-0.55 62.18,-0.62 71.58,-0.19 a 7.65,7.65 0 0 1 -1.09,3.1 c -2.86,0.12 -7.62,0.21 -12.76,0.21 z"
           id="path828"
           style="fill:#d1d1d1" />
        <path
           class="cls-3"
           d="m 127.8,275.48 c 0,0.09 0,0.17 -0.07,0.24 a 14.38,14.38 0 0 0 -0.51,2.57 c -4.47,0.16 -14.22,0.27 -25.17,0.27 H 75.46 v 25.18 l 26.1,0.19 c 17.5,0.12 23.54,0.25 25.38,0.74 0,0.35 0,0.68 0,1 -2.4,0.55 -11.67,0.67 -42.33,0.8 -35.9,0.16 -42,0.13 -42.74,-0.7 v -0.67 c 0.48,-0.88 2.73,-1 15.08,-1.17 l 14.93,-0.19 v -25.15 l -15.3,-0.2 c -9.49,-0.12 -13.27,-0.25 -14.62,-0.67 v -1 c 2.35,-0.58 11.72,-0.76 43.23,-1 19.67,-0.25 36.71,-0.31 42.61,-0.24 z"
           id="path830"
           style="fill:#d1d1d1" />
        <path
           class="cls-3"
           d="m 133.56,242 c -0.13,0.49 -0.25,1 -0.35,1.42 -8.67,0.59 -81.78,1.4 -91.16,1 v -0.23 c 0,-0.83 0,-1.65 0,-2.48 0.12,0 0.24,-0.06 0.37,-0.09 1.24,-0.25 22.28,-0.45 46.76,-0.45 30.62,-0.05 41.42,0.04 44.38,0.83 z"
           id="path832"
           style="fill:#d1d1d1" />
        <path
           class="cls-3"
           d="m 552.47,207.56 c -3.84,-0.22 -11.14,-0.28 -24.58,-0.28 h -27.63 v -30.22 l 27.9,-0.19 c 13.39,-0.09 20.5,-0.18 24.18,-0.41 v -1.56 c -8,-0.57 -30.67,-0.9 -85,-1.36 l -11.7,-0.1 v -28.8 h 49.64 c 26,0 40.89,-0.13 46.92,-0.42 0,-0.81 0,-1.62 0,-2.42 -3.73,-0.39 -11,-0.52 -24.58,-0.64 L 501,140.92 v -31.56 h 26.55 c 14,0 21,-0.07 24.44,-0.35 0,-0.85 0,-1.68 0,-2.5 -6.26,-0.26 -22,-0.52 -40,-0.64 l -41.93,-0.27 -0.19,-13.42 c -0.17,-11.36 -0.36,-13.42 -1.28,-13.42 -0.92,0 -1.11,2.07 -1.27,13.5 l -0.2,13.5 H 438.34 V 93.34 c 0,-9.75 -0.17,-13.67 -0.88,-15 h -1.82 c -0.7,1.35 -0.87,5.28 -0.88,15.16 V 106 l -25.38,-0.47 c -14,-0.26 -36.64,-0.48 -50.4,-0.48 H 334 v -14 a 122.13,122.13 0 0 0 -0.36,-13 h -2.72 c -0.39,2.32 -0.52,6.59 -0.52,13.53 V 105 l -67,0.16 c -36.83,0.08 -69,0.16 -71.46,0.18 h -4.5 l -0.2,-14.15 a 125.68,125.68 0 0 0 -0.53,-13 h -2.32 c -0.21,2.22 -0.28,6.24 -0.37,13.11 l -0.18,14 -52.74,0.18 -52.74,0.19 V 92.16 c 0,-7.4 -0.14,-11.55 -0.54,-13.57 H 75.89 A 127.46,127.46 0 0 0 75.5,91.53 v 13.88 L 59.11,106 a 161.17,161.17 0 0 0 -16.41,1 c 0,0.52 0,1 0,1.58 3.08,0.71 13.43,0.7 40.88,0.42 l 40.14,-0.42 v 32.31 l -40.63,0.23 c -20.31,0.12 -37.45,0.4 -40.6,0.66 0,0.72 0,1.44 0,2.16 2.18,0.69 12.09,0.72 56.4,0.53 l 56.52,-0.24 v 28.97 l -34.68,0.48 c -19.08,0.26 -44.63,0.48 -56.79,0.48 -13.32,0 -19.23,0.11 -21.6,0.5 0,0.68 0,1.36 0,2 5,0.2 21.06,0.34 39.76,0.34 H 123 v 30.24 H 82 c -22.43,0 -35.45,0.16 -39.81,0.49 0,0.92 0,1.85 0,2.78 3.64,0.45 15,0.39 50.41,0 34.51,-0.34 47.11,-0.52 51,-1.27 a 17.06,17.06 0 0 1 0.25,-1.92 58,58 0 0 0 -8.63,-0.48 h -8.61 V 177 h 8.1 c 9.36,0 30.82,-0.44 41.54,-0.79 a 8,8 0 0 1 2.5,-2.7 c -1.86,-0.08 -4.51,-0.1 -8.29,-0.1 h -12.2 V 143.92 H 272 l 0.21,5.58 c 0.05,1.31 0.11,2.33 0.19,3.12 h 0.67 a 9.77,9.77 0 0 0 1.57,-0.28 c 0.06,-0.72 0.11,-1.61 0.15,-2.71 l 0.21,-5.47 9.1,-0.49 c 5,-0.27 20,-0.27 33.27,0 l 24.17,0.49 -0.24,5 a 36.42,36.42 0 0 0 0.06,5.59 5.58,5.58 0 0 1 3.32,-1 c 0.07,-1.08 0.1,-2.44 0.1,-4.13 v -5.71 l 53.82,0.18 53.82,0.19 0.2,14.58 0.19,14.58 h -19 c -6.32,0 -10.8,0 -13.89,0.15 a 6.26,6.26 0 0 1 2,2.54 c 7.5,0.27 19.95,0.54 34.17,0.73 l 41,0.54 v 29.52 h -21.81 c -12.09,0 -18.28,0.12 -21,0.46 a 15.22,15.22 0 0 1 0.14,2.23 c 6,0.36 24.6,0.73 49.56,1 29.31,0.3 42.81,0.34 48.48,0.07 0.02,-1.06 0.02,-2.09 0.01,-3.12 z"
           id="path834"
           style="fill:#d1d1d1" />
        <path
           class="cls-1"
           d="m 221.1,140.32 c -14.56,0 -41.78,0.22 -60.5,0.48 l -34,0.47 v -32.63 l 56.88,-0.15 c 31.29,-0.08 58.42,-0.16 60.3,-0.18 h 3.42 l 0.2,16 0.19,16 z"
           id="path836"
           style="fill:#a6544e" />
        <path
           class="cls-1"
           d="M 397.3,140.32 H 250.4 l 0.38,-32 32,-0.23 c 17.63,-0.12 50.59,0 73.26,0.27 l 41.22,0.49 z"
           id="path838"
           style="fill:#a6544e" />
        <path
           class="cls-1"
           d="m 413,140.5 -12.78,-0.21 v -31.66 l 48.78,0.18 48.78,0.19 0.2,16 0.19,16 -36.19,-0.16 C 442,140.79 420,140.62 413,140.5 Z"
           id="path840"
           style="fill:#a6544e" />
      </g>
      <path
         class="cls-4"
         d="M 460.13,422.66 H 141 q 7.32,-95.9 14.66,-191.81 a 169.71,169.71 0 0 1 39,-35.4 c 66.26,-43.31 158.56,-35.12 219.48,5.55 a 184.92,184.92 0 0 1 29.56,24.57 q 8.22,98.55 16.43,197.09 z"
         id="path843"
         style="fill:#524249" />
      <g
         id="Fire">
        <path
           class="cls-5"
           d="m 413.42,367.56 c -2.82,-14 -2.61,-13.37 -4.73,-13.37 -1.38,0 -2,0.6 -2.89,2.7 -1.5,3.64 -9.72,15.94 -12.15,18.18 l -1.95,1.8 0.4,-2.88 c 0.22,-1.59 0.62,-4.82 0.88,-7.2 1.06,-9.79 4.68,-19.06 11.79,-30.21 3.86,-6.07 4.53,-8.09 2.39,-7.25 -0.69,0.27 -5,1.46 -9.54,2.64 -8.95,2.32 -14.8,4.69 -18.46,7.48 a 16.24,16.24 0 0 1 -2.62,1.78 c -0.17,0 -0.51,-4 -0.76,-8.82 -0.82,-15.8 -4.31,-26.73 -11.61,-36.38 -3.15,-4.16 -23.36,-24.1 -25.83,-25.49 a 2.16,2.16 0 0 0 -3.36,1.82 22.49,22.49 0 0 0 1.58,5.51 c 2.49,6.21 2.2,15.67 -0.73,24 -1.23,3.51 -2.39,6.54 -2.57,6.73 -0.18,0.19 -1.46,-2.11 -2.84,-5.08 -3.68,-8 -6.21,-11.3 -17.08,-22.44 -10.87,-11.14 -14.34,-15.92 -16.19,-22.3 -1.64,-5.62 -1.16,-13.11 1,-15.87 1.72,-2.18 2,-4.36 0.64,-4.83 -4,-1.39 -13.36,12.45 -15,22.23 -0.75,4.36 -0.66,6 0.7,13.63 A 99.3,99.3 0 0 1 286,286 c 0,4.57 -1.55,17 -2.12,17 -0.25,0 -1.32,-2.51 -2.38,-5.58 -11.53,-33.49 -10.82,-31.84 -12.84,-30 a 10.11,10.11 0 0 0 -2.13,4.2 c -2.8,11.11 -7.21,21 -14.42,32.48 -9.94,15.79 -12.49,23.45 -12.53,37.6 0,9.2 -0.06,9.48 -1.27,7.92 a 31.34,31.34 0 0 1 -2.88,-5.57 c -1.54,-3.75 -1.63,-4.95 -1.66,-22 0,-23.87 -1,-26.47 -5,-13.63 -2.85,9.05 -5.15,13.53 -13.31,26 -7.73,11.76 -11,18.25 -12.68,25.14 -1.4,5.79 -1.62,16.67 -0.41,20.82 a 11,11 0 0 1 0.63,3 25.53,25.53 0 0 1 -4.48,-2.53 c -4.7,-3 -7.43,-7 -9,-13.26 -0.95,-3.77 -1.64,-4 -3.86,-1 -2.22,3 -2,14.94 0.22,23.51 3.37,13 11.21,25.2 17.51,27.29 2.3,0.77 2.37,0.91 2.47,5 0.19,8.72 3.36,13.05 9.55,13.05 1.88,0 6.8,0.47 10.92,1 8.56,1.2 28.58,2.53 41.35,2.76 51.33,0.92 105.63,-4.49 120.46,-12 5,-2.52 6.17,-4.13 5.71,-7.57 -0.36,-2.71 -0.23,-2.95 2.6,-4.82 4.33,-2.85 12.38,-10.8 14.81,-14.62 4.95,-7.7 5.51,-16.08 2.16,-32.63 z"
           id="path845"
           style="fill:#ff634a" />
        <path
           class="cls-6"
           d="m 408.32,395.85 c -2.07,4.35 -10.55,12.72 -16.46,16.25 a 54.5,54.5 0 0 0 -6.23,4.18 c -1.41,1.26 -1.45,1.55 -0.54,3.3 a 9.41,9.41 0 0 1 1,2.71 c 0,3.46 -29.93,8.71 -63.36,11.11 -10.65,0.76 -56.61,1.48 -64.44,1 -14.54,-0.88 -27.88,-2 -36.36,-3.09 l -9.72,-1.23 -0.86,-2.49 a 35.51,35.51 0 0 1 -0.9,-8.34 c -0.05,-6.54 -0.93,-8.2 -3.6,-6.77 -1.89,1 -3.33,0.26 -6.75,-3.52 -4.86,-5.39 -9.43,-16.51 -11,-26.69 l -0.49,-3.24 2.77,2.63 c 5.94,5.63 18.23,9.89 19.44,6.73 a 2.9,2.9 0 0 0 -0.34,-2.44 q -6.54,-9.21 -3.37,-23.56 c 1.74,-7.9 4,-12.55 12.66,-26 4.13,-6.4 7.83,-12.17 8.23,-12.83 0.51,-0.84 0.74,1.18 0.79,7 0.11,11.85 2.29,18.35 8.87,26.44 2.11,2.59 7,5.85 7.54,5 0.07,-0.12 -0.18,-5.89 -0.56,-12.82 -0.59,-10.75 -0.52,-13.44 0.49,-18.32 1.37,-6.66 4.89,-14.29 11.48,-24.93 5.89,-9.51 8.48,-14.62 11,-21.77 l 2,-5.62 3.91,10.66 c 5,13.56 6.42,19.21 7.07,27.43 0.54,7 1.53,9 3.57,7.35 0.65,-0.54 1.08,-2.12 1.08,-4 a 18.78,18.78 0 0 1 1.36,-6.21 c 1.85,-4.26 4,-19.6 3.89,-28 a 73.19,73.19 0 0 0 -1.22,-12.11 c -1.47,-6.75 -1.46,-12 0.05,-16.64 1.19,-3.7 2.36,-3.82 2.39,-0.26 0,2.66 2.82,9.3 5.81,13.78 1.56,2.33 7.1,8.67 12.32,14.09 5.22,5.42 10.28,10.89 11.23,12.15 4.31,5.75 8.81,17.22 8.81,22.46 a 12.54,12.54 0 0 0 1.16,4.39 l 1.16,2.45 1.36,-1.73 a 7.45,7.45 0 0 0 1.36,-4 c 0,-1.23 1.34,-5.87 3,-10.33 4.34,-11.76 5,-14.55 5,-22 v -6.67 l 4.72,4.15 c 6.87,6 14.13,14.67 17.08,20.29 a 55.37,55.37 0 0 1 4,10.95 c 2.55,10.9 3.78,28.53 2.27,32.5 -1,2.51 -1.22,7.94 -0.4,8.2 0.38,0.13 1.83,-1.76 3.22,-4.18 3.23,-5.66 7.57,-10.13 12,-12.35 3.72,-1.87 11.72,-4.4 12.25,-3.87 0.18,0.17 -0.83,2.41 -2.24,5 -5.2,9.45 -8.31,22.07 -8.31,33.68 0,6.95 0.76,8.42 3.91,7.63 2.06,-0.51 7.12,-6.15 12.41,-13.84 4,-5.85 3.82,-5.88 5.3,0.81 2.45,11 2.18,19.26 -0.81,25.53 z"
           id="path847"
           style="fill:#ffa467" />
      </g>
      <path
         id="Fence"
         class="cls-7"
         d="m 426.93,343.75 c 8.7,0 11.81,-0.74 11.43,-2.71 -0.21,-1.09 -1.43,-1.3 -9.59,-1.61 l -9.35,-0.36 -0.36,-7.2 c -0.36,-7.11 -0.39,-7.2 -2.16,-7.2 -1.77,0 -1.8,0 -2,7.39 l -0.2,7.4 -11.68,-0.2 -11.67,-0.19 -0.36,-6.48 c -0.31,-5.6 -0.54,-6.5 -1.72,-6.73 -2.06,-0.39 -2.58,1.14 -2.59,7.64 v 6 l -12.06,-0.2 -12.06,-0.19 -0.36,-6.48 c -0.31,-5.6 -0.54,-6.5 -1.72,-6.73 -2.06,-0.39 -2.58,1.14 -2.59,7.64 v 6 l -12.78,-0.2 -12.78,-0.19 -0.36,-6.12 c -0.31,-5.25 -0.55,-6.15 -1.72,-6.37 -2,-0.39 -2.58,1.13 -2.59,7.27 v 5.58 H 301 l -0.21,-6.66 c -0.2,-6.57 -0.23,-6.66 -2,-6.66 -1.59,0 -1.82,0.33 -2,2.88 -0.1,1.58 -0.37,4.58 -0.59,6.67 l -0.42,3.8 -12.73,-0.2 -12.72,-0.19 -0.21,-6 c -0.16,-4.45 -0.48,-6.08 -1.27,-6.38 -2.28,-0.87 -3.2,1.16 -3.2,7.06 v 5.69 l -12.78,-0.2 -12.78,-0.19 -0.21,-6.34 c -0.16,-4.77 -0.47,-6.43 -1.27,-6.74 -2.32,-0.89 -3.2,1.15 -3.2,7.4 v 6 H 211 l -0.21,-6.66 c -0.18,-5.84 -0.37,-6.68 -1.56,-6.91 -2.06,-0.39 -2.58,1.14 -2.59,7.64 v 6 l -11.7,-0.2 -11.7,-0.19 -0.36,-7.2 c -0.32,-6.31 -0.53,-7.22 -1.72,-7.45 -2.1,-0.4 -2.58,1.16 -2.59,8.35 v 6.66 h -8.92 c -7.15,0 -9.09,0.22 -9.83,1.11 -1.79,2.16 0.34,2.83 9.78,3.09 l 9,0.23 v 33 h -7.85 c -6.58,0 -7.91,0.19 -8.29,1.17 -1,2.49 0.87,3.15 8.76,3.15 h 7.57 l -0.52,13 c -0.46,11.53 -0.38,13.2 0.7,14.84 1.08,1.64 1.35,1.71 2.23,0.83 0.88,-0.88 1.13,-4.36 1.48,-14.86 l 0.47,-13.84 11.49,0.2 11.5,0.2 -0.14,13.26 c -0.13,14 0.38,16.65 3.08,15.62 1,-0.39 1.19,-1.81 1.19,-10 0,-5.26 0.21,-11.75 0.47,-14.42 l 0.45,-4.86 h 24.35 l -0.5,12.49 c -0.55,13.79 -0.27,16.31 1.84,16.31 a 2.42,2.42 0 0 0 1.72,-0.54 c 0.18,-0.3 0.57,-6.78 0.86,-14.4 l 0.52,-13.86 h 25 v 13.5 c 0,7.42 0.29,13.93 0.62,14.47 0.94,1.48 3.2,0.68 3.76,-1.34 0.28,-1 0.54,-7.38 0.57,-14.21 l 0.08,-12.42 h 25.89 l 0.19,14.58 c 0.2,14.5 0.21,14.58 1.82,14.81 a 3.85,3.85 0 0 0 1.76,0 c 0.08,-0.13 0.32,-6.71 0.54,-14.63 l 0.4,-14.4 13.5,-0.2 c 10.51,-0.15 13.52,0 13.59,0.72 0.05,0.5 0.29,6.91 0.54,14.24 l 0.45,13.32 h 3.6 l 0.19,-14.22 0.2,-14.22 h 25.86 l 0.19,14.22 0.2,14.22 h 3.6 l 0.19,-14.22 0.2,-14.22 h 24.45 v 13.95 c 0,11.52 0.19,14.11 1.08,14.85 0.89,0.74 1.3,0.71 2.16,0 0.86,-0.71 1.08,-3.33 1.08,-14.85 v -13.97 h 23.76 v 13.95 c 0,11.05 0.21,14.12 1,14.78 0.79,0.66 1.27,0.57 2.16,-0.32 0.89,-0.89 1.16,-3.23 1.16,-14.79 v -13.62 h 7.11 c 7.4,0 9.41,-0.77 8.47,-3.23 -0.34,-0.88 -1.88,-1.09 -7.89,-1.09 H 420 l -0.47,-7.68 c -0.26,-4.22 -0.47,-11.67 -0.47,-16.56 v -8.88 z m -220.63,32.76 -11.7,0.19 -11.7,0.2 v -33.15 h 23.78 z m 28.8,0 -12.1,0.19 -12.06,0.2 v -33.15 h 24.5 z m 30.6,-22.79 c 0,5.48 -0.21,12.93 -0.47,16.56 l -0.47,6.59 h -25 v -33.12 h 25.94 z m 30.24,23.15 H 270 v -33.12 h 25.92 z m 31.68,0 H 301 v -33.12 h 26.64 z m 30.49,-0.55 c -0.19,0.3 -6,0.55 -12.9,0.55 h -12.55 v -33.12 h 25 l 0.4,16 c 0.21,8.81 0.24,16.25 0.05,16.57 z m 29,-0.56 c -0.36,0.93 -2.28,1.11 -12.22,1.11 H 363.12 L 362.65,366 c -0.26,-6 -0.47,-13.45 -0.47,-16.56 v -5.64 h 24.32 l 0.5,15.4 c 0.31,8.5 0.36,15.95 0.13,16.56 z m 27.79,0.57 c -0.15,0.29 -5.43,0.54 -11.75,0.54 H 391.7 V 368 c 0,-4.89 -0.22,-12.34 -0.47,-16.56 l -0.47,-7.67 h 23.82 l 0.31,16 c 0.17,8.81 0.18,16.23 0.03,16.56 z"
         style="fill:#6e6e6e" />
      <g
         transform="matrix(1.009752,0,0,1.0232165,1.0160717,-8.0241555)"
         id="Base-6"
         style="stroke-width:0.98380464;filter:url(#filter1094-4)">
        <path
           class="cls-8"
           d="m 557.28,409.37 h -40.32 -40.32 l -6.12,2 c -5.58,1.85 -7.12,2 -17.28,2.13 -10.87,0.1 -11.26,0.05 -14.89,-1.86 a 19,19 0 0 1 -4.19,-2.7 c -0.3,-0.49 -44.78,-0.73 -136.18,-0.73 H 162.26 L 160,410 c -5.47,4.09 -6.35,4.27 -18.83,3.85 -11.5,-0.4 -17.36,-1.46 -21.09,-3.84 -1.37,-0.88 -7.92,-1 -42.48,-0.84 L 36.75,409.37 18.36,421.61 0,433.85 v 9.34 c 0,9.23 0,9.34 1.8,10.24 1.41,0.72 12.26,0.84 51.12,0.57 118.61,-0.82 269.62,-1 398.52,-0.4 104.7,0.46 139.4,0.41 140.76,-0.22 1.78,-0.82 1.8,-0.91 1.8,-10.18 v -9.35 z"
           id="path851-9"
           style="fill:#bb998f;stroke-width:0.98380464" />
        <path
           class="cls-9"
           d="m 24,423.15 15,-9.82 h 41.71 c 35.3,0 42.24,0.17 45.29,1.1 2.2,0.67 8.08,1.27 15.18,1.54 11.46,0.44 11.62,0.42 15.61,-1.46 l 4,-1.91 H 298 c 135.55,0 137.19,0 140.51,1.44 2.87,1.23 4.94,1.44 14.28,1.43 7,0 12.45,-0.39 15.24,-1.06 3.5,-0.85 12.09,-1.05 45.66,-1.07 h 41.35 l 14.45,9.47 c 7.95,5.21 14.78,9.78 15.18,10.16 0.4,0.38 -22.58,0.51 -63.72,0.19 -35.45,-0.27 -136.21,-0.5 -223.92,-0.5 -87.71,0 -188.4,0.24 -223.74,0.52 C 37.95,433.46 9,433.53 9,433.34 c 0,-0.19 6.75,-4.79 15,-10.19 z"
           id="path853-8"
           style="fill:#e9ddaf;stroke-width:0.98380464" />
        <path
           class="cls-9"
           d="m 589.88,443.82 -0.2,5.79 -108.36,-0.32 c -59.6,-0.18 -180.13,-0.24 -267.84,-0.14 -87.71,0.1 -170.5,0.37 -184,0.6 -13.5,0.23 -24.73,0.18 -25,-0.12 -0.27,-0.3 -0.54,-3 -0.54,-6.07 V 438 L 79,437.52 c 96.6,-0.66 339.36,-0.66 436,0 l 75.09,0.51 z"
           id="path855-7"
           style="fill:#e9ddaf;stroke-width:0.98380464" />
      </g>
      <g
         id="Base"
         style="filter:url(#filter1094)">
        <path
           class="cls-8"
           d="m 557.28,409.37 h -40.32 -40.32 l -6.12,2 c -5.58,1.85 -7.12,2 -17.28,2.13 -10.87,0.1 -11.26,0.05 -14.89,-1.86 a 19,19 0 0 1 -4.19,-2.7 c -0.3,-0.49 -44.78,-0.73 -136.18,-0.73 H 162.26 L 160,410 c -5.47,4.09 -6.35,4.27 -18.83,3.85 -11.5,-0.4 -17.36,-1.46 -21.09,-3.84 -1.37,-0.88 -7.92,-1 -42.48,-0.84 L 36.75,409.37 18.36,421.61 0,433.85 v 9.34 c 0,9.23 0,9.34 1.8,10.24 1.41,0.72 12.26,0.84 51.12,0.57 118.61,-0.82 269.62,-1 398.52,-0.4 104.7,0.46 139.4,0.41 140.76,-0.22 1.78,-0.82 1.8,-0.91 1.8,-10.18 v -9.35 z"
           id="path851"
           style="fill:#bb998f" />
        <path
           class="cls-9"
           d="m 24,423.15 15,-9.82 h 41.71 c 35.3,0 42.24,0.17 45.29,1.1 2.2,0.67 8.08,1.27 15.18,1.54 11.46,0.44 11.62,0.42 15.61,-1.46 l 4,-1.91 H 298 c 135.55,0 137.19,0 140.51,1.44 2.87,1.23 4.94,1.44 14.28,1.43 7,0 12.45,-0.39 15.24,-1.06 3.5,-0.85 12.09,-1.05 45.66,-1.07 h 41.35 l 14.45,9.47 c 7.95,5.21 14.78,9.78 15.18,10.16 0.4,0.38 -22.58,0.51 -63.72,0.19 -35.45,-0.27 -136.21,-0.5 -223.92,-0.5 -87.71,0 -188.4,0.24 -223.74,0.52 C 37.95,433.46 9,433.53 9,433.34 c 0,-0.19 6.75,-4.79 15,-10.19 z"
           id="path853"
           style="fill:#e9ddaf" />
        <path
           class="cls-9"
           d="m 589.88,443.82 -0.2,5.79 -108.36,-0.32 c -59.6,-0.18 -180.13,-0.24 -267.84,-0.14 -87.71,0.1 -170.5,0.37 -184,0.6 -13.5,0.23 -24.73,0.18 -25,-0.12 -0.27,-0.3 -0.54,-3 -0.54,-6.07 V 438 L 79,437.52 c 96.6,-0.66 339.36,-0.66 436,0 l 75.09,0.51 z"
           id="path855"
           style="fill:#e9ddaf" />
      </g>
      <g
         id="Stone_Lining"
         data-name="Stone Lining">
        <path
           class="cls-10"
           d="m 478.28,397 a 21.49,21.49 0 0 1 -1.44,-8.88 c 0,-4.56 -0.31,-6 -1.75,-8.4 -1.64,-2.7 -1.67,-2.95 -0.53,-4.21 a 3.27,3.27 0 0 0 0.72,-1.63 17.56,17.56 0 0 0 0.28,-2 c 0.22,-2.49 0.32,-6.71 0.42,-14.16 0.2,-15.24 0.11,-16.71 -1.24,-19.77 0,0 0,0 0,0 a 11.07,11.07 0 0 1 -1.07,-3.06 8.63,8.63 0 0 1 0.73,-3.71 c 1.09,-3.33 1.05,-3.77 -1,-12.71 a 124.85,124.85 0 0 1 -2.21,-12.35 c -0.1,-0.77 -0.17,-1.48 -0.23,-2.11 0,-0.33 0,-0.64 -0.06,-0.92 a 33,33 0 0 0 -1.21,-8 c -0.74,-1.6 -0.69,-2.19 0.28,-3.58 1.09,-1.55 1.46,-8.24 1,-13 a 19,19 0 0 0 -0.49,-3 c 0,-0.18 -0.09,-0.34 -0.14,-0.5 a 76.08,76.08 0 0 1 -1.3,-11.69 c -0.42,-7.85 -0.71,-9.48 -2.07,-11.31 a 8.73,8.73 0 0 1 -1.59,-5.23 18,18 0 0 0 -0.44,-3.06 c -0.15,-0.67 -0.32,-1.4 -0.52,-2.15 -0.35,-1.33 -0.77,-2.72 -1.23,-4 a 92.13,92.13 0 0 1 -3.09,-11 c -0.74,-3.92 -1.42,-5.4 -3.48,-7.56 -2.5,-2.61 -2.56,-2.81 -2.21,-7.19 0.07,-0.81 0.1,-1.54 0.11,-2.21 a 15.22,15.22 0 0 0 -0.14,-2.23 c -0.45,-3 -2.06,-4.85 -5.81,-7.59 -7.06,-5.15 -8.58,-6.8 -11.26,-12.17 -3,-6.08 -5.61,-7.94 -10.76,-7.76 -3.38,0.12 -3.41,0.1 -4.27,-2.77 a 6.81,6.81 0 0 0 -0.36,-1 6.26,6.26 0 0 0 -2,-2.54 c -1.54,-1.18 -3.95,-2.14 -7.79,-3.28 -2.17,-0.64 -7.65,-2.66 -12.16,-4.49 -8.91,-3.6 -12.45,-3.87 -17.38,-1.32 -2,1.05 -2.35,1.05 -3.1,0.06 -1,-1.34 -5.61,-3.32 -7.71,-3.32 -0.83,0 -5.13,-1.7 -9.56,-3.78 -7.66,-3.59 -8.33,-3.78 -13.94,-3.78 -1.51,0 -2.65,0 -3.55,0.07 a 5.58,5.58 0 0 0 -3.32,1 12.21,12.21 0 0 0 -1.19,1 L 338,157.84 335.77,156 a 15.07,15.07 0 0 0 -6.34,-2.62 116.06,116.06 0 0 1 -15.34,-3.65 l -5.43,-1.64 -3.38,1.5 c -2.45,1.08 -3.71,2.2 -4.6,4.06 -1.26,2.65 -2.4,3.36 -2.4,1.51 0,-1.85 -4.74,-5.93 -7.37,-6.42 -1.74,-0.33 -4.52,0.17 -9.51,1.7 -2.62,0.81 -5.18,1.51 -6.8,1.89 a 9.77,9.77 0 0 1 -1.57,0.28 h -0.67 c -3.33,0.21 -8.28,1.83 -10.12,3.37 l -2.15,1.81 -1.9,-1.89 c -2.37,-2.38 -4.15,-2.82 -9.79,-2.47 -3.54,0.23 -6.14,1.08 -12.42,4.05 -4.38,2.06 -8.43,3.76 -9,3.76 -2.36,0 -6.55,1.6 -7.83,3 -1.28,1.4 -1.47,1.4 -3.63,0.28 -4.89,-2.53 -8.35,-2.26 -17.33,1.32 -4.55,1.82 -10.44,4 -13.09,4.78 a 22,22 0 0 0 -6.38,2.94 8,8 0 0 0 -2.5,2.7 5.56,5.56 0 0 0 -0.59,1.59 c -0.42,2.07 -0.6,2.17 -2.9,1.74 a 9.45,9.45 0 0 0 -5.77,1 c -2.91,1.28 -3.58,2 -5.62,6.3 -2.43,5.08 -6.4,9.43 -12.27,13.43 a 15.48,15.48 0 0 0 -4.51,4.6 10.06,10.06 0 0 0 -0.74,2.49 17.06,17.06 0 0 0 -0.25,1.92 c -0.16,2.14 0,4.26 0.6,5.17 0.6,0.91 -0.1,1.87 -2.15,4.1 a 14.71,14.71 0 0 0 -3.13,4.71 83.39,83.39 0 0 1 -4,14.26 c -0.51,1.41 -1,3 -1.36,4.39 -0.13,0.49 -0.25,1 -0.35,1.42 a 18.23,18.23 0 0 0 -0.52,3.33 12.29,12.29 0 0 1 -1.55,5.64 c -1.25,2.12 -1.65,4.34 -2.08,11.74 a 86.05,86.05 0 0 1 -1.26,11.4 c 0,0.09 0,0.17 -0.07,0.24 a 14.38,14.38 0 0 0 -0.51,2.57 c -0.56,4.32 -0.26,10.8 0.77,12.78 0.92,1.78 0.92,2.51 0,6.09 a 42.65,42.65 0 0 0 -1,7.51 c 0.54,0.14 0.72,0.32 0.72,0.53 0,0.21 -0.19,0.33 -0.74,0.46 v 0 a 53.21,53.21 0 0 1 -1.8,11.19 c -1.94,7.26 -2.27,12.52 -1,16.05 a 5.16,5.16 0 0 1 0.41,2.07 7.65,7.65 0 0 1 -1.09,3.1 v 0.08 c -1.42,2.79 -1.53,4.11 -1.53,18.69 0,8.47 0.06,12.51 0.37,14.82 a 9.91,9.91 0 0 0 0.34,1.67 6.21,6.21 0 0 0 0.64,1.4 c 1.33,2.17 1.32,2.23 -0.36,5.38 -1.33,2.49 -1.71,4.31 -1.71,8.24 a 25.32,25.32 0 0 1 -1.44,8.84 c -1.59,4.19 -1.87,8.62 -0.88,11.25 a 4.37,4.37 0 0 0 1.06,1.69 16.91,16.91 0 0 0 3.18,2.26 25.82,25.82 0 0 0 8.16,2.87 v 0 a 142.5,142.5 0 0 0 14.88,0.74 l 10.93,0.08 3.67,-3.42 a 30.82,30.82 0 0 0 2.29,-2.27 6.26,6.26 0 0 0 1.44,-2.67 38.14,38.14 0 0 0 0.73,-4.24 78.88,78.88 0 0 0 0.11,-15.66 c -0.56,-8.29 -0.92,-10.24 -2.19,-12 -1.45,-2 -1.47,-2.21 -0.42,-5.22 1.15,-3.27 1.15,-3.59 -0.42,-25.42 -0.55,-7.57 -0.46,-9.06 0.74,-12.53 a 29.87,29.87 0 0 0 1.35,-8 39.65,39.65 0 0 1 1.13,-8.34 c 1.83,-7 2.11,-13.21 0.75,-16.47 -1,-2.45 -1,-3 -0.14,-4 2.51,-2.78 5.46,-10.53 5.51,-14.47 a 52.53,52.53 0 0 1 0.71,-7.56 c 0.37,-2 1.05,-6.84 1.5,-10.8 0.45,-3.96 1.27,-7.7 1.79,-8.31 1.29,-1.51 4.59,-15.72 4.59,-19.76 0,-2.88 0.19,-3.25 1.62,-3.27 a 6.88,6.88 0 0 0 3.49,-1.62 c 2.3,-1.95 8.51,-11.48 9.7,-14.88 0.85,-2.42 1,-2.48 4.5,-2.29 a 17.92,17.92 0 0 0 14.13,-5.7 23.76,23.76 0 0 0 3.43,-4.32 c 0.3,-0.86 0.66,-0.79 2,0.39 2.14,1.91 7.39,1.76 11.45,-0.31 2.23,-1.14 5.12,-1.7 11,-2.12 7.52,-0.54 8,-0.68 10.23,-2.8 1.91,-1.85 2.55,-2.1 3.69,-1.46 0.9,0.51 7.19,0.74 18,0.66 15.67,-0.11 16.81,-0.22 19.8,-1.74 a 9.89,9.89 0 0 0 4.32,-3.92 c 1.1,-2.22 2.22,-3.07 2.22,-1.68 0,1.39 3.95,5.31 6.17,6.24 3,1.27 34.64,1.58 36.92,0.36 1.33,-0.72 1.81,-0.53 3.59,1.48 2,2.24 2.26,2.31 10,2.82 4.65,0.31 8.79,1 10,1.6 4,2.07 8.11,2.82 10.73,1.95 a 5.77,5.77 0 0 0 2.82,-1.66 c 0.25,-0.57 0.68,-0.41 1.3,0.52 4.46,6.63 10.38,10 17,9.69 3.8,-0.17 4,-0.09 4.51,1.81 0.71,2.67 6,10.95 9.18,14.3 1.5,1.6 3.21,2.7 4.19,2.7 1.47,0 1.65,0.35 1.65,3.18 0,4.63 3.24,17.58 5,19.94 1.12,1.5 1.5,3.1 1.5,6.2 a 65.17,65.17 0 0 0 1.08,9.81 65.11,65.11 0 0 1 0.99,10.17 25.36,25.36 0 0 0 5,14.14 c 1.37,1.92 1.38,2.17 0.29,4.78 -1.3,3.11 -1,9.38 0.83,16.16 a 37.62,37.62 0 0 1 1,8 35.11,35.11 0 0 0 1.39,8.51 c 1.46,4.7 1.48,3.24 -0.3,27.73 -0.35,4.86 -0.2,7.36 0.62,10 1,3.34 1,3.61 -0.4,5.53 -1.25,1.69 -1.59,3.65 -2.11,12 -0.52,8.35 -0.16,16 0.85,19.95 a 8.67,8.67 0 0 0 0.68,1.88 13.77,13.77 0 0 0 2.24,2.49 c 0.51,0.49 1.07,1 1.62,1.43 l 3.13,2.56 h 10.73 c 12.93,0 21,-1.56 25.21,-4.85 a 9.9,9.9 0 0 0 1.53,-1.5 3.39,3.39 0 0 0 0.58,-1.36 22.26,22.26 0 0 0 -1.06,-11.45 z"
           id="path858"
           style="fill:#a1a1a1" />
        <path
           class="cls-3"
           d="m 126.58,339.77 a 10.36,10.36 0 0 1 1.27,-2.13 c 0.09,0 1.23,0.31 2.54,0.69 1.31,0.38 8,0.74 14.89,0.81 14,0.14 13.32,-0.14 13.32,5.58 0,1.85 0.35,7.41 0.79,12.36 0.9,10.21 0.16,14.06 -3,15.61 -1,0.47 -5.46,1.2 -10,1.62 -8.78,0.82 -15.5,0.92 -17.28,0.26 -3.52,-1.29 -3.6,-1.69 -3.6,-17.63 -0.03,-12.08 0.19,-15.47 1.07,-17.17 z"
           id="path860"
           style="fill:#d1d1d1" />
        <path
           class="cls-3"
           d="m 158.47,409.82 -2.33,2 -11.55,-0.06 c -11.75,-0.07 -16.19,-0.73 -20.37,-3 -2,-1.11 -2.34,-1.66 -2.34,-4.12 a 21.89,21.89 0 0 1 1.44,-6.49 23.89,23.89 0 0 0 1.44,-8.92 c 0,-4.3 0.3,-5.71 1.66,-7.71 1.64,-2.43 1.68,-2.45 7.38,-2.47 3.15,0 10.1,-0.43 15.44,-0.93 12.41,-1.16 11.86,-1.66 12.52,11.53 0.64,12.64 -0.16,17.52 -3.29,20.17 z"
           id="path862"
           style="fill:#d1d1d1" />
        <path
           class="cls-3"
           d="m 162.2,314.24 a 52.38,52.38 0 0 0 -1.43,9.89 c 0,4.67 -1.7,9.61 -3.65,10.66 -1.56,0.83 -20.85,0.8 -24.43,0 a 7.3,7.3 0 0 1 -5.77,-7.12 62.63,62.63 0 0 1 1.74,-9.86 88.92,88.92 0 0 0 2.08,-13.31 c 0.47,-8.81 0.84,-9.3 7.06,-9.3 4.58,0 18,2.6 23.07,4.46 3.19,1.13 3.58,5.48 1.33,14.58 z"
           id="path864"
           style="fill:#d1d1d1" />
        <path
           class="cls-3"
           d="m 169,271.19 a 60,60 0 0 0 -1,9.43 c 0,5.18 -3.23,12.38 -6.15,13.71 a 8.47,8.47 0 0 1 -2,0.74 13.74,13.74 0 0 0 -2,-0.4 c -1,-0.17 -4.23,-1 -7.2,-1.77 a 80.09,80.09 0 0 0 -11.67,-2 c -3.45,-0.3 -6.77,-0.95 -7.38,-1.46 -1.34,-1.11 -1.5,-8.92 -0.28,-13.35 a 83.24,83.24 0 0 0 1.27,-11.71 c 0.66,-12.15 0.25,-11.82 13.38,-11 11.09,0.71 23.26,3 24.21,4.44 0.72,1.11 0.29,5.76 -1.18,13.37 z"
           id="path866"
           style="fill:#d1d1d1" />
        <path
           class="cls-3"
           d="m 172.83,251.78 a 3,3 0 0 1 -2.26,0.84 115.23,115.23 0 0 1 -14.49,-2.72 49.31,49.31 0 0 0 -9.36,-0.88 c -9.39,-0.11 -10.12,-0.42 -9.88,-4.14 a 35.73,35.73 0 0 1 2.24,-8.24 48.81,48.81 0 0 0 2.56,-8.8 c 0.63,-4.4 1.73,-6.2 5,-8.25 2.17,-1.34 3.15,-1.5 6.69,-1.08 5.7,0.67 14.14,3.55 17.83,6.09 a 12.7,12.7 0 0 1 5.4,10.4 c 0.04,3.08 -2.77,15.58 -3.73,16.78 z"
           id="path868"
           style="fill:#d1d1d1" />
        <path
           class="cls-3"
           d="m 187.7,220.8 c -5,7.4 -6.22,7.91 -9.85,4.28 -5.31,-5.31 -13.61,-9 -23.55,-10.59 -7.07,-1.11 -7.22,-1.19 -7.22,-3.92 0,-3.69 0.54,-4.49 5.41,-8 5.84,-4.16 9.44,-8.19 11.66,-13 2.4,-5.25 4.17,-6.33 9.39,-5.72 2.25,0.27 4.32,0.88 4.61,1.36 0.29,0.48 2.19,3.3 4.23,6.27 11.7,17.07 12.11,19.35 5.32,29.32 z"
           id="path870"
           style="fill:#d1d1d1" />
        <path
           class="cls-3"
           d="m 214.58,198.75 c -2.12,4.74 -4.75,7.46 -9.06,9.36 -3.62,1.6 -5.87,1.74 -7.45,0.47 -1.14,-0.9 -5,-6.75 -8.69,-13.27 -1.09,-1.9 -3.78,-6.05 -6,-9.22 -5.79,-8.35 -5.67,-8.64 5.07,-12.33 4.75,-1.63 10.55,-3.82 12.87,-4.86 4.81,-2.16 9.53,-2.45 12.73,-0.8 l 2.12,1.1 0.18,7.72 c 0.38,14.8 0.15,17.53 -1.77,21.83 z"
           id="path872"
           style="fill:#d1d1d1" />
        <path
           class="cls-3"
           d="m 253,180 c -2,12.65 -2.66,14.94 -4.42,15.88 -0.8,0.43 -4.44,1 -8.07,1.19 a 32.7,32.7 0 0 0 -10.74,2.11 c -4.35,1.8 -8.08,2.2 -8.86,1 -0.25,-0.41 -0.63,-5.35 -0.84,-11 -0.77,-20.93 -0.46,-22.19 5.71,-23.51 a 67.24,67.24 0 0 0 10.63,-4 c 9,-4.17 12.58,-5.05 16.44,-4 4.21,1.13 4.76,2.58 3.08,8.1 A 142.26,142.26 0 0 0 253,180 Z"
           id="path874"
           style="fill:#d1d1d1" />
        <path
           class="cls-3"
           d="m 291.68,192 c -2.06,1.12 -4.56,1.34 -17.92,1.53 -14.52,0.22 -15.63,0.14 -17.26,-1.18 -1.63,-1.32 -1.72,-1.48 -0.82,-6.35 0.5,-2.71 1.39,-8 2,-11.68 a 42.8,42.8 0 0 1 2.43,-9.36 c 1.52,-2.91 5.35,-7.3 6.38,-7.3 2.41,0 13.38,-2.38 16.52,-3.58 4.81,-1.85 7.41,-1.84 9.78,0 2.75,2.17 3.43,5.91 3.51,19.29 0.05,13.73 -0.62,16.42 -4.62,18.63 z"
           id="path876"
           style="fill:#d1d1d1" />
        <path
           class="cls-3"
           d="m 341.32,192.52 c -1.32,0.93 -4.1,1.12 -16,1.09 -18.47,0 -21.18,-0.84 -22.77,-6.71 -1,-3.54 -0.93,-24 0,-28.18 0.8,-3.41 3.64,-6.12 6.43,-6.12 a 33.29,33.29 0 0 1 7.15,1.76 59.4,59.4 0 0 0 8.59,2.23 c 7,1 8.39,1.6 11.14,5.21 2.75,3.61 3.25,5.11 5.58,18.16 1.87,10.31 1.86,11.18 -0.12,12.56 z"
           id="path878"
           style="fill:#d1d1d1" />
        <path
           class="cls-3"
           d="m 378.21,182.72 a 54.42,54.42 0 0 0 -0.4,10.55 15,15 0 0 1 -0.28,5.64 c -0.59,1.56 -1.19,1.93 -3.09,1.92 a 16.9,16.9 0 0 1 -5.6,-1.53 c -2.12,-1 -5.66,-1.72 -10.26,-2.1 -8.52,-0.71 -9.46,-1 -10.44,-3 -0.7,-1.47 -3.81,-17.48 -4.83,-24.9 a 19.18,19.18 0 0 0 -1.49,-5.18 c -1.61,-3.12 -0.4,-5.46 3.34,-6.47 3.91,-1.05 7.47,-0.19 16.52,4 a 59.06,59.06 0 0 0 10.25,3.82 13.25,13.25 0 0 1 4.43,1.51 c 2.01,1.66 2.79,8.28 1.85,15.74 z"
           id="path880"
           style="fill:#d1d1d1" />
        <path
           class="cls-3"
           d="m 471.42,339.77 c 0.89,1.71 1.1,5.07 1.09,17.1 0,8.24 -0.25,15.33 -0.54,15.77 a 7.16,7.16 0 0 1 -2.1,1.62 c -2.48,1.3 -20.52,0.5 -27.16,-1.21 -4.31,-1.1 -5,-4.91 -3.81,-21.37 0.31,-4.35 0.73,-8.94 0.92,-10.2 l 0.35,-2.28 12.48,-0.08 c 6.87,-0.05 13.58,-0.4 14.92,-0.78 1.34,-0.38 2.5,-0.7 2.59,-0.7 a 11.14,11.14 0 0 1 1.26,2.13 z"
           id="path882"
           style="fill:#d1d1d1" />
        <path
           class="cls-3"
           d="m 397.48,209.43 c -5.78,-0.12 -11.64,-4.81 -14.21,-11.38 -1.38,-3.52 -1.49,-5 -1.26,-16.46 0.26,-12.46 0.29,-12.61 2,-13.57 3.26,-1.8 7.75,-1.2 15.78,2.11 a 111.28,111.28 0 0 0 11.09,4 c 1.13,0.28 2.12,0.56 3,0.85 a 15.05,15.05 0 0 1 2.15,0.89 c 1.73,0.85 2.5,1.81 2.5,3 0,0.94 -2.67,5.78 -5.94,10.75 -3.27,4.97 -7.47,11.47 -9.34,14.46 -3.14,4.98 -3.59,5.4 -5.77,5.35 z"
           id="path884"
           style="fill:#d1d1d1" />
        <path
           class="cls-3"
           d="m 414.09,226.22 c -2.47,-2.94 -7.22,-11 -7.87,-13.4 -1.17,-4.21 0.66,-8.28 9.56,-21.3 4,-5.85 5.2,-7.12 7.11,-7.5 6.29,-1.26 8.36,-0.13 11.4,6.23 2.36,4.93 4.58,7.33 11.59,12.54 4.38,3.26 4.7,3.68 4.91,6.62 0.12,1.73 0,3.41 -0.36,3.72 -0.36,0.31 -3.06,0.91 -6.07,1.32 -8.92,1.22 -16.84,4.48 -22.12,9.08 -4.8,4.19 -6.44,4.73 -8.15,2.69 z"
           id="path886"
           style="fill:#d1d1d1" />
        <path
           class="cls-3"
           d="m 425.15,251.48 c -1,-1.87 -3.75,-14.33 -3.75,-16.84 a 12.58,12.58 0 0 1 4.93,-9.6 c 4.17,-2.89 11.21,-5.45 17.38,-6.32 l 5.66,-0.8 2.91,2.3 a 11.44,11.44 0 0 1 4.4,9.19 34.2,34.2 0 0 0 2.21,7.09 34.49,34.49 0 0 1 2.34,8.46 c 0.16,3.61 -0.65,3.95 -9.71,4 a 69.49,69.49 0 0 0 -12.24,1.46 C 429.21,252.8 426,253 425.15,251.48 Z"
           id="path888"
           style="fill:#d1d1d1" />
        <path
           class="cls-3"
           d="m 431.94,288.33 a 17.48,17.48 0 0 1 -1.9,-8.23 61.8,61.8 0 0 0 -1,-9.52 c -1.46,-7.53 -1.87,-11.67 -1.25,-12.68 0.92,-1.49 13.68,-3.86 24.23,-4.5 13.17,-0.79 12.79,-1.11 13.43,11 a 111.12,111.12 0 0 0 1.28,11.73 c 0.11,0.64 0.22,1.22 0.33,1.72 v 0 c 0,0.21 0.09,0.39 0.13,0.57 2.26,9.23 0.33,12.37 -7.61,12.41 A 73.33,73.33 0 0 0 447,293 c -4.73,1.19 -8.82,2.15 -9.09,2.15 -1.41,0.01 -4.3,-3.3 -5.97,-6.82 z"
           id="path890"
           style="fill:#d1d1d1" />
        <path
           class="cls-3"
           d="m 437.29,299.71 c 3,-1.43 15.11,-4 21.4,-4.48 7.87,-0.62 8.08,-0.39 8.84,9.82 a 99.16,99.16 0 0 0 2.06,13.74 50.11,50.11 0 0 1 1.49,8.78 c 0,3.61 -2.31,6.34 -6.12,7.21 -4.59,1.07 -22.8,0.84 -24.29,-0.29 -1.86,-1.41 -3.43,-6.55 -3.43,-11.21 a 33.39,33.39 0 0 0 -1,-7.64 c -2.47,-8.55 -2.08,-14.4 1.05,-15.93 z"
           id="path892"
           style="fill:#d1d1d1" />
        <path
           class="cls-3"
           d="m 472.16,409.55 c -3.45,1.81 -4.14,1.9 -16.92,2.1 l -13.32,0.21 -2.31,-2 c -3.08,-2.66 -4,-8.1 -3.33,-20.61 0.65,-12.81 0.15,-12.36 12.5,-11.18 5.33,0.52 12.32,0.87 15.51,0.78 l 5.81,-0.16 1.57,2.8 c 1.21,2.16 1.57,4 1.57,8 a 20.8,20.8 0 0 0 1.49,8.62 14.68,14.68 0 0 1 1.27,6.49 c -0.22,2.87 -0.47,3.18 -3.84,4.95 z"
           id="path894"
           style="fill:#d1d1d1" />
      </g>
      <g
         id="Top_Mantle"
         data-name="Top Mantle"
         style="filter:url(#filter986)">
        <path
           class="cls-8"
           d="m 582.92,57.23 c -1,-1.58 -12.93,-9.68 -41.87,-28.35 C 518.77,14.51 499.49,2.13 498.21,1.38 495.93,0 491.39,0 297.07,0 144.85,0 97.89,0.2 96.65,0.86 95.76,1.33 76.45,13.7 53.74,28.35 24.08,47.48 12.05,55.62 11.08,57.22 9.94,59.09 9.72,60.89 9.73,68.45 c 0,9.07 0.24,10.32 2.06,10.9 0.55,0.18 20.31,0.21 43.92,0.07 173.45,-1 258.11,-1.21 328.77,-0.81 184.52,1 198.39,1 199.11,-0.11 0.36,-0.58 0.67,-5.1 0.67,-10 0.01,-7.6 -0.21,-9.41 -1.34,-11.27 z"
           id="path897"
           style="fill:#bb998f" />
        <path
           class="cls-9"
           d="m 56.52,31.71 c 21.18,-13.6 39.29,-25.32 40.23,-26 1.65,-1.25 9.72,-1.3 200,-1.3 H 495 l 38.72,24.94 C 555,43 573.48,55 574.8,55.88 l 2.41,1.63 H 297 C 142.86,57.51 17,57.27 17.38,57 17.76,56.73 35.33,45.32 56.52,31.71 Z"
           id="path899"
           style="fill:#e9ddaf" />
        <path
           class="cls-9"
           d="m 579.6,75.05 -52.92,-0.13 c -29.11,-0.07 -91,-0.37 -137.52,-0.65 -46.52,-0.28 -133.85,-0.25 -194,0.07 l -145,0.76 c -25.11,0.13 -35.64,0 -35.85,-0.6 A 41.12,41.12 0 0 1 14.18,68 L 14.4,62.31 155.52,62 c 77.61,-0.2 204.78,-0.2 282.6,0 l 141.48,0.36 z"
           id="path901"
           style="fill:#e9ddaf" />
      </g>
    </g>
  </g>
  <g
     id="text935"
     style="font-style:normal;font-variant:normal;font-weight:normal;font-stretch:normal;font-size:73.33333588px;line-height:1.25;font-family:'Fugaz One';-inkscape-font-specification:'Fugaz One, Normal';font-variant-ligatures:normal;font-variant-caps:normal;font-variant-numeric:normal;font-feature-settings:normal;text-align:start;letter-spacing:0px;word-spacing:0px;writing-mode:lr-tb;text-anchor:start;fill:#ffffff;fill-opacity:1;stroke:#000000;stroke-width:2.51338577;stroke-miterlimit:4;stroke-dasharray:none;stroke-opacity:1;filter:url(#filter950)"
     aria-label="Stay At Home">
    <path
       id="path904"
       style="font-style:normal;font-variant:normal;font-weight:normal;font-stretch:normal;font-size:73.33333588px;font-family:'Fugaz One';-inkscape-font-specification:'Fugaz One, Normal';font-variant-ligatures:normal;font-variant-caps:normal;font-variant-numeric:normal;font-feature-settings:normal;text-align:start;writing-mode:lr-tb;text-anchor:start;fill:#ffffff;fill-opacity:1;stroke:#000000;stroke-width:2.51338577;stroke-miterlimit:4;stroke-dasharray:none;stroke-opacity:1"
       d="m 122.25961,45.745334 q 0,5.06 7.26,5.06 7.33334,0 7.33334,-4.546667 0,-2.42 -2.49334,-3.96 -2.49333,-1.54 -6.08666,-2.566667 -3.52,-1.026667 -7.11334,-2.346667 -3.52,-1.393333 -6.01333,-4.253333 -2.49333,-2.933334 -2.49333,-7.26 0,-18.4066677 23.68666,-18.4066677 8.65334,0 13.05334,3.2999997 4.47333,3.226667 4.47333,9.020001 0,2.126666 -0.58667,4.106667 -0.51333,1.906666 -1.1,2.713333 l -0.58666,0.88 h -12.98 q 1.61333,-1.686667 1.61333,-4.253334 0,-4.766666 -6.23333,-4.766666 -7.84667,0 -7.84667,4.986666 0,2.493334 2.49333,3.960001 2.49334,1.466666 6.01334,2.346666 3.59333,0.806667 7.18666,2.053334 3.59334,1.246666 6.08667,4.18 2.49333,2.86 2.49333,7.48 0,9.313334 -5.57333,13.860001 -5.57333,4.473333 -17.16,4.473333 -11.58667,0 -15.84,-4.106667 -3.15334,-3.08 -3.15334,-8.506667 0,-2.053333 0.44,-4.473333 l 0.22,-1.173333 h 13.20001 l -0.14667,0.88 q -0.14667,0.733333 -0.14667,1.32 z" />
    <path
       id="path906"
       style="font-style:normal;font-variant:normal;font-weight:normal;font-stretch:normal;font-size:73.33333588px;font-family:'Fugaz One';-inkscape-font-specification:'Fugaz One, Normal';font-variant-ligatures:normal;font-variant-caps:normal;font-variant-numeric:normal;font-feature-settings:normal;text-align:start;writing-mode:lr-tb;text-anchor:start;fill:#ffffff;fill-opacity:1;stroke:#000000;stroke-width:2.51338577;stroke-miterlimit:4;stroke-dasharray:none;stroke-opacity:1"
       d="m 171.71836,61.805334 q -8.50666,0 -12.24666,-3.813333 -2.78667,-2.786667 -2.78667,-7.480001 0,-1.54 0.29333,-3.3 l 4.98667,-28.380001 13.42,-5.573333 -2.12667,12.246667 h 20.24001 l -1.83334,10.34 h -20.24 L 169.95836,44.132 q -0.29333,1.393334 -0.29333,2.493334 0,4.62 4.4,4.62 2.34667,0 3.88667,-1.98 1.61333,-1.98 2.2,-5.28 h 12.17333 q -3.08,17.82 -20.60667,17.82 z" />
    <path
       id="path908"
       style="font-style:normal;font-variant:normal;font-weight:normal;font-stretch:normal;font-size:73.33333588px;font-family:'Fugaz One';-inkscape-font-specification:'Fugaz One, Normal';font-variant-ligatures:normal;font-variant-caps:normal;font-variant-numeric:normal;font-feature-settings:normal;text-align:start;writing-mode:lr-tb;text-anchor:start;fill:#ffffff;fill-opacity:1;stroke:#000000;stroke-width:2.51338577;stroke-miterlimit:4;stroke-dasharray:none;stroke-opacity:1"
       d="m 230.66576,49.485334 q 0,1.906666 1.90667,1.906666 1.98,0 3.3,-0.733333 l -0.36667,8.286667 q -3.52,2.86 -7.92,2.86 -8.06666,0 -8.94666,-5.866667 -3.66667,5.866667 -10.78,5.866667 -12.02667,0 -12.02667,-10.34 0,-1.76 0.36667,-3.886667 l 1.54,-8.58 q 1.17333,-6.600001 5.35333,-10.486667 4.25333,-3.96 11,-3.96 6.82,0 9.24,3.153333 l 0.36667,-2.2 h 11.14666 l -4.10666,23.100001 q -0.0733,0.44 -0.0733,0.88 z m -21.70666,-3.52 q -0.14667,0.66 -0.14667,1.833333 0,1.173333 1.1,2.346667 1.1,1.1 3.66667,1.1 2.64,0 4.54666,-2.053334 l 2.2,-12.32 q -0.80666,-1.833333 -3.81333,-1.833333 -5.64667,0 -6.6,5.426666 z" />
    <path
       id="path910"
       style="font-style:normal;font-variant:normal;font-weight:normal;font-stretch:normal;font-size:73.33333588px;font-family:'Fugaz One';-inkscape-font-specification:'Fugaz One, Normal';font-variant-ligatures:normal;font-variant-caps:normal;font-variant-numeric:normal;font-feature-settings:normal;text-align:start;writing-mode:lr-tb;text-anchor:start;fill:#ffffff;fill-opacity:1;stroke:#000000;stroke-width:2.51338577;stroke-miterlimit:4;stroke-dasharray:none;stroke-opacity:1"
       d="m 254.39367,45.012 q -0.22,1.32 -0.22,2.64 0,3.52 3.96,3.52 3.22667,0 5.35334,-2.273333 l 4.10667,-23.393334 h 12.46666 l -6.45333,36.446668 q -1.61333,9.313333 -7.40667,14.74 -5.72,5.426667 -13.12667,5.426667 -7.40666,0 -10.70666,-2.713333 -3.22667,-2.713334 -3.22667,-7.113334 0,-6.233333 7.7,-11.073334 -4.18,-1.026666 -5.28,-4.18 -0.66,-1.76 -0.66,-3.96 0,-2.2 0.36667,-4.473333 l 4.10666,-23.100001 h 12.46667 z m 0.36667,26.620001 q 4.76667,0 6.23333,-8.653333 l 0.73334,-4.253334 q -10.19334,4.766667 -10.19334,9.606667 0,1.466667 0.80667,2.346667 0.88,0.953333 2.42,0.953333 z" />
    <path
       id="path912"
       style="font-style:normal;font-variant:normal;font-weight:normal;font-stretch:normal;font-size:73.33333588px;font-family:'Fugaz One';-inkscape-font-specification:'Fugaz One, Normal';font-variant-ligatures:normal;font-variant-caps:normal;font-variant-numeric:normal;font-feature-settings:normal;text-align:start;writing-mode:lr-tb;text-anchor:start;fill:#ffffff;fill-opacity:1;stroke:#000000;stroke-width:2.51338577;stroke-miterlimit:4;stroke-dasharray:none;stroke-opacity:1"
       d="m 325.71378,60.778667 0.44,-11.513333 h -12.24666 l -3.59334,11.513333 H 296.30712 L 315.15378,7.9786656 h 24.2 l 0.29334,52.8000014 z m -3.00666,-39.966668 -5.79334,18.626668 h 9.60667 l 0.80667,-18.626668 z" />
    <path
       id="path914"
       style="font-style:normal;font-variant:normal;font-weight:normal;font-stretch:normal;font-size:73.33333588px;font-family:'Fugaz One';-inkscape-font-specification:'Fugaz One, Normal';font-variant-ligatures:normal;font-variant-caps:normal;font-variant-numeric:normal;font-feature-settings:normal;text-align:start;writing-mode:lr-tb;text-anchor:start;fill:#ffffff;fill-opacity:1;stroke:#000000;stroke-width:2.51338577;stroke-miterlimit:4;stroke-dasharray:none;stroke-opacity:1"
       d="m 362.49962,61.805334 q -8.50666,0 -12.24666,-3.813333 -2.78667,-2.786667 -2.78667,-7.480001 0,-1.54 0.29333,-3.3 l 4.98667,-28.380001 13.42,-5.573333 -2.12667,12.246667 h 20.24 l -1.83333,10.34 h -20.24 L 360.73962,44.132 q -0.29333,1.393334 -0.29333,2.493334 0,4.62 4.4,4.62 2.34667,0 3.88667,-1.98 1.61333,-1.98 2.2,-5.28 h 12.17333 q -3.08,17.82 -20.60667,17.82 z" />
    <path
       id="path916"
       style="font-style:normal;font-variant:normal;font-weight:normal;font-stretch:normal;font-size:73.33333588px;font-family:'Fugaz One';-inkscape-font-specification:'Fugaz One, Normal';font-variant-ligatures:normal;font-variant-caps:normal;font-variant-numeric:normal;font-feature-settings:normal;text-align:start;writing-mode:lr-tb;text-anchor:start;fill:#ffffff;fill-opacity:1;stroke:#000000;stroke-width:2.51338577;stroke-miterlimit:4;stroke-dasharray:none;stroke-opacity:1"
       d="m 454.46422,7.9786656 -9.24,52.8000014 H 431.95088 L 435.32422,41.712 h -14.3 l -3.3,19.066667 h -13.27334 l 9.31334,-52.8000014 h 13.2 l -3.96,22.2933344 h 14.3 l 3.96,-22.2933344 z" />
    <path
       id="path918"
       style="font-style:normal;font-variant:normal;font-weight:normal;font-stretch:normal;font-size:73.33333588px;font-family:'Fugaz One';-inkscape-font-specification:'Fugaz One, Normal';font-variant-ligatures:normal;font-variant-caps:normal;font-variant-numeric:normal;font-feature-settings:normal;text-align:start;writing-mode:lr-tb;text-anchor:start;fill:#ffffff;fill-opacity:1;stroke:#000000;stroke-width:2.51338577;stroke-miterlimit:4;stroke-dasharray:none;stroke-opacity:1"
       d="m 477.73036,24.478666 q 7.92,0 11.95334,3.446667 3.15333,2.713333 3.15333,7.553334 0,1.613333 -0.36667,3.52 l -1.54,8.58 q -1.39333,7.773334 -6.52666,11 -5.06,3.226667 -13.56667,3.226667 -8.50667,0 -12.46667,-3.226667 -2.93333,-2.42 -2.93333,-7.26 0,-1.686667 0.36666,-3.74 l 1.54,-8.58 q 2.56667,-14.520001 20.38667,-14.520001 z m 1.98,15.986667 q 0.14667,-0.733333 0.14667,-1.833333 0,-1.173333 -0.95333,-2.566667 -0.95334,-1.393333 -3.37334,-1.393333 -2.34666,0 -3.96,1.613333 -1.61333,1.54 -2.05333,4.18 l -0.95334,5.500001 q -0.14666,0.733333 -0.14666,1.906666 0,1.1 0.95333,2.42 0.95333,1.32 3.3,1.32 2.42,0 4.03334,-1.613333 1.61333,-1.686667 2.05333,-4.033333 z" />
    <path
       id="path920"
       style="font-style:normal;font-variant:normal;font-weight:normal;font-stretch:normal;font-size:73.33333588px;font-family:'Fugaz One';-inkscape-font-specification:'Fugaz One, Normal';font-variant-ligatures:normal;font-variant-caps:normal;font-variant-numeric:normal;font-feature-settings:normal;text-align:start;writing-mode:lr-tb;text-anchor:start;fill:#ffffff;fill-opacity:1;stroke:#000000;stroke-width:2.51338577;stroke-miterlimit:4;stroke-dasharray:none;stroke-opacity:1"
       d="m 557.91692,51.392 q 1.68666,0 3.00666,-0.733333 l -0.36666,8.286667 q -3.44667,2.86 -7.84667,2.86 -9.97334,0 -9.97334,-8.36 0,-1.466667 0.29334,-3.153334 l 1.54,-9.02 q 0.22,-1.32 0.22,-2.64 0,-3.52 -3.88667,-3.52 -3.81333,0 -6.01333,3.006667 l -3.96,22.66 H 518.46358 L 521.91025,41.272 q 0.22,-1.32 0.22,-2.64 0,-3.52 -3.96,-3.52 -3.15334,0 -5.42667,2.42 l -4.10667,23.246667 h -12.46666 l 6.23333,-35.273334 h 11.58667 l -0.80667,4.4 q 4.4,-5.426667 11.14667,-5.426667 9.53333,0 10.85333,6.306667 4.4,-6.306667 11.73334,-6.306667 7.40666,0 9.60666,3.3 1.46667,2.273334 1.46667,4.986667 0,2.713334 -0.36667,4.913334 l -1.83333,10.926667 q -0.0733,0.44 -0.0733,0.806666 0,1.98 2.2,1.98 z" />
    <path
       id="path922"
       style="font-style:normal;font-variant:normal;font-weight:normal;font-stretch:normal;font-size:73.33333588px;font-family:'Fugaz One';-inkscape-font-specification:'Fugaz One, Normal';font-variant-ligatures:normal;font-variant-caps:normal;font-variant-numeric:normal;font-feature-settings:normal;text-align:start;writing-mode:lr-tb;text-anchor:start;fill:#ffffff;fill-opacity:1;stroke:#000000;stroke-width:2.51338577;stroke-miterlimit:4;stroke-dasharray:none;stroke-opacity:1"
       d="m 580.04412,61.805334 q -15.25333,0 -15.25333,-10.56 0,-1.466667 0.29333,-3.153334 l 1.54,-9.093333 q 1.24667,-7.040001 6.45333,-10.780001 5.28001,-3.813333 13.93334,-3.813333 14.74,0 14.74,11.146667 0,1.613333 -0.29333,3.52 l -0.88,5.206667 h -22.36667 l -0.29333,1.686667 q -0.14667,0.88 -0.14667,1.613333 0,4.033333 4.76667,4.033333 1.76,0 3.00666,-1.1 1.24667,-1.1 1.46667,-2.566666 L 599.18412,48.092 q -2.42,13.713334 -19.14,13.713334 z m 8.8,-22.000001 q 0.29334,-1.246666 0.29334,-2.273333 0,-1.1 -0.95334,-2.2 -0.95333,-1.1 -3.08,-1.1 -2.05333,0 -3.81333,1.393333 -1.68667,1.393334 -2.34667,4.18 z" />
  </g>
</svg>
