<svg xmlns="http://www.w3.org/2000/svg" version="1.1" id="svg906" viewBox="0 0 712.8 492.321"><defs id="defs817"><filter id="filter950" color-interpolation-filters="sRGB"><feFlood flood-opacity=".498" flood-color="#000" result="flood" id="feFlood940"/><feComposite in="flood" in2="SourceGraphic" operator="in" result="composite1" id="feComposite942"/><feGaussianBlur in="composite1" stdDeviation="0" result="blur" id="feGaussianBlur944"/><feOffset dx="6" dy="6" result="offset" id="feOffset946"/><feComposite in="SourceGraphic" in2="offset" operator="over" result="composite2" id="feComposite948"/></filter><filter id="filter986" color-interpolation-filters="sRGB"><feFlood flood-opacity=".498" flood-color="#000" result="flood" id="feFlood976"/><feComposite in="flood" in2="SourceGraphic" operator="in" result="composite1" id="feComposite978"/><feGaussianBlur in="composite1" stdDeviation="0" result="blur" id="feGaussianBlur980"/><feOffset dx="6" dy="6" result="offset" id="feOffset982"/><feComposite in="SourceGraphic" in2="offset" operator="over" result="composite2" id="feComposite984"/></filter><filter id="filter998" color-interpolation-filters="sRGB"><feFlood flood-opacity=".498" flood-color="#000" result="flood" id="feFlood988"/><feComposite in="flood" in2="SourceGraphic" operator="in" result="composite1" id="feComposite990"/><feGaussianBlur in="composite1" stdDeviation="0" result="blur" id="feGaussianBlur992"/><feOffset dx="6" dy="6" result="offset" id="feOffset994"/><feComposite in="SourceGraphic" in2="offset" operator="over" result="composite2" id="feComposite996"/></filter><filter id="filter1094" color-interpolation-filters="sRGB"><feFlood flood-opacity=".498" flood-color="#000" result="flood" id="feFlood1084"/><feComposite in="flood" in2="SourceGraphic" operator="in" result="composite1" id="feComposite1086"/><feGaussianBlur in="composite1" stdDeviation="0" result="blur" id="feGaussianBlur1088"/><feOffset dx="-.3" dy="7.4" result="offset" id="feOffset1090"/><feComposite in="SourceGraphic" in2="offset" operator="over" result="composite2" id="feComposite1092"/></filter><filter id="filter1094-4" color-interpolation-filters="sRGB"><feFlood flood-opacity=".498" flood-color="#000" result="flood" id="feFlood1084-6"/><feComposite in="flood" in2="SourceGraphic" operator="in" result="composite1" id="feComposite1086-2"/><feGaussianBlur in="composite1" stdDeviation="0" result="blur" id="feGaussianBlur1088-6"/><feOffset dx="-.3" dy="7.4" result="offset" id="feOffset1090-7"/><feComposite in="SourceGraphic" in2="offset" operator="over" result="fbSourceGraphic" id="feComposite1092-5"/><feColorMatrix result="fbSourceGraphicAlpha" in="fbSourceGraphic" values="0 0 0 -1 0 0 0 0 -1 0 0 0 0 -1 0 0 0 0 1 0" id="feColorMatrix1450"/><feFlood id="feFlood1452" flood-opacity=".498" flood-color="#000" result="flood"/><feComposite in2="fbSourceGraphic" id="feComposite1454" in="flood" operator="in" result="composite1"/><feGaussianBlur id="feGaussianBlur1456" in="composite1" stdDeviation="0" result="blur"/><feOffset id="feOffset1458" dx="-4.4" dy="-4.1" result="offset"/><feComposite in2="offset" id="feComposite1460" in="offset" operator="atop" result="composite2"/></filter><style id="style815">.cls-1{fill:#a6544e}.cls-3{fill:#d1d1d1}.cls-8{fill:#bb998f}.cls-9{fill:#e9ddaf}</style></defs><g id="Layer_2" data-name="Layer 2" transform="translate(59.4 33.596)"><g id="Layer_2-2" data-name="Layer 2"><g id="Bricks" filter="url(#filter998)"><path class="cls-1" id="rect819" fill="#a6544e" d="M41.52 72.87h512.09v335.56H41.52z"/><path id="path92" d="M557.18 337.63v-9.07c0-23.1-.11-54.09-.22-85.08v-.58c-.1-29.11-.21-58.19-.34-80.66l-.44-84.6-26.64-.17c-14.65-.09-70.86-.47-124.92-.86-18.48-.13-43.39-.2-71.58-.22h-1.64c-44.52 0-97 .06-145.11.23h-1.67c-42 .15-80.51.36-107.42.6h-.86c-23 .21-37.34.44-37.61.68-.27.24-.73 75.2-1 166.58l-.51 166.14h41.16c36.61 0 41.44.13 43.45 1.17l1.25.62c3.57 1.67 6.41 2.09 15.13 2.51 12.88.62 16.11.26 20.77-2.35l3.84-2.16h270.59l3.19 1.7 1.29.69c3.67 2 5.51 2.45 10.07 2.72 7.41.43 18.64-1 22.8-3 1.44-.67 2.42-1.05 6.53-1.29 3.27-.21 8.51-.32 17.54-.42h2.7l18.16-.17 41.59-.36zm-42.3 70.83H476.64l-6.44 2.21a45.74 45.74 0 01-14.28 2.66c-10.24.59-13.72 0-18.25-3l-3.67-2.57H163.87l-3.29 1.55A26.47 26.47 0 00156 412c-1 .85-3.54 1.14-11.16 1.29-11.27.21-16.09-.45-21.63-3l-3.9-1.78H41.52l.23-70.51v-2.25l.1-30v-.67l.09-27.37v-1l.1-32.32v-.23-2.48c0-10.64.07-21 .1-31.11v-2.78c0-10.79.08-21.19.13-31.07v-2c0-10.92.1-21.2.15-30.67v-2.16c.07-12.72.14-23.92.21-33.2v-1.58c.13-17.41.25-27.62.35-27.71.26-.25 12.41-.46 32.81-.63h1.93c25.59-.2 63.36-.35 106.59-.44h2.32c44.82-.09 95.34-.13 144.17-.1h2.72c36 0 71 .08 102 .16h1.82c66 .19 113.66.53 114.16 1 .1.1.22 10.1.34 27.18v2.5c.07 9.19.13 20.25.2 32.79v2.42c.05 9.48.11 19.76.16 30.68v1.56c0 9.89.09 20.3.13 31.1v3.1c0 10.1.07 20.53.1 31.19v2.58l.1 31.79v2.09l.08 25.89v1.92l.09 29.45v2.32l.1 34.21V374l.11 34.49z" fill="#b36951"/><path class="cls-3" d="M552.8 306.12c-4.8.45-16.26.52-40.25.52-26.84 0-37.63-.11-41.41-.53-.1-.77-.17-1.48-.23-2.11 2.19-.15 6.08-.24 10.39-.24h11.76v-25.2h-13c-4.28 0-7.2 0-9.18-.1a19 19 0 00-.49-3c4.41-.11 12.7-.11 22 0l24.43.35v-15.5c0-15.46 0-15.49-1.62-15.93-.89-.24-13-.44-27-.44-14.4 0-20.63 0-23.33-.3a54.7 54.7 0 00-.52-2.15c3.24-.45 13.35-.41 44.88-.28 25.16.11 37.71.25 43.36.57v2.58c-3 .21-7.85.28-15.08.28H519.7v30.93l17.81.2c8.31.09 12.78.16 15.19.37v2.09c-3.44.23-10.84.25-26.47.25h-29.57v25.2h28.62c12.29 0 23.1.18 27.51.43z" id="path822" fill="#d1d1d1"/><path class="cls-3" d="M552.9 337.89c-15.3.54-63.95.6-78.16.08a11.07 11.07 0 01-1.07-3.06c4.46-.27 14.94-.22 40 0 22.35.17 33.72.3 39.27.71z" id="path824" fill="#d1d1d1"/><path class="cls-3" d="M525.88 374.32H497l.36 18c.14 6.74.21 12.79.19 16.1h-2.93c-.08-3.25-.09-9.49 0-16.39l.22-17.72h-10.06a74.64 74.64 0 01-9.5-.39 17.56 17.56 0 00.28-2c12-.81 66.55-.69 77.44.2V374c-4.42.2-15 .32-27.12.32z" id="path826" fill="#d1d1d1"/><path class="cls-3" d="M96.34 338.32v33.12h13.74c7.11 0 10.56 0 12.17.26a9.91 9.91 0 00.34 1.67c-2.43.56-10.76.64-39.71.78-26.61.12-40.6-.07-40.89-.54-1.21-2 1.23-2.17 25.52-2.17 22.21 0 25.13-.13 25.52-1.14.24-.63.43-8.08.43-16.56v-15.42h-27c-15.1 0-21.78 0-24.71-.29v-2.25c1.86-.23 5.21-.37 11.21-.58 15.49-.55 62.18-.62 71.58-.19a7.65 7.65 0 01-1.09 3.1c-2.86.12-7.62.21-12.76.21z" id="path828" fill="#d1d1d1"/><path class="cls-3" d="M127.8 275.48c0 .09 0 .17-.07.24a14.38 14.38 0 00-.51 2.57c-4.47.16-14.22.27-25.17.27H75.46v25.18l26.1.19c17.5.12 23.54.25 25.38.74v1c-2.4.55-11.67.67-42.33.8-35.9.16-42 .13-42.74-.7v-.67c.48-.88 2.73-1 15.08-1.17l14.93-.19v-25.15l-15.3-.2c-9.49-.12-13.27-.25-14.62-.67v-1c2.35-.58 11.72-.76 43.23-1 19.67-.25 36.71-.31 42.61-.24z" id="path830" fill="#d1d1d1"/><path class="cls-3" d="M133.56 242c-.13.49-.25 1-.35 1.42-8.67.59-81.78 1.4-91.16 1v-.23-2.48c.12 0 .24-.06.37-.09 1.24-.25 22.28-.45 46.76-.45 30.62-.05 41.42.04 44.38.83z" id="path832" fill="#d1d1d1"/><path class="cls-3" d="M552.47 207.56c-3.84-.22-11.14-.28-24.58-.28h-27.63v-30.22l27.9-.19c13.39-.09 20.5-.18 24.18-.41v-1.56c-8-.57-30.67-.9-85-1.36l-11.7-.1v-28.8h49.64c26 0 40.89-.13 46.92-.42v-2.42c-3.73-.39-11-.52-24.58-.64l-26.62-.24v-31.56h26.55c14 0 21-.07 24.44-.35v-2.5c-6.26-.26-22-.52-40-.64l-41.93-.27-.19-13.42c-.17-11.36-.36-13.42-1.28-13.42s-1.11 2.07-1.27 13.5l-.2 13.5h-28.78V93.34c0-9.75-.17-13.67-.88-15h-1.82c-.7 1.35-.87 5.28-.88 15.16V106l-25.38-.47c-14-.26-36.64-.48-50.4-.48H334v-14a122.13 122.13 0 00-.36-13h-2.72c-.39 2.32-.52 6.59-.52 13.53V105l-67 .16c-36.83.08-69 .16-71.46.18h-4.5l-.2-14.15a125.68 125.68 0 00-.53-13h-2.32c-.21 2.22-.28 6.24-.37 13.11l-.18 14-52.74.18-52.74.19V92.16c0-7.4-.14-11.55-.54-13.57h-1.93a127.46 127.46 0 00-.39 12.94v13.88l-16.39.59a161.17 161.17 0 00-16.41 1v1.58c3.08.71 13.43.7 40.88.42l40.14-.42v32.31l-40.63.23c-20.31.12-37.45.4-40.6.66v2.16c2.18.69 12.09.72 56.4.53l56.52-.24v28.97l-34.68.48c-19.08.26-44.63.48-56.79.48-13.32 0-19.23.11-21.6.5v2c5 .2 21.06.34 39.76.34H123v30.24H82c-22.43 0-35.45.16-39.81.49v2.78c3.64.45 15 .39 50.41 0 34.51-.34 47.11-.52 51-1.27a17.06 17.06 0 01.25-1.92 58 58 0 00-8.63-.48h-8.61V177h8.1c9.36 0 30.82-.44 41.54-.79a8 8 0 012.5-2.7c-1.86-.08-4.51-.1-8.29-.1h-12.2v-29.49H272l.21 5.58c.05 1.31.11 2.33.19 3.12h.67a9.77 9.77 0 001.57-.28c.06-.72.11-1.61.15-2.71l.21-5.47 9.1-.49c5-.27 20-.27 33.27 0l24.17.49-.24 5a36.42 36.42 0 00.06 5.59 5.58 5.58 0 013.32-1c.07-1.08.1-2.44.1-4.13v-5.71l53.82.18 53.82.19.2 14.58.19 14.58h-19c-6.32 0-10.8 0-13.89.15a6.26 6.26 0 012 2.54c7.5.27 19.95.54 34.17.73l41 .54v29.52h-21.81c-12.09 0-18.28.12-21 .46a15.22 15.22 0 01.14 2.23c6 .36 24.6.73 49.56 1 29.31.3 42.81.34 48.48.07.02-1.06.02-2.09.01-3.12z" id="path834" fill="#d1d1d1"/><path class="cls-1" d="M221.1 140.32c-14.56 0-41.78.22-60.5.48l-34 .47v-32.63l56.88-.15c31.29-.08 58.42-.16 60.3-.18h3.42l.2 16 .19 16z" id="path836" fill="#a6544e"/><path class="cls-1" d="M397.3 140.32H250.4l.38-32 32-.23c17.63-.12 50.59 0 73.26.27l41.22.49z" id="path838" fill="#a6544e"/><path class="cls-1" d="M413 140.5l-12.78-.21v-31.66l48.78.18 48.78.19.2 16 .19 16-36.19-.16c-19.98-.05-41.98-.22-48.98-.34z" id="path840" fill="#a6544e"/></g><path d="M460.13 422.66H141q7.32-95.9 14.66-191.81a169.71 169.71 0 0139-35.4c66.26-43.31 158.56-35.12 219.48 5.55a184.92 184.92 0 0129.56 24.57q8.22 98.55 16.43 197.09z" id="path843" fill="#524249"/><g id="Fire"><path d="M290.639 260.74c1.472 11.483 6.47 22.355 6.54 34.043.104 10.87-2.192 21.607-5.365 31.953-1.928 4.326-7.373 7.11-11.905 5.248-4.224-1.638-6.759-6.117-7.006-10.507-1.29-6.335-2.494-12.689-3.967-18.985.514-1.144-1.865-1.374-1.631-.164-5.19 9.75-12.084 18.636-15.846 29.11-2.299 10.336-.48 21.075-2.64 31.43-1.443 2.872-5.632 3.167-8.01 1.32-3.813-2.975-7.166-6.587-9.578-10.798-3.61-6.17-5.46-13.341-5.358-20.484-.812-.825-1.421.692-1.77 1.272-5.885 8.806-12.338 17.521-15.519 27.758-2.342 8.081-1.693 17.034 2 24.615.682 1.84-1.58 3.52-3.265 2.852-3.455-.433-6.587-2.095-9.718-3.51-2.718-1.4-5.225-3.195-7.484-5.252-1.196.172-1.04 1.728-.676 2.559 2.05 9.322 5.196 18.742 11.459 26.129 1.525 1.849 3.789 3.64 6.343 3.108 1.17-.187 2.524.639 2.452 1.923 1.117 4.694.673 9.643 2.133 14.27 1.743 2.013 4.62 1.711 7 2.14 36.777 4.609 73.99 4.194 110.91 1.737 17.722-1.342 35.566-3.366 52.532-8.903 1.02-.313 2.565-.857 2.453-2.174-.329-1.574-1.5-3.27-.577-4.854 2.964-3.438 6.566-6.236 9.876-9.322 4.45-3.997 8.807-8.449 11-14.127 1.906-4.973 2.016-10.488 1.174-15.734-.16-1.253-.313-2.481-.5-3.727-3.199 5.24-6.909 10.46-12.196 13.767-4.458 2.122-10.367-1.571-10.465-6.496-.245-5.263.441-10.549 1.694-15.655 2.374-9.525 6.978-18.312 12.128-26.6.317-.576-.265-1.34-.896-.959-6.457 2.058-12.861 5.378-17.044 10.883-2.451 3.153-3.877 7.044-6.784 9.847-2.002.731-3.934-1.532-3.592-3.456 1.452-6.081 2.66-12.35 2.032-18.63-.647-9.33-3.738-18.352-7.992-26.625-3.415-6.086-8.047-11.4-13.116-16.16.164-1.205-2.19-.82-1.557.273-.065 10.099-3.66 19.715-7.481 28.919-1.183 2.849-2.555 6.063-5.54 7.425-3.631 1.386-7.979-.924-9.173-4.555-3.084-6.694-4.298-14.14-8-20.568-6.785-12.589-17.735-22.44-23.924-35.391-1.494-3.18-2.564-6.553-3.24-10l.089 1.055z" id="path847" fill="#ffa467" stroke="#ff761a" stroke-width="5.5" stroke-miterlimit="4" stroke-dasharray="none" stroke-opacity="1"/></g><path id="Fence" d="M426.93 343.75c8.7 0 11.81-.74 11.43-2.71-.21-1.09-1.43-1.3-9.59-1.61l-9.35-.36-.36-7.2c-.36-7.11-.39-7.2-2.16-7.2s-1.8 0-2 7.39l-.2 7.4-11.68-.2-11.67-.19-.36-6.48c-.31-5.6-.54-6.5-1.72-6.73-2.06-.39-2.58 1.14-2.59 7.64v6l-12.06-.2-12.06-.19-.36-6.48c-.31-5.6-.54-6.5-1.72-6.73-2.06-.39-2.58 1.14-2.59 7.64v6l-12.78-.2-12.78-.19-.36-6.12c-.31-5.25-.55-6.15-1.72-6.37-2-.39-2.58 1.13-2.59 7.27v5.58H301l-.21-6.66c-.2-6.57-.23-6.66-2-6.66-1.59 0-1.82.33-2 2.88-.1 1.58-.37 4.58-.59 6.67l-.42 3.8-12.73-.2-12.72-.19-.21-6c-.16-4.45-.48-6.08-1.27-6.38-2.28-.87-3.2 1.16-3.2 7.06v5.69l-12.78-.2-12.78-.19-.21-6.34c-.16-4.77-.47-6.43-1.27-6.74-2.32-.89-3.2 1.15-3.2 7.4v6H211l-.21-6.66c-.18-5.84-.37-6.68-1.56-6.91-2.06-.39-2.58 1.14-2.59 7.64v6l-11.7-.2-11.7-.19-.36-7.2c-.32-6.31-.53-7.22-1.72-7.45-2.1-.4-2.58 1.16-2.59 8.35v6.66h-8.92c-7.15 0-9.09.22-9.83 1.11-1.79 2.16.34 2.83 9.78 3.09l9 .23v33h-7.85c-6.58 0-7.91.19-8.29 1.17-1 2.49.87 3.15 8.76 3.15h7.57l-.52 13c-.46 11.53-.38 13.2.7 14.84 1.08 1.64 1.35 1.71 2.23.83.88-.88 1.13-4.36 1.48-14.86l.47-13.84 11.49.2 11.5.2-.14 13.26c-.13 14 .38 16.65 3.08 15.62 1-.39 1.19-1.81 1.19-10 0-5.26.21-11.75.47-14.42l.45-4.86h24.35l-.5 12.49c-.55 13.79-.27 16.31 1.84 16.31a2.42 2.42 0 001.72-.54c.18-.3.57-6.78.86-14.4l.52-13.86h25v13.5c0 7.42.29 13.93.62 14.47.94 1.48 3.2.68 3.76-1.34.28-1 .54-7.38.57-14.21l.08-12.42h25.89l.19 14.58c.2 14.5.21 14.58 1.82 14.81a3.85 3.85 0 001.76 0c.08-.13.32-6.71.54-14.63l.4-14.4 13.5-.2c10.51-.15 13.52 0 13.59.72.05.5.29 6.91.54 14.24l.45 13.32h3.6l.19-14.22.2-14.22h25.86l.19 14.22.2 14.22h3.6l.19-14.22.2-14.22h24.45v13.95c0 11.52.19 14.11 1.08 14.85.89.74 1.3.71 2.16 0 .86-.71 1.08-3.33 1.08-14.85v-13.97h23.76v13.95c0 11.05.21 14.12 1 14.78.79.66 1.27.57 2.16-.32.89-.89 1.16-3.23 1.16-14.79v-13.62h7.11c7.4 0 9.41-.77 8.47-3.23-.34-.88-1.88-1.09-7.89-1.09H420l-.47-7.68c-.26-4.22-.47-11.67-.47-16.56v-8.88zM206.3 376.51l-11.7.19-11.7.2v-33.15h23.78zm28.8 0l-12.1.19-12.06.2v-33.15h24.5zm30.6-22.79c0 5.48-.21 12.93-.47 16.56l-.47 6.59h-25v-33.12h25.94zm30.24 23.15H270v-33.12h25.92zm31.68 0H301v-33.12h26.64zm30.49-.55c-.19.3-6 .55-12.9.55h-12.55v-33.12h25l.4 16c.21 8.81.24 16.25.05 16.57zm29-.56c-.36.93-2.28 1.11-12.22 1.11h-11.77l-.47-10.87c-.26-6-.47-13.45-.47-16.56v-5.64h24.32l.5 15.4c.31 8.5.36 15.95.13 16.56zm27.79.57c-.15.29-5.43.54-11.75.54H391.7V368c0-4.89-.22-12.34-.47-16.56l-.47-7.67h23.82l.31 16c.17 8.81.18 16.23.03 16.56z" fill="#6e6e6e"/><g transform="matrix(1.00975 0 0 1.02322 1.016 -8.024)" id="Base-6" stroke-width=".984" filter="url(#filter1094-4)"><path class="cls-8" d="M557.28 409.37h-80.64l-6.12 2c-5.58 1.85-7.12 2-17.28 2.13-10.87.1-11.26.05-14.89-1.86a19 19 0 01-4.19-2.7c-.3-.49-44.78-.73-136.18-.73H162.26L160 410c-5.47 4.09-6.35 4.27-18.83 3.85-11.5-.4-17.36-1.46-21.09-3.84-1.37-.88-7.92-1-42.48-.84l-40.85.2-18.39 12.24L0 433.85v9.34c0 9.23 0 9.34 1.8 10.24 1.41.72 12.26.84 51.12.57 118.61-.82 269.62-1 398.52-.4 104.7.46 139.4.41 140.76-.22 1.78-.82 1.8-.91 1.8-10.18v-9.35z" id="path851-9" fill="#bb998f" stroke-width=".984"/><path class="cls-9" d="M24 423.15l15-9.82h41.71c35.3 0 42.24.17 45.29 1.1 2.2.67 8.08 1.27 15.18 1.54 11.46.44 11.62.42 15.61-1.46l4-1.91H298c135.55 0 137.19 0 140.51 1.44 2.87 1.23 4.94 1.44 14.28 1.43 7 0 12.45-.39 15.24-1.06 3.5-.85 12.09-1.05 45.66-1.07h41.35l14.45 9.47c7.95 5.21 14.78 9.78 15.18 10.16.4.38-22.58.51-63.72.19-35.45-.27-136.21-.5-223.92-.5-87.71 0-188.4.24-223.74.52S9 433.53 9 433.34c0-.19 6.75-4.79 15-10.19z" id="path853-8" fill="#e9ddaf" stroke-width=".984"/><path class="cls-9" d="M589.88 443.82l-.2 5.79-108.36-.32c-59.6-.18-180.13-.24-267.84-.14-87.71.1-170.5.37-184 .6-13.5.23-24.73.18-25-.12-.27-.3-.54-3-.54-6.07V438l75.06-.48c96.6-.66 339.36-.66 436 0l75.09.51z" id="path855-7" fill="#e9ddaf" stroke-width=".984"/></g><g id="Base" filter="url(#filter1094)"><path class="cls-8" d="M557.28 409.37h-80.64l-6.12 2c-5.58 1.85-7.12 2-17.28 2.13-10.87.1-11.26.05-14.89-1.86a19 19 0 01-4.19-2.7c-.3-.49-44.78-.73-136.18-.73H162.26L160 410c-5.47 4.09-6.35 4.27-18.83 3.85-11.5-.4-17.36-1.46-21.09-3.84-1.37-.88-7.92-1-42.48-.84l-40.85.2-18.39 12.24L0 433.85v9.34c0 9.23 0 9.34 1.8 10.24 1.41.72 12.26.84 51.12.57 118.61-.82 269.62-1 398.52-.4 104.7.46 139.4.41 140.76-.22 1.78-.82 1.8-.91 1.8-10.18v-9.35z" id="path851" fill="#bb998f"/><path class="cls-9" d="M24 423.15l15-9.82h41.71c35.3 0 42.24.17 45.29 1.1 2.2.67 8.08 1.27 15.18 1.54 11.46.44 11.62.42 15.61-1.46l4-1.91H298c135.55 0 137.19 0 140.51 1.44 2.87 1.23 4.94 1.44 14.28 1.43 7 0 12.45-.39 15.24-1.06 3.5-.85 12.09-1.05 45.66-1.07h41.35l14.45 9.47c7.95 5.21 14.78 9.78 15.18 10.16.4.38-22.58.51-63.72.19-35.45-.27-136.21-.5-223.92-.5-87.71 0-188.4.24-223.74.52S9 433.53 9 433.34c0-.19 6.75-4.79 15-10.19z" id="path853" fill="#e9ddaf"/><path class="cls-9" d="M589.88 443.82l-.2 5.79-108.36-.32c-59.6-.18-180.13-.24-267.84-.14-87.71.1-170.5.37-184 .6-13.5.23-24.73.18-25-.12-.27-.3-.54-3-.54-6.07V438l75.06-.48c96.6-.66 339.36-.66 436 0l75.09.51z" id="path855" fill="#e9ddaf"/></g><g id="Stone_Lining" data-name="Stone Lining"><path d="M478.28 397a21.49 21.49 0 01-1.44-8.88c0-4.56-.31-6-1.75-8.4-1.64-2.7-1.67-2.95-.53-4.21a3.27 3.27 0 00.72-1.63 17.56 17.56 0 00.28-2c.22-2.49.32-6.71.42-14.16.2-15.24.11-16.71-1.24-19.77a11.07 11.07 0 01-1.07-3.06 8.63 8.63 0 01.73-3.71c1.09-3.33 1.05-3.77-1-12.71a124.85 124.85 0 01-2.21-12.35c-.1-.77-.17-1.48-.23-2.11 0-.33 0-.64-.06-.92a33 33 0 00-1.21-8c-.74-1.6-.69-2.19.28-3.58 1.09-1.55 1.46-8.24 1-13a19 19 0 00-.49-3c0-.18-.09-.34-.14-.5a76.08 76.08 0 01-1.3-11.69c-.42-7.85-.71-9.48-2.07-11.31a8.73 8.73 0 01-1.59-5.23 18 18 0 00-.44-3.06 54.7 54.7 0 00-.52-2.15c-.35-1.33-.77-2.72-1.23-4a92.13 92.13 0 01-3.09-11c-.74-3.92-1.42-5.4-3.48-7.56-2.5-2.61-2.56-2.81-2.21-7.19.07-.81.1-1.54.11-2.21a15.22 15.22 0 00-.14-2.23c-.45-3-2.06-4.85-5.81-7.59-7.06-5.15-8.58-6.8-11.26-12.17-3-6.08-5.61-7.94-10.76-7.76-3.38.12-3.41.1-4.27-2.77a6.81 6.81 0 00-.36-1 6.26 6.26 0 00-2-2.54c-1.54-1.18-3.95-2.14-7.79-3.28-2.17-.64-7.65-2.66-12.16-4.49-8.91-3.6-12.45-3.87-17.38-1.32-2 1.05-2.35 1.05-3.1.06-1-1.34-5.61-3.32-7.71-3.32-.83 0-5.13-1.7-9.56-3.78-7.66-3.59-8.33-3.78-13.94-3.78-1.51 0-2.65 0-3.55.07a5.58 5.58 0 00-3.32 1 12.21 12.21 0 00-1.19 1l-2.22 2.13-2.23-1.84a15.07 15.07 0 00-6.34-2.62 116.06 116.06 0 01-15.34-3.65l-5.43-1.64-3.38 1.5c-2.45 1.08-3.71 2.2-4.6 4.06-1.26 2.65-2.4 3.36-2.4 1.51 0-1.85-4.74-5.93-7.37-6.42-1.74-.33-4.52.17-9.51 1.7-2.62.81-5.18 1.51-6.8 1.89a9.77 9.77 0 01-1.57.28h-.67c-3.33.21-8.28 1.83-10.12 3.37l-2.15 1.81-1.9-1.89c-2.37-2.38-4.15-2.82-9.79-2.47-3.54.23-6.14 1.08-12.42 4.05-4.38 2.06-8.43 3.76-9 3.76-2.36 0-6.55 1.6-7.83 3-1.28 1.4-1.47 1.4-3.63.28-4.89-2.53-8.35-2.26-17.33 1.32-4.55 1.82-10.44 4-13.09 4.78a22 22 0 00-6.38 2.94 8 8 0 00-2.5 2.7 5.56 5.56 0 00-.59 1.59c-.42 2.07-.6 2.17-2.9 1.74a9.45 9.45 0 00-5.77 1c-2.91 1.28-3.58 2-5.62 6.3-2.43 5.08-6.4 9.43-12.27 13.43a15.48 15.48 0 00-4.51 4.6 10.06 10.06 0 00-.74 2.49 17.06 17.06 0 00-.25 1.92c-.16 2.14 0 4.26.6 5.17.6.91-.1 1.87-2.15 4.1a14.71 14.71 0 00-3.13 4.71 83.39 83.39 0 01-4 14.26c-.51 1.41-1 3-1.36 4.39-.13.49-.25 1-.35 1.42a18.23 18.23 0 00-.52 3.33 12.29 12.29 0 01-1.55 5.64c-1.25 2.12-1.65 4.34-2.08 11.74a86.05 86.05 0 01-1.26 11.4c0 .09 0 .17-.07.24a14.38 14.38 0 00-.51 2.57c-.56 4.32-.26 10.8.77 12.78.92 1.78.92 2.51 0 6.09a42.65 42.65 0 00-1 7.51c.54.14.72.32.72.53 0 .21-.19.33-.74.46a53.21 53.21 0 01-1.8 11.19c-1.94 7.26-2.27 12.52-1 16.05a5.16 5.16 0 01.41 2.07 7.65 7.65 0 01-1.09 3.1v.08c-1.42 2.79-1.53 4.11-1.53 18.69 0 8.47.06 12.51.37 14.82a9.91 9.91 0 00.34 1.67 6.21 6.21 0 00.64 1.4c1.33 2.17 1.32 2.23-.36 5.38-1.33 2.49-1.71 4.31-1.71 8.24a25.32 25.32 0 01-1.44 8.84c-1.59 4.19-1.87 8.62-.88 11.25a4.37 4.37 0 001.06 1.69 16.91 16.91 0 003.18 2.26 25.82 25.82 0 008.16 2.87 142.5 142.5 0 0014.88.74l10.93.08 3.67-3.42a30.82 30.82 0 002.29-2.27 6.26 6.26 0 001.44-2.67 38.14 38.14 0 00.73-4.24 78.88 78.88 0 00.11-15.66c-.56-8.29-.92-10.24-2.19-12-1.45-2-1.47-2.21-.42-5.22 1.15-3.27 1.15-3.59-.42-25.42-.55-7.57-.46-9.06.74-12.53a29.87 29.87 0 001.35-8 39.65 39.65 0 011.13-8.34c1.83-7 2.11-13.21.75-16.47-1-2.45-1-3-.14-4 2.51-2.78 5.46-10.53 5.51-14.47a52.53 52.53 0 01.71-7.56c.37-2 1.05-6.84 1.5-10.8.45-3.96 1.27-7.7 1.79-8.31 1.29-1.51 4.59-15.72 4.59-19.76 0-2.88.19-3.25 1.62-3.27a6.88 6.88 0 003.49-1.62c2.3-1.95 8.51-11.48 9.7-14.88.85-2.42 1-2.48 4.5-2.29a17.92 17.92 0 0014.13-5.7 23.76 23.76 0 003.43-4.32c.3-.86.66-.79 2 .39 2.14 1.91 7.39 1.76 11.45-.31 2.23-1.14 5.12-1.7 11-2.12 7.52-.54 8-.68 10.23-2.8 1.91-1.85 2.55-2.1 3.69-1.46.9.51 7.19.74 18 .66 15.67-.11 16.81-.22 19.8-1.74a9.89 9.89 0 004.32-3.92c1.1-2.22 2.22-3.07 2.22-1.68s3.95 5.31 6.17 6.24c3 1.27 34.64 1.58 36.92.36 1.33-.72 1.81-.53 3.59 1.48 2 2.24 2.26 2.31 10 2.82 4.65.31 8.79 1 10 1.6 4 2.07 8.11 2.82 10.73 1.95a5.77 5.77 0 002.82-1.66c.25-.57.68-.41 1.3.52 4.46 6.63 10.38 10 17 9.69 3.8-.17 4-.09 4.51 1.81.71 2.67 6 10.95 9.18 14.3 1.5 1.6 3.21 2.7 4.19 2.7 1.47 0 1.65.35 1.65 3.18 0 4.63 3.24 17.58 5 19.94 1.12 1.5 1.5 3.1 1.5 6.2a65.17 65.17 0 001.08 9.81 65.11 65.11 0 01.99 10.17 25.36 25.36 0 005 14.14c1.37 1.92 1.38 2.17.29 4.78-1.3 3.11-1 9.38.83 16.16a37.62 37.62 0 011 8 35.11 35.11 0 001.39 8.51c1.46 4.7 1.48 3.24-.3 27.73-.35 4.86-.2 7.36.62 10 1 3.34 1 3.61-.4 5.53-1.25 1.69-1.59 3.65-2.11 12-.52 8.35-.16 16 .85 19.95a8.67 8.67 0 00.68 1.88 13.77 13.77 0 002.24 2.49c.51.49 1.07 1 1.62 1.43l3.13 2.56h10.73c12.93 0 21-1.56 25.21-4.85a9.9 9.9 0 001.53-1.5 3.39 3.39 0 00.58-1.36 22.26 22.26 0 00-1.06-11.45z" id="path858" fill="#a1a1a1"/><path class="cls-3" d="M126.58 339.77a10.36 10.36 0 011.27-2.13c.09 0 1.23.31 2.54.69 1.31.38 8 .74 14.89.81 14 .14 13.32-.14 13.32 5.58 0 1.85.35 7.41.79 12.36.9 10.21.16 14.06-3 15.61-1 .47-5.46 1.2-10 1.62-8.78.82-15.5.92-17.28.26-3.52-1.29-3.6-1.69-3.6-17.63-.03-12.08.19-15.47 1.07-17.17z" id="path860" fill="#d1d1d1"/><path class="cls-3" d="M158.47 409.82l-2.33 2-11.55-.06c-11.75-.07-16.19-.73-20.37-3-2-1.11-2.34-1.66-2.34-4.12a21.89 21.89 0 011.44-6.49 23.89 23.89 0 001.44-8.92c0-4.3.3-5.71 1.66-7.71 1.64-2.43 1.68-2.45 7.38-2.47 3.15 0 10.1-.43 15.44-.93 12.41-1.16 11.86-1.66 12.52 11.53.64 12.64-.16 17.52-3.29 20.17z" id="path862" fill="#d1d1d1"/><path class="cls-3" d="M162.2 314.24a52.38 52.38 0 00-1.43 9.89c0 4.67-1.7 9.61-3.65 10.66-1.56.83-20.85.8-24.43 0a7.3 7.3 0 01-5.77-7.12 62.63 62.63 0 011.74-9.86 88.92 88.92 0 002.08-13.31c.47-8.81.84-9.3 7.06-9.3 4.58 0 18 2.6 23.07 4.46 3.19 1.13 3.58 5.48 1.33 14.58z" id="path864" fill="#d1d1d1"/><path class="cls-3" d="M169 271.19a60 60 0 00-1 9.43c0 5.18-3.23 12.38-6.15 13.71a8.47 8.47 0 01-2 .74 13.74 13.74 0 00-2-.4c-1-.17-4.23-1-7.2-1.77a80.09 80.09 0 00-11.67-2c-3.45-.3-6.77-.95-7.38-1.46-1.34-1.11-1.5-8.92-.28-13.35a83.24 83.24 0 001.27-11.71c.66-12.15.25-11.82 13.38-11 11.09.71 23.26 3 24.21 4.44.72 1.11.29 5.76-1.18 13.37z" id="path866" fill="#d1d1d1"/><path class="cls-3" d="M172.83 251.78a3 3 0 01-2.26.84 115.23 115.23 0 01-14.49-2.72 49.31 49.31 0 00-9.36-.88c-9.39-.11-10.12-.42-9.88-4.14a35.73 35.73 0 012.24-8.24 48.81 48.81 0 002.56-8.8c.63-4.4 1.73-6.2 5-8.25 2.17-1.34 3.15-1.5 6.69-1.08 5.7.67 14.14 3.55 17.83 6.09a12.7 12.7 0 015.4 10.4c.04 3.08-2.77 15.58-3.73 16.78z" id="path868" fill="#d1d1d1"/><path class="cls-3" d="M187.7 220.8c-5 7.4-6.22 7.91-9.85 4.28-5.31-5.31-13.61-9-23.55-10.59-7.07-1.11-7.22-1.19-7.22-3.92 0-3.69.54-4.49 5.41-8 5.84-4.16 9.44-8.19 11.66-13 2.4-5.25 4.17-6.33 9.39-5.72 2.25.27 4.32.88 4.61 1.36.29.48 2.19 3.3 4.23 6.27 11.7 17.07 12.11 19.35 5.32 29.32z" id="path870" fill="#d1d1d1"/><path class="cls-3" d="M214.58 198.75c-2.12 4.74-4.75 7.46-9.06 9.36-3.62 1.6-5.87 1.74-7.45.47-1.14-.9-5-6.75-8.69-13.27-1.09-1.9-3.78-6.05-6-9.22-5.79-8.35-5.67-8.64 5.07-12.33 4.75-1.63 10.55-3.82 12.87-4.86 4.81-2.16 9.53-2.45 12.73-.8l2.12 1.1.18 7.72c.38 14.8.15 17.53-1.77 21.83z" id="path872" fill="#d1d1d1"/><path class="cls-3" d="M253 180c-2 12.65-2.66 14.94-4.42 15.88-.8.43-4.44 1-8.07 1.19a32.7 32.7 0 00-10.74 2.11c-4.35 1.8-8.08 2.2-8.86 1-.25-.41-.63-5.35-.84-11-.77-20.93-.46-22.19 5.71-23.51a67.24 67.24 0 0010.63-4c9-4.17 12.58-5.05 16.44-4 4.21 1.13 4.76 2.58 3.08 8.1A142.26 142.26 0 00253 180z" id="path874" fill="#d1d1d1"/><path class="cls-3" d="M291.68 192c-2.06 1.12-4.56 1.34-17.92 1.53-14.52.22-15.63.14-17.26-1.18-1.63-1.32-1.72-1.48-.82-6.35.5-2.71 1.39-8 2-11.68a42.8 42.8 0 012.43-9.36c1.52-2.91 5.35-7.3 6.38-7.3 2.41 0 13.38-2.38 16.52-3.58 4.81-1.85 7.41-1.84 9.78 0 2.75 2.17 3.43 5.91 3.51 19.29.05 13.73-.62 16.42-4.62 18.63z" id="path876" fill="#d1d1d1"/><path class="cls-3" d="M341.32 192.52c-1.32.93-4.1 1.12-16 1.09-18.47 0-21.18-.84-22.77-6.71-1-3.54-.93-24 0-28.18.8-3.41 3.64-6.12 6.43-6.12a33.29 33.29 0 017.15 1.76 59.4 59.4 0 008.59 2.23c7 1 8.39 1.6 11.14 5.21s3.25 5.11 5.58 18.16c1.87 10.31 1.86 11.18-.12 12.56z" id="path878" fill="#d1d1d1"/><path class="cls-3" d="M378.21 182.72a54.42 54.42 0 00-.4 10.55 15 15 0 01-.28 5.64c-.59 1.56-1.19 1.93-3.09 1.92a16.9 16.9 0 01-5.6-1.53c-2.12-1-5.66-1.72-10.26-2.1-8.52-.71-9.46-1-10.44-3-.7-1.47-3.81-17.48-4.83-24.9a19.18 19.18 0 00-1.49-5.18c-1.61-3.12-.4-5.46 3.34-6.47 3.91-1.05 7.47-.19 16.52 4a59.06 59.06 0 0010.25 3.82 13.25 13.25 0 014.43 1.51c2.01 1.66 2.79 8.28 1.85 15.74z" id="path880" fill="#d1d1d1"/><path class="cls-3" d="M471.42 339.77c.89 1.71 1.1 5.07 1.09 17.1 0 8.24-.25 15.33-.54 15.77a7.16 7.16 0 01-2.1 1.62c-2.48 1.3-20.52.5-27.16-1.21-4.31-1.1-5-4.91-3.81-21.37.31-4.35.73-8.94.92-10.2l.35-2.28 12.48-.08c6.87-.05 13.58-.4 14.92-.78 1.34-.38 2.5-.7 2.59-.7a11.14 11.14 0 011.26 2.13z" id="path882" fill="#d1d1d1"/><path class="cls-3" d="M397.48 209.43c-5.78-.12-11.64-4.81-14.21-11.38-1.38-3.52-1.49-5-1.26-16.46.26-12.46.29-12.61 2-13.57 3.26-1.8 7.75-1.2 15.78 2.11a111.28 111.28 0 0011.09 4c1.13.28 2.12.56 3 .85a15.05 15.05 0 012.15.89c1.73.85 2.5 1.81 2.5 3 0 .94-2.67 5.78-5.94 10.75-3.27 4.97-7.47 11.47-9.34 14.46-3.14 4.98-3.59 5.4-5.77 5.35z" id="path884" fill="#d1d1d1"/><path class="cls-3" d="M414.09 226.22c-2.47-2.94-7.22-11-7.87-13.4-1.17-4.21.66-8.28 9.56-21.3 4-5.85 5.2-7.12 7.11-7.5 6.29-1.26 8.36-.13 11.4 6.23 2.36 4.93 4.58 7.33 11.59 12.54 4.38 3.26 4.7 3.68 4.91 6.62.12 1.73 0 3.41-.36 3.72-.36.31-3.06.91-6.07 1.32-8.92 1.22-16.84 4.48-22.12 9.08-4.8 4.19-6.44 4.73-8.15 2.69z" id="path886" fill="#d1d1d1"/><path class="cls-3" d="M425.15 251.48c-1-1.87-3.75-14.33-3.75-16.84a12.58 12.58 0 014.93-9.6c4.17-2.89 11.21-5.45 17.38-6.32l5.66-.8 2.91 2.3a11.44 11.44 0 014.4 9.19 34.2 34.2 0 002.21 7.09 34.49 34.49 0 012.34 8.46c.16 3.61-.65 3.95-9.71 4a69.49 69.49 0 00-12.24 1.46c-10.07 2.38-13.28 2.58-14.13 1.06z" id="path888" fill="#d1d1d1"/><path class="cls-3" d="M431.94 288.33a17.48 17.48 0 01-1.9-8.23 61.8 61.8 0 00-1-9.52c-1.46-7.53-1.87-11.67-1.25-12.68.92-1.49 13.68-3.86 24.23-4.5 13.17-.79 12.79-1.11 13.43 11a111.12 111.12 0 001.28 11.73c.11.64.22 1.22.33 1.72 0 .21.09.39.13.57 2.26 9.23.33 12.37-7.61 12.41A73.33 73.33 0 00447 293c-4.73 1.19-8.82 2.15-9.09 2.15-1.41.01-4.3-3.3-5.97-6.82z" id="path890" fill="#d1d1d1"/><path class="cls-3" d="M437.29 299.71c3-1.43 15.11-4 21.4-4.48 7.87-.62 8.08-.39 8.84 9.82a99.16 99.16 0 002.06 13.74 50.11 50.11 0 011.49 8.78c0 3.61-2.31 6.34-6.12 7.21-4.59 1.07-22.8.84-24.29-.29-1.86-1.41-3.43-6.55-3.43-11.21a33.39 33.39 0 00-1-7.64c-2.47-8.55-2.08-14.4 1.05-15.93z" id="path892" fill="#d1d1d1"/><path class="cls-3" d="M472.16 409.55c-3.45 1.81-4.14 1.9-16.92 2.1l-13.32.21-2.31-2c-3.08-2.66-4-8.1-3.33-20.61.65-12.81.15-12.36 12.5-11.18 5.33.52 12.32.87 15.51.78l5.81-.16 1.57 2.8c1.21 2.16 1.57 4 1.57 8a20.8 20.8 0 001.49 8.62 14.68 14.68 0 011.27 6.49c-.22 2.87-.47 3.18-3.84 4.95z" id="path894" fill="#d1d1d1"/></g><g id="Top_Mantle" data-name="Top Mantle" filter="url(#filter986)"><path class="cls-8" d="M582.92 57.23c-1-1.58-12.93-9.68-41.87-28.35-22.28-14.37-41.56-26.75-42.84-27.5C495.93 0 491.39 0 297.07 0 144.85 0 97.89.2 96.65.86c-.89.47-20.2 12.84-42.91 27.49-29.66 19.13-41.69 27.27-42.66 28.87-1.14 1.87-1.36 3.67-1.35 11.23 0 9.07.24 10.32 2.06 10.9.55.18 20.31.21 43.92.07 173.45-1 258.11-1.21 328.77-.81 184.52 1 198.39 1 199.11-.11.36-.58.67-5.1.67-10 .01-7.6-.21-9.41-1.34-11.27z" id="path897" fill="#bb998f"/><path class="cls-9" d="M56.52 31.71c21.18-13.6 39.29-25.32 40.23-26 1.65-1.25 9.72-1.3 200-1.3H495l38.72 24.94C555 43 573.48 55 574.8 55.88l2.41 1.63H297c-154.14 0-280-.24-279.62-.51.38-.27 17.95-11.68 39.14-25.29z" id="path899" fill="#e9ddaf"/><path class="cls-9" d="M579.6 75.05l-52.92-.13c-29.11-.07-91-.37-137.52-.65-46.52-.28-133.85-.25-194 .07l-145 .76c-25.11.13-35.64 0-35.85-.6a41.12 41.12 0 01-.13-6.5l.22-5.69L155.52 62c77.61-.2 204.78-.2 282.6 0l141.48.36z" id="path901" fill="#e9ddaf"/></g></g></g><g id="text935" style="line-height:1.25;-inkscape-font-specification:'Fugaz One, Normal';font-variant-ligatures:normal;font-variant-caps:normal;font-variant-numeric:normal;font-feature-settings:normal;text-align:start" aria-label="Stay At Home" font-style="normal" font-variant="normal" font-weight="400" font-stretch="normal" font-size="73.333" font-family="Fugaz One" letter-spacing="0" word-spacing="0" writing-mode="lr-tb" text-anchor="start" fill="#fff" fill-opacity="1" stroke="#000" stroke-width="2.513" stroke-miterlimit="4" stroke-dasharray="none" stroke-opacity="1" filter="url(#filter950)"><path id="path904" style="-inkscape-font-specification:'Fugaz One, Normal';font-variant-ligatures:normal;font-variant-caps:normal;font-variant-numeric:normal;font-feature-settings:normal;text-align:start" d="M122.26 45.745q0 5.06 7.26 5.06 7.333 0 7.333-4.546 0-2.42-2.493-3.96-2.494-1.54-6.087-2.567-3.52-1.027-7.113-2.347-3.52-1.393-6.014-4.253-2.493-2.933-2.493-7.26 0-18.407 23.687-18.407 8.653 0 13.053 3.3 4.473 3.227 4.473 9.02 0 2.127-.586 4.107-.514 1.907-1.1 2.713l-.587.88h-12.98q1.613-1.686 1.613-4.253 0-4.767-6.233-4.767-7.847 0-7.847 4.987 0 2.493 2.494 3.96 2.493 1.467 6.013 2.347 3.593.806 7.187 2.053 3.593 1.247 6.086 4.18 2.494 2.86 2.494 7.48 0 9.313-5.574 13.86-5.573 4.473-17.16 4.473-11.586 0-15.84-4.106-3.153-3.08-3.153-8.507 0-2.053.44-4.473l.22-1.174h13.2l-.147.88q-.146.734-.146 1.32z"/><path id="path906" style="-inkscape-font-specification:'Fugaz One, Normal';font-variant-ligatures:normal;font-variant-caps:normal;font-variant-numeric:normal;font-feature-settings:normal;text-align:start" d="M171.718 61.805q-8.506 0-12.246-3.813-2.787-2.787-2.787-7.48 0-1.54.293-3.3l4.987-28.38 13.42-5.573-2.127 12.246h20.24l-1.833 10.34h-20.24l-1.467 8.287q-.293 1.393-.293 2.493 0 4.62 4.4 4.62 2.347 0 3.887-1.98 1.613-1.98 2.2-5.28h12.173q-3.08 17.82-20.607 17.82z"/><path id="path908" style="-inkscape-font-specification:'Fugaz One, Normal';font-variant-ligatures:normal;font-variant-caps:normal;font-variant-numeric:normal;font-feature-settings:normal;text-align:start" d="M230.666 49.485q0 1.907 1.906 1.907 1.98 0 3.3-.733l-.366 8.286q-3.52 2.86-7.92 2.86-8.067 0-8.947-5.866-3.667 5.866-10.78 5.866-12.027 0-12.027-10.34 0-1.76.367-3.886l1.54-8.58q1.173-6.6 5.353-10.487 4.254-3.96 11-3.96 6.82 0 9.24 3.153l.367-2.2h11.147l-4.107 23.1q-.073.44-.073.88zm-21.707-3.52q-.147.66-.147 1.834 0 1.173 1.1 2.346 1.1 1.1 3.667 1.1 2.64 0 4.547-2.053l2.2-12.32q-.807-1.833-3.814-1.833-5.646 0-6.6 5.426z"/><path id="path910" style="-inkscape-font-specification:'Fugaz One, Normal';font-variant-ligatures:normal;font-variant-caps:normal;font-variant-numeric:normal;font-feature-settings:normal;text-align:start" d="M254.394 45.012q-.22 1.32-.22 2.64 0 3.52 3.96 3.52 3.226 0 5.353-2.273l4.107-23.394h12.466l-6.453 36.447q-1.613 9.313-7.407 14.74-5.72 5.427-13.126 5.427-7.407 0-10.707-2.714-3.227-2.713-3.227-7.113 0-6.233 7.7-11.073-4.18-1.027-5.28-4.18-.66-1.76-.66-3.96t.367-4.474l4.107-23.1h12.466zm.366 26.62q4.767 0 6.234-8.653l.733-4.254q-10.193 4.767-10.193 9.607 0 1.467.806 2.347.88.953 2.42.953z"/><path id="path912" style="-inkscape-font-specification:'Fugaz One, Normal';font-variant-ligatures:normal;font-variant-caps:normal;font-variant-numeric:normal;font-feature-settings:normal;text-align:start" d="M325.714 60.779l.44-11.514h-12.247l-3.593 11.514h-14.007l18.847-52.8h24.2l.293 52.8zm-3.007-39.967l-5.793 18.627h9.606l.807-18.627z"/><path id="path914" style="-inkscape-font-specification:'Fugaz One, Normal';font-variant-ligatures:normal;font-variant-caps:normal;font-variant-numeric:normal;font-feature-settings:normal;text-align:start" d="M362.5 61.805q-8.507 0-12.247-3.813-2.787-2.787-2.787-7.48 0-1.54.294-3.3l4.986-28.38 13.42-5.573-2.126 12.246h20.24l-1.834 10.34h-20.24l-1.466 8.287q-.294 1.393-.294 2.493 0 4.62 4.4 4.62 2.347 0 3.887-1.98 1.613-1.98 2.2-5.28h12.173q-3.08 17.82-20.606 17.82z"/><path id="path916" style="-inkscape-font-specification:'Fugaz One, Normal';font-variant-ligatures:normal;font-variant-caps:normal;font-variant-numeric:normal;font-feature-settings:normal;text-align:start" d="M454.464 7.979l-9.24 52.8h-13.273l3.373-19.067h-14.3l-3.3 19.067h-13.273l9.313-52.8h13.2l-3.96 22.293h14.3l3.96-22.293z"/><path id="path918" style="-inkscape-font-specification:'Fugaz One, Normal';font-variant-ligatures:normal;font-variant-caps:normal;font-variant-numeric:normal;font-feature-settings:normal;text-align:start" d="M477.73 24.479q7.92 0 11.954 3.446 3.153 2.714 3.153 7.554 0 1.613-.367 3.52l-1.54 8.58q-1.393 7.773-6.526 11-5.06 3.226-13.567 3.226-8.507 0-12.467-3.226-2.933-2.42-2.933-7.26 0-1.687.367-3.74l1.54-8.58q2.566-14.52 20.386-14.52zm1.98 15.986q.147-.733.147-1.833 0-1.173-.953-2.567-.954-1.393-3.374-1.393-2.346 0-3.96 1.613-1.613 1.54-2.053 4.18l-.953 5.5q-.147.734-.147 1.907 0 1.1.953 2.42.954 1.32 3.3 1.32 2.42 0 4.034-1.613 1.613-1.687 2.053-4.034z"/><path id="path920" style="-inkscape-font-specification:'Fugaz One, Normal';font-variant-ligatures:normal;font-variant-caps:normal;font-variant-numeric:normal;font-feature-settings:normal;text-align:start" d="M557.917 51.392q1.687 0 3.007-.733l-.367 8.286q-3.447 2.86-7.847 2.86-9.973 0-9.973-8.36 0-1.466.293-3.153l1.54-9.02q.22-1.32.22-2.64 0-3.52-3.886-3.52-3.814 0-6.014 3.007l-3.96 22.66h-12.466l3.446-19.507q.22-1.32.22-2.64 0-3.52-3.96-3.52-3.153 0-5.426 2.42l-4.107 23.247H496.17l6.234-35.274h11.586l-.806 4.4q4.4-5.426 11.146-5.426 9.534 0 10.854 6.306 4.4-6.306 11.733-6.306 7.407 0 9.607 3.3 1.466 2.273 1.466 4.986 0 2.714-.366 4.914l-1.834 10.926q-.073.44-.073.807 0 1.98 2.2 1.98z"/><path id="path922" style="-inkscape-font-specification:'Fugaz One, Normal';font-variant-ligatures:normal;font-variant-caps:normal;font-variant-numeric:normal;font-feature-settings:normal;text-align:start" d="M580.044 61.805q-15.253 0-15.253-10.56 0-1.466.293-3.153l1.54-9.093q1.247-7.04 6.453-10.78 5.28-3.814 13.934-3.814 14.74 0 14.74 11.147 0 1.613-.294 3.52l-.88 5.207h-22.366l-.294 1.686q-.146.88-.146 1.614 0 4.033 4.766 4.033 1.76 0 3.007-1.1t1.467-2.567l12.173.147q-2.42 13.713-19.14 13.713zm8.8-22q.293-1.246.293-2.273 0-1.1-.953-2.2t-3.08-1.1q-2.053 0-3.813 1.393-1.687 1.394-2.347 4.18z"/></g></svg>
