<svg xmlns="http://www.w3.org/2000/svg" viewBox="0 0 64.51 66.55"><defs><style>.cls-1{fill:#fcf9ce;}.cls-2{fill:#febf3f;}.cls-2,.cls-4{stroke:#f68a1f;}.cls-2,.cls-3,.cls-4,.cls-5,.cls-6,.cls-7,.cls-9{stroke-miterlimit:10;}.cls-2,.cls-4,.cls-9{stroke-width:3px;}.cls-3,.cls-4,.cls-6,.cls-9{fill:none;}.cls-3{stroke:#f79439;}.cls-3,.cls-5{stroke-width:2px;}.cls-5{fill:#90c584;}.cls-5,.cls-6{stroke:#5c9140;}.cls-7{fill:#754c29;stroke:#603913;}.cls-8{fill:#fff;}.cls-9{stroke:#603a17;}</style></defs><g id="Layer_2" data-name="Layer 2"><g id="Layer_4" data-name="Layer 4"><path class="cls-1" d="M58.65,50l.06,0a24.59,24.59,0,0,1-1.39,2.15v0A30.89,30.89,0,0,1,39.45,64.2h-.07a30.77,30.77,0,0,1-22.09-3l.11,0L30.12,57.7l27.63-7.48Z"/><path class="cls-1" d="M57.45,37.58,63,36.09c0,.12,0,.24,0,.35a30.79,30.79,0,0,1-1,5.82h0l-2.5.68-1.14.31-32,8.65L10.69,56.13l-.07,0a30.09,30.09,0,0,1-4-4.83h.05l17.36-4.7Z"/><path class="cls-2" d="M63,36.09c0,.12,0,.24,0,.35a30.79,30.79,0,0,1-1,5.82A30.12,30.12,0,0,1,58.71,50a24.59,24.59,0,0,1-1.39,2.15v0A30.89,30.89,0,0,1,39.45,64.2h-.07a30.77,30.77,0,0,1-22.09-3,31.2,31.2,0,0,1-6.67-5,30.09,30.09,0,0,1-4-4.83,31.41,31.41,0,0,1-2.72-5.1,29.55,29.55,0,0,1-1.86-6.13V40a0,0,0,0,1,0,0s0,0,0,0,0,0,0-.07c0-.22-.08-.44-.12-.66,0-.06,0-.13,0-.19s0,0,0,0,0-.13,0-.19l0-.31a1.29,1.29,0,0,1,0-.19c0-.3-.06-.6-.1-.9v0s0,0,0-.06a.22.22,0,0,0,0-.08v-.13c0-.2,0-.4-.06-.6a35.72,35.72,0,0,1,0-4.39c0-.28.05-.55.07-.82a3.49,3.49,0,0,0,.05-.44,1.23,1.23,0,0,0,0-.19.07.07,0,0,0,0-.06h0a.49.49,0,0,1,0-.12.81.81,0,0,0,0-.16c0-.21.07-.43.11-.65s.07-.45.1-.67a1.24,1.24,0,0,0,0-.16,1,1,0,0,1,0-.17c0-.11,0-.22.08-.33s.07-.36.1-.54.07-.36.12-.54A30.92,30.92,0,0,1,13.82,9.68h0a29.72,29.72,0,0,1,4-2.5c.81-.44,1.65-.84,2.52-1.21.53-.22,1.05-.42,1.57-.61A30.36,30.36,0,0,1,40,4.54h0a30.84,30.84,0,0,1,6.9,2.74,30.19,30.19,0,0,1,5.44,3.77h0A29.49,29.49,0,0,1,56.94,16a30.74,30.74,0,0,1,3.66,6.41,31.5,31.5,0,0,1,1.66,5.15s0,0,0,0h0s0,0,0,0h0a1.87,1.87,0,0,1,0,.25,3,3,0,0,1,.11.52s0,0,0,.05,0,.05,0,.07a.17.17,0,0,1,0,.07v0a0,0,0,0,1,0,0,.13.13,0,0,1,0,.06,2.14,2.14,0,0,1,.07.43c0,.21.08.42.12.63.05.37.1.73.13,1.09s.08.82.12,1.23A28.67,28.67,0,0,1,63,36.09Z"/><path class="cls-3" d="M57.31,52.13a2.29,2.29,0,0,1-.07.28"/><path class="cls-3" d="M57.32,52.11l0-.12h0c.14-.49.28-1.08.41-1.76a28.72,28.72,0,0,0,.56-5.39c0-.51,0-1,0-1.57a28.24,28.24,0,0,0-.83-5.68c-.11-.43-.23-.87-.37-1.31A27.25,27.25,0,0,0,55,31.15a29.57,29.57,0,0,0-8.84-9.95l-.2-.14a27.7,27.7,0,0,0-12.08-4.85,16.47,16.47,0,0,0-2-.16,17.46,17.46,0,0,0-4.47.6c-.41.12-.79.25-1.12.38s-.57.23-.81.34l-.35.16"/><path class="cls-3" d="M25.06,18.17a9.06,9.06,0,0,0-1.85-1C16.85,14.79,9.7,20.4,8.91,21,.59,27.76,2,40.17,2.16,41.19"/><path class="cls-3" d="M40.88,63.85a4.63,4.63,0,0,1-1.42.35"/><path class="cls-3" d="M39.38,64.21H39a4.54,4.54,0,0,1-2.16-.62,4.78,4.78,0,0,1-.63-.44,30.15,30.15,0,0,1-6.06-5.46c-.25-.29-.47-.56-.68-.82-.35-.45-.68-.89-1-1.33a30.92,30.92,0,0,1-2.18-3.64q-.42-.79-.75-1.56c-.63-1.4-1.09-2.67-1.47-3.74,0-.14-.09-.28-.14-.42a44.63,44.63,0,0,1-1.29-4.54,45.44,45.44,0,0,1-.95-6.45c-.1-1.17-.16-2.48-.17-3.91a37.16,37.16,0,0,1,1.14-9.79,9,9,0,0,1,1-2.25,12.87,12.87,0,0,1,1-1.27l0,0,0,0,.26-.28"/><path class="cls-3" d="M25.07,18.17a.61.61,0,0,1,.05-.12c.07-.21.16-.43.27-.68a10.64,10.64,0,0,1,.57-1.1l.07-.12a11.87,11.87,0,0,1,.84-1.2,12.81,12.81,0,0,1,1-1.1,14.56,14.56,0,0,1,3.71-2.65c.17-.09.79-.41,1.73-.8a22.85,22.85,0,0,1,7.13-1.78,16.06,16.06,0,0,1,3.82.24,22.4,22.4,0,0,1,8.64,3.73h0A27.54,27.54,0,0,1,57,16l.26.26"/><path class="cls-3" d="M57.39,16.42l-.17-.18"/><path class="cls-3" d="M25.06,18.17a9.18,9.18,0,0,0-.47-2.73,10,10,0,0,0-4.85-5.53A6.44,6.44,0,0,0,16.63,9a6.14,6.14,0,0,0-2.8.68"/><path class="cls-4" d="M63,36.09c0,.12,0,.24,0,.35A31.06,31.06,0,0,1,58.65,50c-.4.68-.84,1.35-1.3,2h0A30.72,30.72,0,0,1,44.18,62.55,31.74,31.74,0,0,1,39,64.22h0A30.77,30.77,0,0,1,17.4,61.13,30.85,30.85,0,0,1,6.69,51.31a30.85,30.85,0,0,1-2.77-5.18A30.38,30.38,0,0,1,2.05,40v0s0,0,0,0c-.07-.35-.13-.69-.19-1,0-.18-.05-.36-.09-.54s-.08-.65-.12-1v0s0,0,0-.06,0-.14,0-.21,0-.4-.06-.6a35.72,35.72,0,0,1,0-4.39c0-.28.05-.55.07-.82a3.49,3.49,0,0,0,.05-.44,1.87,1.87,0,0,1,0-.25h0s0-.08,0-.13c0-.27.07-.54.11-.8s.07-.45.1-.67a1.24,1.24,0,0,0,0-.16,1,1,0,0,1,0-.17c0-.11,0-.22.08-.33s.07-.36.1-.54c0,0,0,0,0,0,0-.17.07-.34.12-.51s.06-.25.08-.37c.09-.3.16-.59.23-.88s.18-.59.26-.88l.29-.86c.09-.29.2-.57.31-.85s.21-.57.33-.85c.23-.56.48-1.11.74-1.66.13-.27.26-.54.4-.81l.22-.4.21-.4c.16-.27.3-.53.46-.79s.32-.52.47-.78l.5-.76.37-.51c.23-.33.46-.65.7-1s.37-.48.57-.71.4-.47.6-.7a2.09,2.09,0,0,1,.24-.28,2.27,2.27,0,0,1,.26-.28l.21-.24.08-.08,0,0a6,6,0,0,1,.43-.45L11,12c.23-.22.45-.43.68-.63l.58-.52c.19-.17.4-.33.6-.49s.18-.15.27-.23.28-.21.42-.32c.38-.29.76-.58,1.17-.85a.83.83,0,0,1,.15-.11,0,0,0,0,0,0,0l.05,0L15,8.77l.19-.15a.91.91,0,0,0,.13-.08l.25-.16.1-.06h0s.06,0,.08-.06h.05L16,8.08l.63-.37.2-.12.92-.51h0c.82-.44,1.66-.84,2.54-1.21.5-.21,1-.41,1.53-.59A30,30,0,0,1,27,3.9,30.87,30.87,0,0,1,47,7.23h0a30.43,30.43,0,0,1,10.18,9h0a30.7,30.7,0,0,1,3.39,6.05c.35.87.69,1.74,1,2.63.08.27.17.55.25.83s.14.52.2.78.17.66.24,1c0,0,0,0,0,0h0s0,0,0,0h0a1.87,1.87,0,0,1,0,.25,3,3,0,0,1,.11.52s0,0,0,.05,0,.05,0,.07,0,.05,0,.07v0a0,0,0,0,1,0,0,.13.13,0,0,1,0,.06,2.14,2.14,0,0,1,.07.43c0,.21.08.42.12.63.05.37.1.73.13,1.09s.08.82.12,1.23A28.67,28.67,0,0,1,63,36.09Z"/><path class="cls-3" d="M32.31,18.39a5.52,5.52,0,0,0,1.84-3.6"/><path class="cls-5" d="M26.29,16.94l-.1.09-1.05,1h-.08l-.26,0-.17,0-.92-.13a5.27,5.27,0,0,0-.19-.51,26.47,26.47,0,0,0-2.72-5.45c-.6-.9-1.15-1.63-1.62-2.26a6.18,6.18,0,0,1-1.37-2.46.29.29,0,0,1,0-.09h0a1.65,1.65,0,0,1,0-.73A2.89,2.89,0,0,1,20.51,4.1c.49.07.88.37,1.35,1.17a.2.2,0,0,1,0,.08,32.92,32.92,0,0,1,1.83,4.28c.64,1.69,1.42,3.9,2.29,6.52C26.12,16.41,26.19,16.67,26.29,16.94Z"/><path class="cls-5" d="M55.43,4.11A37.58,37.58,0,0,0,47,7.23h0l-.07,0a29.72,29.72,0,0,0-2.7,1.58c-.57.37-1.09.73-1.55,1.08-2.87,2.12-5.12,4.55-8.67,5.58a10.23,10.23,0,0,1-1.77.38,7.39,7.39,0,0,1-5.17-.8L26.87,15a6.82,6.82,0,0,1-2.72-6A7,7,0,0,1,25.5,5.52,9.15,9.15,0,0,1,26.88,4L27,3.9a12.31,12.31,0,0,1,4.69-2.26C39.58-.63,54.58,3.85,55.43,4.11Z"/><path class="cls-6" d="M25.08,12.62A18.63,18.63,0,0,1,27.7,9.69c6.54-5.93,15.51-5.46,18.62-5.15"/><path class="cls-6" d="M28.14,9.38a7.58,7.58,0,0,1,3.52.27,7.37,7.37,0,0,1,2.14,1.11"/><path class="cls-6" d="M31.16,7.23a4.61,4.61,0,0,1,1.08-1.66,4.28,4.28,0,0,1,1.11-.79"/><ellipse class="cls-7" cx="13.85" cy="40.02" rx="3.55" ry="3.53"/><ellipse class="cls-8" cx="12.69" cy="38.71" rx="0.99" ry="1.06"/><path class="cls-3" d="M38.43,63a5.77,5.77,0,0,1-2.06.69,6,6,0,0,1-1.77,0"/><path class="cls-3" d="M25.5,21.65a21.31,21.31,0,0,1-2.88-.15c-.8-.1-1.54-.23-2.2-.38"/><path class="cls-3" d="M44.1,22.9A6.1,6.1,0,0,0,46.73,19"/><path class="cls-3" d="M18.24,18.61a6,6,0,0,1,0-1.9,5.59,5.59,0,0,1,.48-1.51"/><path class="cls-3" d="M9,18.75A14.91,14.91,0,0,0,9,21a14.58,14.58,0,0,0,.51,2.83"/><path class="cls-3" d="M2.8,28c0,.93,0,1.95.1,3s.24,2.19.41,3.14"/><path class="cls-3" d="M14.6,11.44c0-1.57.69-2.83,1.55-2.83"/><ellipse class="cls-7" cx="33.62" cy="38.11" rx="3.55" ry="3.53"/><ellipse class="cls-8" cx="32.46" cy="36.8" rx="0.99" ry="1.06"/><path class="cls-3" d="M24.56,35a15.76,15.76,0,0,1-2.93.22A16,16,0,0,1,19.15,35"/><path class="cls-3" d="M31.39,55a15.5,15.5,0,0,1-3,.56,15.26,15.26,0,0,1-2.2.06"/><path class="cls-9" d="M21.17,47.48a4,4,0,0,0,4.27,2.88,4.14,4.14,0,0,0,3.47-4.25"/></g></g></svg>