<svg xmlns="http://www.w3.org/2000/svg" viewBox="0 0 834.41 128.89"><defs><style>.cls-1{fill:#bd9975;}.cls-2{fill:#916f6f;}.cls-3{fill:#dbca4d;}.cls-4{fill:#ffffcb;}.cls-5{fill:#a14f14;}.cls-6{fill:#f58a01;}.cls-7{fill:#335810;}.cls-8{fill:#649239;}</style></defs><g id="Layer_2" data-name="Layer 2"><g id="_2nd_Shelf" data-name="2nd Shelf"><rect class="cls-1" x="340.65" y="57.62" width="137.23" height="69.06"/><path class="cls-1" d="M829.49,113.48,815.1,126.67,714.7,126v.64H477.88V57.62H714.7v.1l11.81-.1,3.94,3.08,19.19.52Z"/><path class="cls-1" d="M120.46,57.62H340.65v69.06H120.46V126l-103,.64L3,113.49,82.89,61.23l19.19-.52L106,57.63l14.44.12Z"/><path id="Left_Shelf_Outline" data-name="Left Shelf Outline" class="cls-2" d="M100,65.23a24.39,24.39,0,0,0,4.21-2.52c1.12-1,24-1.12,236.48-1.13V55.42c-75,0-142.39.21-174.09.46l-62.28.49-2,1.7c-2.42,2-1.63,1.91-12.36,1.75l-8.64-.14-40,25.92C19.3,99.86.92,112.12.43,112.86c-1.25,1.87-.12,3.28,8.2,10.25l6.89,5.78H340.65v-5.54l-323.91.14-3.53-2.86a21.28,21.28,0,0,1-3.37-3c.64-.65,30.87-1,138-1.47,58.89-.28,125.38-.44,192.81-.51V111.2c-31.91,0-62.33.15-90.39.3-42.32.23-85.72.48-121.54.71s-64.08.44-76.1.56c-24.06.25-43.74.26-43.74,0,0-.47.51-.81,44.12-29l29.36-19,5.91.21,5.91.21L67.83,83.32c-14.49,10-27.36,18.73-28.6,19.44-6,3.44-12.55,3.32,148.39,2.68,43.23-.17,99-.29,153-.33v-3c-26.34,0-50.07.1-69,.19-65.54.32-143.45.6-173.12.63l-54,.06,2.85-2C59.88,92,97.66,66.33,100,65.23Z"/><path id="Right_Shelf_Outline" data-name="Right Shelf Outline" class="cls-2" d="M833,116.54a81,81,0,0,1-8.28,7.29l-6.41,5.06H477.88V123.3l339.81-.15,3.5-2.67a20.51,20.51,0,0,0,3.33-2.83c-1.14-1.14-163.41-1.93-346.64-2v-4.43c104.83.14,214.56.68,304,1.57,38.42.38,43.78.3,42.84-.61-.6-.58-17.21-11.48-36.93-24.22L751.94,64.75l-11.82.42,26.57,18.36c14.61,10.09,27.5,18.82,28.63,19.39s1.95,1.38,1.81,1.8c-.28.86-75.55,1-297.13.44l-22.12,0v-3c35,.05,69.5.13,99.88.26,88.5.37,172.32.57,186.25.46l25.33-.21-18.78-13c-30.95-21.36-36.15-24.84-37-24.84a7.93,7.93,0,0,1-2.87-1.62l-2.06-1.62H477.88V55.4c81.5.05,156.27.21,189.78.49l62.17.5L732,58.21c2.09,1.77,2.45,1.82,11.62,1.67l9.46-.15,40,25.9c22,14.24,40.38,26.52,40.89,27.29C834.73,114.12,834.6,114.61,833,116.54Z"/><g id="Shelf_Middle" data-name="Shelf Middle"><polygon class="cls-2" points="477.88 123.3 477.88 128.89 340.65 128.89 340.65 123.35 419.08 123.32 477.88 123.3"/><path class="cls-2" d="M477.88,111.18v4.43c-45.17,0-91.37,0-137.23,0V111.2C384.59,111.14,430.84,111.13,477.88,111.18Z"/><path class="cls-2" d="M477.88,102.1v3c-39.88,0-88,0-137.23,0v-3C383,102.05,430.72,102.05,477.88,102.1Z"/><path class="cls-2" d="M477.88,55.43V61.6H340.65V55.45C385.47,55.42,432.51,55.42,477.88,55.43Z"/></g><g id="Middle_Box" data-name="Middle Box"><path class="cls-3" d="M727.75,60.24c-.24-.63-5.86-4.4-12.49-8.37l-12-7.21-37,.48c-24.15.32-37.35.75-38,1.25s-.84,1.92-.51,5.12c.24,2.4.62,7.52.82,11.37l.38,7,10,8.36c5.52,4.6,10.92,8.63,12,9s17.25.62,35.91.66c30.81,0,34,0,34.92-1.14.7-.85,1-3.47,1-9.18v-8l2.15-.25a4.35,4.35,0,0,0,2.69-1.08C728.29,67.22,728.36,61.83,727.75,60.24Z"/><path class="cls-4" d="M640.65,56.66c5.62,3.75,8.35,6,8.35,6.89,0,.73-.09,1.3-.18,1.27-.74-.22-14.88-10.38-16-11.47C629.53,50.07,632.89,51.49,640.65,56.66Z"/><path class="cls-4" d="M649.51,80.72c-.35,0-11.55-9.36-14-11.68-2.15-2.06-2.27-2.43-1.88-5.88a24.51,24.51,0,0,1,.63-3.93c.11-.14,3.27,1.89,7,4.5s7.17,4.75,7.61,4.75.8,2.12.8,6.12A46.2,46.2,0,0,1,649.51,80.72Z"/><path class="cls-4" d="M644.42,55.25c-6.24-4-6.9-4.62-5.4-5,.93-.25,15.63-.46,32.66-.46h31l7.92,4.75c4.35,2.61,8.05,4.88,8.22,5,0,.16-15,.28-33.48.28H651.52Z"/><path class="cls-4" d="M718.12,83.45l-32.46-.1c-17.85-.06-32.59-.25-32.76-.41a48.7,48.7,0,0,1-.3-7.38V68.48h65.52Z"/><path class="cls-4" d="M723.1,64.42c-.57.48-70.27,1.17-70.75.69a2.57,2.57,0,0,1-.47-1.55c0-1,4.23-1,35.4-.6,19.47.27,35.56.64,35.76.84A.43.43,0,0,1,723.1,64.42Z"/></g><g id="Middle_Plant_Pot" data-name="Middle Plant Pot"><g id="Middle_Shelf_Pot" data-name="Middle Shelf Pot"><path class="cls-5" d="M703.48,37c-2.67-8.53-6-13.24-10.22-14.64-1.72-.57-2.78-.56-3.88,0-2.12,1.13-1.51,2.21,2.4,4.22,1.85.95,3.36,2,3.36,2.33s-1.67,1.09-3.73,1.7c-5.33,1.58-26.18,1.55-31.58-.05l-3.89-1.16,2-1.72c1.76-1.52,3.25-2.06,4.94-1.82.73.1,1.47-2.65,1-3.5-1.25-2-8.34.53-11.05,4-2.37,3-5.5,11.89-5.44,15.47.12,8.36,8.45,17,18.09,18.73,5.39,1,20.9.33,24.71-1,6.22-2.22,12-8.6,13.77-15.07C704.66,41.66,704.6,40.6,703.48,37Z"/><path class="cls-6" d="M699.52,44.21c-1.22,3.68-6.65,9.49-10.23,10.92-5.68,2.27-23.77,1.88-28.6-.62-3.05-1.58-7.64-7.09-8.62-10.35-.71-2.39-.63-3.43.56-6.89a46.08,46.08,0,0,1,1.8-4.71c.21-.35,2.36,0,4.78.73,3.57,1.11,6.61,1.36,16.38,1.36,11,0,15.8-.59,20.3-2.45.84-.35,1.49.67,2.8,4.46C700.18,41,700.28,41.9,699.52,44.21Z"/><path class="cls-5" d="M678.44,50.35c-1.05,1-3.36,1.09-5.08.09-2.44-1.43-1.42-2.55,2.34-2.55S680.15,48.64,678.44,50.35Z"/><path class="cls-5" d="M668.14,43.28c-.35-.56-1.5-.7-3.33-.41-3,.47-3.83-.69-1.76-2.41,1.62-1.35,6.47-.68,6.78.93S668.88,44.49,668.14,43.28Z"/><path class="cls-5" d="M689.38,42.39c0,.72-.65.85-2.52.5a4.59,4.59,0,0,0-3.59.41c-.86.71-1.16.65-1.52-.29-.67-1.75,1-3.31,3.62-3.31C687.78,39.7,689.38,40.77,689.38,42.39Z"/></g><g id="Plant"><path class="cls-7" d="M699.76,6.42c-.9-.89-1.73-.69-6.23,1.47l-5.19,2.49V7.31c0-5.22-2.54-6.36-5-2.22l-1.52,2.58-2.21-1.86c-2.5-2.1-4.38-2.36-5.7-.78-.76.93-1.19.61-3-2.19C669.76,1,668.55-.24,668.09,0a15,15,0,0,0-2.41,4l-1.62,3.5-3-2.15c-3.54-2.57-4.12-2.64-5.2-.61-1.25,2.33-.45,8.38,1.76,13.21s7.5,10.77,10.9,12.29c2.69,1.22,2.51,1.21,4.74,0,1.56-.81,2.07-.81,3.2,0,1.84,1.34,4.23,1.22,7.4-.4C690.34,26.64,702.29,9,699.76,6.42Z"/><path class="cls-8" d="M668.14,5.05c1-.62,3.07,3.77,2.54,5.42s-1.14,1.76-2.36.54C667.29,10,667.16,5.66,668.14,5.05Z"/><path class="cls-8" d="M673.34,27.24c-2,1.79-3.2,1.48-6.83-1.72-3.83-3.38-8.41-11.84-8.41-15.54,0-1.34.18-2.43.41-2.43,1.17,0,7.21,4.14,10,6.88C674.39,20.12,676.12,24.72,673.34,27.24Z"/><path class="cls-8" d="M673.76,16.52c-1.55-2.07-1.59-3.38-.15-6.15,1.57-3,2.49-2,2.49,2.94S675.54,18.91,673.76,16.52Z"/><path class="cls-8" d="M678.86,9c.34,0,1.21,1.12,1.95,2.49,1.3,2.42,1.3,2.52,0,4-2.06,2.28-2.55,1.8-2.55-2.49C678.26,10.77,678.53,9,678.86,9Z"/><path class="cls-8" d="M694.73,13.52c-2.36,4.7-6.91,10.43-10.15,12.78s-6.13,2.76-6.81,1c-.84-2.21,1.18-6.65,4.19-9.23s14.3-8.86,14.3-8A22.48,22.48,0,0,1,694.73,13.52Z"/><path class="cls-8" d="M683.7,11.45c-.32-1.29-.17-2.16.45-2.55s1-.05,1.18,1.28C685.67,12.85,684.32,13.9,683.7,11.45Z"/></g></g></g></g></svg>