<?xml version="1.0" encoding="UTF-8" standalone="no"?>
<svg
   xmlns:dc="http://purl.org/dc/elements/1.1/"
   xmlns:cc="http://creativecommons.org/ns#"
   xmlns:rdf="http://www.w3.org/1999/02/22-rdf-syntax-ns#"
   xmlns:svg="http://www.w3.org/2000/svg"
   xmlns="http://www.w3.org/2000/svg"
   xmlns:sodipodi="http://sodipodi.sourceforge.net/DTD/sodipodi-0.dtd"
   xmlns:inkscape="http://www.inkscape.org/namespaces/inkscape"
   viewBox="0 0 840.14835 186.18203"
   version="1.1"
   id="svg1188"
   sodipodi:docname="toiletshelf2.svg"
   inkscape:version="0.92.4 (5da689c313, 2019-01-14)"
>
  <metadata
     id="metadata1192">
    <rdf:RDF>
      <cc:Work
         rdf:about="">
        <dc:format>image/svg+xml</dc:format>
        <dc:type
           rdf:resource="http://purl.org/dc/dcmitype/StillImage" />
      </cc:Work>
    </rdf:RDF>
  </metadata>
  <sodipodi:namedview
     pagecolor="#ffffff"
     bordercolor="#666666"
     borderopacity="1"
     objecttolerance="10"
     gridtolerance="10"
     guidetolerance="10"
     inkscape:pageopacity="0"
     inkscape:pageshadow="2"
     inkscape:window-width="1910"
     inkscape:window-height="526"
     id="namedview1190"
     showgrid="false"
     inkscape:zoom="6.1168972"
     inkscape:cx="86.370671"
     inkscape:cy="23.570841"
     inkscape:window-x="1922"
     inkscape:window-y="1069"
     inkscape:window-maximized="0"
     inkscape:current-layer="g957" />
  <defs
     id="defs1127">
    <style
       id="style1125">.cls-1{fill:#bd9975;}.cls-2{fill:#916f6f;}.cls-3{fill:#dbca4d;}.cls-4{fill:#ffffcb;}.cls-5{fill:#a14f14;}.cls-6{fill:#f58a01;}.cls-7{fill:#335810;}.cls-8{fill:#649239;}</style>
    <filter
       style="color-interpolation-filters:sRGB"
       inkscape:label="Drop Shadow"
       id="filter6628">
      <feFlood
         flood-opacity="0.498039"
         flood-color="rgb(0,0,0)"
         result="flood"
         id="feFlood6618" />
      <feComposite
         in="flood"
         in2="SourceGraphic"
         operator="in"
         result="composite1"
         id="feComposite6620" />
      <feGaussianBlur
         in="composite1"
         stdDeviation="0"
         result="blur"
         id="feGaussianBlur6622" />
      <feOffset
         dx="0.5"
         dy="1.9"
         result="offset"
         id="feOffset6624" />
      <feComposite
         in="SourceGraphic"
         in2="offset"
         operator="over"
         result="composite2"
         id="feComposite6626" />
    </filter>
    <filter
       style="color-interpolation-filters:sRGB"
       inkscape:label="Drop Shadow"
       id="filter6784">
      <feFlood
         flood-opacity="0.498039"
         flood-color="rgb(0,0,0)"
         result="flood"
         id="feFlood6774" />
      <feComposite
         in="flood"
         in2="SourceGraphic"
         operator="in"
         result="composite1"
         id="feComposite6776" />
      <feGaussianBlur
         in="composite1"
         stdDeviation="0"
         result="blur"
         id="feGaussianBlur6778" />
      <feOffset
         dx="6.6"
         dy="1.36612"
         result="offset"
         id="feOffset6780" />
      <feComposite
         in="SourceGraphic"
         in2="offset"
         operator="over"
         result="composite2"
         id="feComposite6782" />
    </filter>
    <mask
       id="path-7-inside-1-5"
       fill="white">
      <path
         style="clip-rule:evenodd;fill-rule:evenodd"
         inkscape:connector-curvature="0"
         d="M 0,656 C 0,499.703 126.703,373 283,373 c 156.297,0 283,126.703 283,283 v 356 c 0,5.71 -0.169,11.38 -0.502,17 H 566 v 332 c 0,43.08 -34.922,78 -78,78 H 78 C 34.9218,1439 0,1404.08 0,1361 V 1029 H 0.502193 C 0.168972,1023.38 0,1017.71 0,1012 Z"
         id="path18-9" />
    </mask>
    <filter
       style="color-interpolation-filters:sRGB"
       id="filter0_d-2"
       x="195"
       y="132"
       width="184"
       height="133"
       filterUnits="userSpaceOnUse">
      <feFlood
         flood-opacity="0"
         result="BackgroundImageFix"
         id="feFlood69-2" />
      <feColorMatrix
         in="SourceAlpha"
         type="matrix"
         values="0 0 0 0 0 0 0 0 0 0 0 0 0 0 0 0 0 0 127 0"
         id="feColorMatrix71-8" />
      <feOffset
         dy="4"
         id="feOffset73-9" />
      <feGaussianBlur
         stdDeviation="2"
         id="feGaussianBlur75-7" />
      <feColorMatrix
         type="matrix"
         values="0 0 0 0 0 0 0 0 0 0 0 0 0 0 0 0 0 0 0.25 0"
         id="feColorMatrix77-3" />
      <feBlend
         mode="normal"
         in2="BackgroundImageFix"
         result="effect1_dropShadow"
         id="feBlend79-6" />
      <feBlend
         mode="normal"
         in="SourceGraphic"
         in2="effect1_dropShadow"
         result="shape"
         id="feBlend81-1" />
    </filter>
    <mask
       id="path-7-inside-1-5-2"
       fill="white">
      <path
         style="clip-rule:evenodd;fill-rule:evenodd"
         inkscape:connector-curvature="0"
         d="M 0,656 C 0,499.703 126.703,373 283,373 c 156.297,0 283,126.703 283,283 v 356 c 0,5.71 -0.169,11.38 -0.502,17 H 566 v 332 c 0,43.08 -34.922,78 -78,78 H 78 C 34.9218,1439 0,1404.08 0,1361 V 1029 H 0.502193 C 0.168972,1023.38 0,1017.71 0,1012 Z"
         id="path18-9-9" />
    </mask>
    <filter
       style="color-interpolation-filters:sRGB"
       id="filter0_d-2-3"
       x="195"
       y="132"
       width="184"
       height="133"
       filterUnits="userSpaceOnUse">
      <feFlood
         flood-opacity="0"
         result="BackgroundImageFix"
         id="feFlood69-2-1" />
      <feColorMatrix
         in="SourceAlpha"
         type="matrix"
         values="0 0 0 0 0 0 0 0 0 0 0 0 0 0 0 0 0 0 127 0"
         id="feColorMatrix71-8-9" />
      <feOffset
         dy="4"
         id="feOffset73-9-4" />
      <feGaussianBlur
         stdDeviation="2"
         id="feGaussianBlur75-7-7" />
      <feColorMatrix
         type="matrix"
         values="0 0 0 0 0 0 0 0 0 0 0 0 0 0 0 0 0 0 0.25 0"
         id="feColorMatrix77-3-8" />
      <feBlend
         mode="normal"
         in2="BackgroundImageFix"
         result="effect1_dropShadow"
         id="feBlend79-6-4" />
      <feBlend
         mode="normal"
         in="SourceGraphic"
         in2="effect1_dropShadow"
         result="shape"
         id="feBlend81-1-5" />
    </filter>
    <filter
       style="color-interpolation-filters:sRGB"
       inkscape:label="Drop Shadow"
       id="filter1749">
      <feFlood
         flood-opacity="0.498039"
         flood-color="rgb(0,0,0)"
         result="flood"
         id="feFlood1739" />
      <feComposite
         in="flood"
         in2="SourceGraphic"
         operator="in"
         result="composite1"
         id="feComposite1741" />
      <feGaussianBlur
         in="composite1"
         stdDeviation="0"
         result="blur"
         id="feGaussianBlur1743" />
      <feOffset
         dx="4.91803"
         dy="-2.5"
         result="offset"
         id="feOffset1745" />
      <feComposite
         in="SourceGraphic"
         in2="offset"
         operator="over"
         result="composite2"
         id="feComposite1747" />
    </filter>
  </defs>
  <g
     id="Layer_2"
     data-name="Layer 2"
     transform="translate(3.4985543,49.318602)">
    <g
       id="_2nd_Shelf"
       data-name="2nd Shelf">
      <g
         transform="translate(-2.1360097,-33.02571)"
         id="g957">
        <path
           inkscape:connector-curvature="0"
           id="path925-7"
           d="m 17.661993,169.60014 -19.0245376,-19.51157 4.3734584,-5.4578 14.6510792,15.82759 z"
           style="fill:#000000;fill-opacity:0.49756099;stroke:none;stroke-width:0.99999982px;stroke-linecap:butt;stroke-linejoin:miter;stroke-opacity:1" />
        <rect
           y="161.91571"
           x="17.65601"
           height="7.8471198"
           width="801.05975"
           id="rect906"
           style="fill:#000000;fill-opacity:0.49756099;stroke:none;stroke-width:5.49999952;stroke-linecap:round;stroke-miterlimit:4;stroke-dasharray:none;stroke-opacity:1" />
        <path
           inkscape:connector-curvature="0"
           id="path925"
           d="m 818.67163,169.88914 20.11422,-16.53064 -4.62396,-4.62396 -15.49026,13.40948 z"
           style="fill:#000000;fill-opacity:0.49756099;stroke:none;stroke-width:1px;stroke-linecap:butt;stroke-linejoin:miter;stroke-opacity:1" />
      </g>
      <rect
         class="cls-1"
         x="332.32687"
         y="57.619999"
         width="153.87624"
         height="69.059998"
         id="rect1129"
         style="fill:#bd9975;stroke-width:1" />
      <path
         class="cls-1"
         d="M 829.49,113.48 815.1,126.67 714.7,126 v 0.64 H 477.88 V 57.62 H 714.7 v 0.1 l 11.81,-0.1 3.94,3.08 19.19,0.52 z"
         id="path1131"
         inkscape:connector-curvature="0"
         style="fill:#bd9975" />
      <path
         class="cls-1"
         d="m 120.46,57.62 h 220.19 v 69.06 H 120.46 V 126 l -103,0.64 L 3,113.49 82.89,61.23 l 19.19,-0.52 3.92,-3.08 14.44,0.12 z"
         id="path1133"
         inkscape:connector-curvature="0"
         style="fill:#bd9975" />
      <path
         id="Left_Shelf_Outline"
         data-name="Left Shelf Outline"
         class="cls-2"
         d="m 100,65.23 a 24.39,24.39 0 0 0 4.21,-2.52 c 1.12,-1 24,-1.12 236.48,-1.13 v -6.16 c -75,0 -142.39,0.21 -174.09,0.46 l -62.28,0.49 -2,1.7 c -2.42,2 -1.63,1.91 -12.36,1.75 l -8.64,-0.14 -40,25.92 C 19.3,99.86 0.92,112.12 0.43,112.86 c -1.25,1.87 -0.12,3.28 8.2,10.25 l 6.89,5.78 h 325.13 v -5.54 l -323.91,0.14 -3.53,-2.86 a 21.28,21.28 0 0 1 -3.37,-3 c 0.64,-0.65 30.87,-1 138,-1.47 58.89,-0.28 125.38,-0.44 192.81,-0.51 v -4.45 c -31.91,0 -62.33,0.15 -90.39,0.3 -42.32,0.23 -85.72,0.48 -121.54,0.71 -35.82,0.23 -64.08,0.44 -76.1,0.56 -24.06,0.25 -43.74,0.26 -43.74,0 0,-0.47 0.51,-0.81 44.12,-29 l 29.36,-19 5.91,0.21 5.91,0.21 -26.35,18.13 c -14.49,10 -27.36,18.73 -28.6,19.44 -6,3.44 -12.55,3.32 148.39,2.68 43.23,-0.17 99,-0.29 153,-0.33 v -3 c -26.34,0 -50.07,0.1 -69,0.19 -65.54,0.32 -143.45,0.6 -173.12,0.63 l -54,0.06 2.85,-2 C 59.88,92 97.66,66.33 100,65.23 Z"
         inkscape:connector-curvature="0"
         style="fill:#916f6f" />
      <path
         inkscape:connector-curvature="0"
         id="path4629-1"
         d="m 224.91892,82.275195 c 8.96221,-15.226 16.30143,-19.370189 4.92853,-25.063095 -20.5,-3.25 -32.05683,18.937163 -32.05683,18.937163 l 4.04723,5.927595 z"
         style="fill:#494949;fill-opacity:0.56613758;stroke:none;stroke-width:1px;stroke-linecap:butt;stroke-linejoin:miter;stroke-opacity:1"
         sodipodi:nodetypes="ccccc" />
      <path
         id="Right_Shelf_Outline"
         data-name="Right Shelf Outline"
         class="cls-2"
         d="m 833,116.54 a 81,81 0 0 1 -8.28,7.29 l -6.41,5.06 H 477.88 v -5.59 l 339.81,-0.15 3.5,-2.67 a 20.51,20.51 0 0 0 3.33,-2.83 c -1.14,-1.14 -163.41,-1.93 -346.64,-2 v -4.43 c 104.83,0.14 214.56,0.68 304,1.57 38.42,0.38 43.78,0.3 42.84,-0.61 -0.6,-0.58 -17.21,-11.48 -36.93,-24.22 l -35.85,-23.21 -11.82,0.42 26.57,18.36 c 14.61,10.09 27.5,18.82 28.63,19.39 1.13,0.57 1.95,1.38 1.81,1.8 -0.28,0.86 -75.55,1 -297.13,0.44 h -22.12 v -3 c 35,0.05 69.5,0.13 99.88,0.26 88.5,0.37 172.32,0.57 186.25,0.46 l 25.33,-0.21 -18.78,-13 c -30.95,-21.36 -36.15,-24.84 -37,-24.84 a 7.93,7.93 0 0 1 -2.87,-1.62 l -2.06,-1.62 H 477.88 V 55.4 c 81.5,0.05 156.27,0.21 189.78,0.49 l 62.17,0.5 2.17,1.82 c 2.09,1.77 2.45,1.82 11.62,1.67 l 9.46,-0.15 40,25.9 c 22,14.24 40.38,26.52 40.89,27.29 0.76,1.2 0.63,1.69 -0.97,3.62 z"
         inkscape:connector-curvature="0"
         style="fill:#916f6f" />
      <g
         id="Shelf_Middle"
         data-name="Shelf Middle">
        <polygon
           class="cls-2"
           points="419.08,123.32 477.88,123.3 477.88,128.89 340.65,128.89 340.65,123.35 "
           id="polygon1137"
           style="fill:#916f6f" />
        <path
           class="cls-2"
           d="m 477.88,111.18 v 4.43 c -45.17,0 -91.37,0 -137.23,0 v -4.41 c 43.94,-0.06 90.19,-0.07 137.23,-0.02 z"
           id="path1139"
           inkscape:connector-curvature="0"
           style="fill:#916f6f" />
        <path
           class="cls-2"
           d="m 477.88,102.1 v 3 c -39.88,0 -88,0 -137.23,0 v -3 c 42.35,-0.05 90.07,-0.05 137.23,0 z"
           id="path1141"
           inkscape:connector-curvature="0"
           style="fill:#916f6f" />
        <path
           class="cls-2"
           d="M 477.88,55.43 V 61.6 H 340.65 v -6.15 c 44.82,-0.03 91.86,-0.03 137.23,-0.02 z"
           id="path1143"
           inkscape:connector-curvature="0"
           style="fill:#916f6f" />
      </g>
      <g
         transform="matrix(0.42559535,0,0,0.42559535,132.23902,31.764695)"
         id="Layer_2-5"
         data-name="Layer 2">
        <g
           transform="translate(5.2867119,4.6992994)"
           id="g6177">
          <g
             style="filter:url(#filter6628)"
             transform="translate(-63.440542,130.99297)"
             id="g6233">
            <g
               id="g6141"
               transform="matrix(0.05477146,0,0,0.06576596,191.24856,-68.97829)">
              <path
                 id="path6105"
                 transform="translate(-23,-503)"
                 d="m 79.64,749.21 c 0,0 7.56,-102.09 73.73,-98.31 66.17,3.78 158.8,15.1 217.41,49.15 58.61,34.05 62.81,-80.63 62.81,-80.63 0,0 -183.8,-42.25 -272.66,-21.42 -88.86,20.83 -149.35,26.43 -136.11,221.15 13.24,194.72 98.3,453.72 156.91,499.1 58.61,45.38 119.1,117.21 251.43,62.38 132.33,-54.83 145.57,-94.52 145.57,-94.52 l -22.68,-58.61 c 0,0 -158.81,143.68 -204.18,119.1 C 306.5,1322.02 174.17,1282.33 128.79,1059.25 83.41,836.17 79.64,749.21 79.64,749.21 Z"
                 inkscape:connector-curvature="0" />
              <path
                 id="path6107"
                 transform="translate(-23,-503)"
                 d="m 1953.36,749.21 c 0,0 -7.56,-102.09 -73.73,-98.31 -66.17,3.78 -158.8,15.12 -217.41,49.15 -58.61,34.03 -62.81,-80.63 -62.81,-80.63 0,0 183.8,-42.25 272.66,-21.45 88.86,20.8 149.35,26.46 136.11,221.18 -13.24,194.72 -98.3,453.72 -156.91,499.1 -58.61,45.38 -119.1,117.21 -251.43,62.38 -132.33,-54.83 -145.57,-94.52 -145.57,-94.52 L 1477,1227.5 c 0,0 158.81,143.68 204.18,119.1 45.37,-24.58 177.7,-64.27 223.08,-287.35 45.38,-223.08 49.1,-310.04 49.1,-310.04 z"
                 inkscape:connector-curvature="0" />
              <path
                 id="path6109"
                 transform="translate(-23,-503)"
                 d="m 1673.33,601.31 c -158.08,31.81 -263.74,11.48 -332.73,-15.13 -34.94,-13.47 -93.49,-41.29 -185.26,-62.38 A 956.47,956.47 0 0 0 1023,503 956.47,956.47 0 0 0 890.66,523.8 c -91.77,21.09 -150.32,48.91 -185.26,62.38 -69,26.61 -174.65,46.94 -332.73,15.13 0,0 -162.59,349.74 102.08,659.78 264.67,310.04 548.25,276 548.25,276 0,0 283.58,34 548.25,-276 264.67,-310 102.08,-659.78 102.08,-659.78 z"
                 class="cls-1"
                 inkscape:connector-curvature="0"
                 style="fill:#f7931e" />
              <path
                 id="path6111"
                 transform="translate(-23,-503)"
                 d="M 1083,1522"
                 class="cls-2"
                 inkscape:connector-curvature="0"
                 style="fill:#fbb03b" />
              <polyline
                 id="polyline6113"
                 points="1014.43 952 1022 1009 1124.02 987.89"
                 class="cls-2"
                 style="fill:#fbb03b" />
              <path
                 id="path6115"
                 transform="translate(-23,-503)"
                 d="m 987,1052 c -11.29,-200 -7.74887,-366.17481 7.80113,-512.26481 -35.58737,3.9797 -70.91828,9.98949 -105.82,18 -73.18,16.81 -65.89761,38.31 -100.56761,52.53 210.01527,-92.56112 -73.06045,5.45138 -82.03239,9 -56.24,21.68 -101.87694,47.28195 -170.21694,47.28195 -44,0 -84.80113,-18.98519 -133.71113,-27.95519 -11.27,29.28 -28.25678,80.69727 -33.58678,173.19727 -4.07,70.8 -0.0766,136.81961 18.79339,202.00958 23.57,81.44 61.55339,157.28 119.87339,225.55 91.11,106.73 176.66694,192.3012 288.87694,237.0612 91.2,36.37 165,41.8 200.82,41.8 7.8152,0.062 15.6286,-0.2714 23.41,-1 l 2.39,-0.28 2.34,0.27 c 7.7977,0.7356 15.628,1.0694 23.46,1 h 1.66 c -4,-17.62 -8.6,-39 -13.46,-63.2 -8.14,-40.43 -38.33,-195.75 -50.03,-403 z"
                 class="cls-3"
                 inkscape:connector-curvature="0"
                 style="fill:#eea737"
                 sodipodi:nodetypes="cccccsccccccccccccc" />
              <path
                 id="path6117"
                 transform="translate(-23,-503)"
                 d="m 1701.67,817.67 c -5.33,-92.51 -29.34,-164.37 -40.6,-193.64 -49,9 -95.94,13.5 -139.91,13.5 -68.33,0 -131.5,-11 -187.75,-32.68 -6.7,-2.59 -14,-5.58 -22.42,-9 -34.66,-14.22 -87,-35.72 -160.14,-52.52 A 938.64,938.64 0 0 0 1056,526.58 c -92.25,335.54 -3.66,879.11 16.23,990.92 40.07,-2.33 102.91,-11.39 177.36,-41.09 112.22,-44.75 215.32,-121.56 306.43,-228.3 58.29,-68.27 99.78,-144.15 123.34,-225.51 18.88,-65.19 26.38,-134.13 22.31,-204.93 z"
                 class="cls-2"
                 inkscape:connector-curvature="0"
                 style="fill:#fbb03b;stroke-width:46.97930908;stroke-miterlimit:10;stroke-dasharray:none" />
              <path
                 id="path6119"
                 transform="translate(-23,-503)"
                 d="m 1001,525 v 0.28 l 3.83,-0.42 z"
                 class="cls-1"
                 inkscape:connector-curvature="0"
                 style="fill:#f7931e" />
              <path
                 id="path6121"
                 transform="translate(-23,-503)"
                 d="m 1057,523 -25.17,0.9 q 12.09,1.17 24.18,2.68 z"
                 class="cls-1"
                 inkscape:connector-curvature="0"
                 style="fill:#f7931e" />
              <path
                 id="path6123"
                 d="m 1031.7364,23.58 q -13.0307,-1.5 -26.0614,-2.68 l -29.10086,1 -4.12801,0.42 C 955.69698,168.37 945.19913,349 957.36759,549 c 12.61036,207.25 45.14941,362.57 53.89041,403 5.2382,24.23 10.2284,45.58 14.5073,63.2 6.7148,0 14.5612,-0.22 23.4747,-0.7 C 1027.8024,902.69 932.31931,359.12 1031.7364,23.58 Z"
                 class="cls-1"
                 inkscape:connector-curvature="0"
                 style="fill:#f7931e;stroke-width:1.0381757" />
            </g>
          </g>
          <g
             style="filter:url(#filter6784)"
             transform="translate(-4.7802581,130.18991)"
             id="g6244">
            <path
               id="path6057"
               d="m 9.476984,-126.8583 c -20.8,0 -37.66,24.38 -37.66,54.46 0,30.08 16.86,54.46 37.66,54.46 h 81.06 v -108.92 z"
               class="cls-1"
               inkscape:connector-curvature="0"
               style="fill:#ffffff;stroke:#cad8d6;stroke-width:7.72927237;stroke-miterlimit:10;stroke-dasharray:none" />
            <rect
               id="rect6059"
               height="56.200001"
               width="118.72"
               y="-74.138298"
               x="-28.183016"
               class="cls-2"
               style="fill:#bfccd1;stroke:#cad8d6;stroke-width:7.72927237;stroke-miterlimit:10;stroke-dasharray:none" />
            <ellipse
               id="ellipse6061"
               ry="54.459999"
               rx="37.66"
               cy="-72.3983"
               cx="90.53698"
               class="cls-3"
               style="fill:#e7f0f2;stroke:#cad8d6;stroke-width:7.72927237;stroke-miterlimit:10;stroke-dasharray:none" />
            <path
               id="path6063"
               d="m 105.46698,-76.9283 c -1.45,-10 -7.579996,-17.52 -14.929996,-17.52 -8.42,0 -15.25,9.87 -15.25,22 0,7.7 2.73,14.47 6.86,18.42 a 12.17,12.17 0 0 0 8.39,3.63 c 8.42,0 15.249996,-9.87 15.249996,-22 a 31.89,31.89 0 0 0 -0.32,-4.53 z"
               class="cls-4"
               inkscape:connector-curvature="0"
               style="fill:#bfccd1;stroke-width:5.52090931;stroke-miterlimit:10;stroke-dasharray:none" />
            <path
               id="path6065"
               d="m 100.11698,-77.4783 a 15.16,15.16 0 0 1 4.66,0.75 c -1.38,-9.56 -7.239996,-16.75 -14.269996,-16.75 -8,0 -14.58,9.44 -14.58,21.08 0,7.36 2.61,13.83 6.56,17.6 0,-0.52 -0.05,-1.06 -0.05,-1.6 0.03,-11.64 7.94,-21.08 17.679996,-21.08 z"
               class="cls-5"
               inkscape:connector-curvature="0"
               style="fill:#a7b4b7;stroke-width:5.52090931;stroke-miterlimit:10;stroke-dasharray:none" />
            <path
               id="path6067"
               d="m 105.11698,-72.3983 a 30.65,30.65 0 0 0 -0.31,-4.33 15.16,15.16 0 0 0 -4.66,-0.75 c -9.769996,0 -17.679996,9.44 -17.679996,21.08 0,0.54 0,1.08 0.05,1.6 a 11.59,11.59 0 0 0 8,3.48 c 8.07,0 14.599996,-9.44 14.599996,-21.08 z"
               class="cls-4"
               inkscape:connector-curvature="0"
               style="fill:#bfccd1;stroke-width:5.52090931;stroke-miterlimit:10;stroke-dasharray:none" />
            <path
               id="path6069"
               d="m 47.536984,-2.2283 -4.34,-3.75 a 3,3 0 0 0 -4,0 l -7.54,6.53 a 3,3 0 0 1 -4,0 l -7.54,-6.53 a 3,3 0 0 0 -4,0 l -7.53,6.53 a 3,3 0 0 1 -4,0 l -7.53,-6.53 a 3,3 0 0 0 -4,0 l -7.53,6.53 a 3,3 0 0 1 -4,0 l -8.36,-7.25 a 3.53,3.53 0 0 1 -1.35,-2.67 v -68.11 h 80.93 v 72.59 a 3.18,3.18 0 0 1 -5.21,2.66 z"
               class="cls-6"
               inkscape:connector-curvature="0"
               style="fill:#ffffff;stroke:#cad8d6;stroke-width:7.17718124;stroke-miterlimit:10;stroke-dasharray:none" />
            <path
               id="path6075"
               d="m 48.883974,-77.050258 h -3 c -0.27,0 -0.49,-0.31 -0.49,-0.71 0,-0.4 0.22,-0.71 0.49,-0.71 h 3 c 0.27,0 0.48,0.32 0.48,0.71 0,0.39 -0.2,0.71 -0.48,0.71 z m -4.94,0 h -3 c -0.27,0 -0.49,-0.31 -0.49,-0.71 0,-0.4 0.22,-0.71 0.49,-0.71 h 3 c 0.27,0 0.49,0.32 0.49,0.71 0,0.39 -0.22,0.71 -0.49,0.71 z m -4.94,0 h -3 c -0.27,0 -0.49,-0.31 -0.49,-0.71 0,-0.4 0.22,-0.71 0.49,-0.71 h 3 c 0.27,0 0.49,0.32 0.49,0.71 0,0.39 -0.22,0.71 -0.49,0.71 z m -4.94,0 h -3 c -0.27,0 -0.49,-0.31 -0.49,-0.71 0,-0.4 0.22,-0.71 0.49,-0.71 h 3 c 0.27,0 0.49,0.32 0.49,0.71 0,0.39 -0.22,0.71 -0.49,0.71 z m -4.94,0 h -2.96 c -0.27,0 -0.48,-0.31 -0.48,-0.71 0,-0.4 0.21,-0.71 0.48,-0.71 h 3 c 0.27,0 0.49,0.32 0.49,0.71 0,0.39 -0.26,0.71 -0.49,0.71 z m -4.94,0 h -3 c -0.27,0 -0.48,-0.31 -0.48,-0.71 0,-0.4 0.21,-0.71 0.48,-0.71 h 3 c 0.27,0 0.49,0.32 0.49,0.71 0,0.39 -0.22,0.71 -0.51,0.71 z m -4.94,0 h -3 c -0.27,0 -0.48,-0.31 -0.48,-0.71 0,-0.4 0.21,-0.71 0.48,-0.71 h 3 c 0.27,0 0.49,0.32 0.49,0.71 0,0.39 -0.22,0.71 -0.49,0.71 z m -4.94,0 h -3 c -0.27,0 -0.48,-0.31 -0.48,-0.71 0,-0.4 0.21,-0.71 0.48,-0.71 h 3 c 0.27,0 0.49,0.32 0.49,0.71 0,0.39 -0.22,0.71 -0.49,0.71 z m -4.94,0 h -3 c -0.27,0 -0.48,-0.31 -0.48,-0.71 0,-0.4 0.21,-0.71 0.48,-0.71 h 3 c 0.27,0 0.49,0.32 0.49,0.71 0,0.39 -0.22,0.71 -0.49,0.71 z m -4.94,0 h -3 c -0.27,0 -0.48,-0.31 -0.48,-0.71 0,-0.4 0.21,-0.71 0.48,-0.71 h 3 c 0.27,0 0.49,0.32 0.49,0.71 0,0.39 -0.22,0.71 -0.49,0.71 z m -4.93,0 h -3 c -0.27,0 -0.48,-0.31 -0.48,-0.71 0,-0.4 0.21,-0.71 0.48,-0.71 h 3 c 0.26,0 0.48,0.32 0.48,0.71 0,0.39 -0.22,0.71 -0.48,0.71 z m -4.94,0 h -3 c -0.27,0 -0.48,-0.31 -0.48,-0.71 0,-0.4 0.21,-0.71 0.48,-0.71 h 3 c 0.26,0 0.48,0.32 0.48,0.71 0,0.39 -0.22,0.71 -0.48,0.71 z m -4.94,0 h -3 c -0.26,0 -0.48,-0.31 -0.48,-0.71 0,-0.4 0.22,-0.71 0.48,-0.71 h 3 c 0.26,0 0.48,0.32 0.48,0.71 0,0.39 -0.22,0.71 -0.48,0.71 z m -4.94,0 h -3 c -0.26,0 -0.48,-0.31 -0.48,-0.71 0,-0.4 0.22,-0.71 0.48,-0.71 h 3 c 0.26,0 0.48,0.32 0.48,0.71 0,0.39 -0.22,0.71 -0.48,0.71 z m -4.94,0 h -3 c -0.26,0 -0.48,-0.31 -0.48,-0.71 0,-0.4 0.22,-0.71 0.48,-0.71 h 3 c 0.26,0 0.48,0.32 0.48,0.71 0,0.39 -0.22,0.71 -0.48,0.71 z"
               class="cls-8"
               inkscape:connector-curvature="0"
               style="fill:#f6f6f6;fill-opacity:1;stroke-width:5.52090931;stroke-miterlimit:10;stroke-dasharray:none" />
            <path
               id="path6077"
               d="m 52.266984,-76.7683 h -1.45 c -0.27,0 -0.49,-0.31 -0.49,-0.71 0,-0.4 0.22,-0.71 0.49,-0.71 h 1.45 c 0.27,0 0.48,0.32 0.48,0.71 0,0.39 -0.21,0.71 -0.48,0.71 z"
               class="cls-8"
               inkscape:connector-curvature="0"
               style="fill:#cad8d6;stroke-width:5.52090931;stroke-miterlimit:10;stroke-dasharray:none" />
          </g>
        </g>
      </g>
      <g
         id="g1365"
         style="filter:url(#filter1749)">
        <g
           id="Bottom_Books"
           data-name="Bottom Books"
           transform="translate(25.593754,-39.880678)">
          <g
             id="Orange_Book"
             data-name="Orange Book"
             transform="translate(491.50799,-5.2199234)">
            <path
               class="cls-7"
               d="M 152.55,11.84 119,33.51 v 88 L 152.67,91.7 Z"
               id="path65"
               inkscape:connector-curvature="0"
               style="fill:#f6bd6a" />
            <path
               class="cls-6"
               d="m 105.22,122.94 c -0.72,-1.88 -0.5,-89.32 0.23,-91.24 0.42,-1.12 3.45,-3.5 8.27,-6.53 A 75.6,75.6 0 0 1 122,20.4 16.78,16.78 0 0 0 125.74,18 c 4.92,-3.76 16.12,-10.55 17.4,-10.55 a 2,2 0 0 1 1.6,1.44 c 0.59,1.83 4.35,2 6.29,0.21 1,-0.94 1.65,-1.05 2.58,-0.46 1.09,0.7 1.21,2.69 1.21,19.41 0,10.25 -0.24,19.39 -0.54,20.31 -0.3,0.92 -1,1.59 -1.8,1.43 -1.14,-0.22 -1.29,-1.84 -1.62,-18 L 150.5,13.97 135.38,23.55 120.26,33.13 119.9,41 c -0.19,4.34 -0.19,23.51 0,42.61 l 0.36,34.72 3.16,-2.5 c 3.54,-2.79 3.89,-2.9 5,-1.54 1.11,1.36 0.12,2.4 -5.62,6.51 l -4.64,3.33 h -6.26 c -5,0 -6.35,-0.22 -6.7,-1.14 z"
               id="path67"
               inkscape:connector-curvature="0"
               style="fill:#da942b" />
            <path
               class="cls-7"
               d="M 116.3,77.24 V 34.08 h -7.92 l -0.17,30.24 c -0.09,16.63 -0.17,36 -0.18,43 v 12.78 l 3.6,0.38 a 18.38,18.38 0 0 0 4.14,0.14 c 0.3,-0.14 0.54,-19.67 0.54,-43.4 z"
               id="path69"
               inkscape:connector-curvature="0"
               style="fill:#f6bd6a" />
            <path
               class="cls-4"
               d="m 129.26,23.42 c 6.14,-3.88 12.25,-7.73 13.59,-8.55 l 2.42,-1.49 -2.51,-0.3 c -2.18,-0.25 -4.25,0.78 -15.74,7.88 l -14.32,8.82 c -0.75,0.46 -0.11,0.66 2.16,0.67 2.88,0 4.5,-0.77 14.4,-7 z"
               id="path71"
               inkscape:connector-curvature="0"
               style="fill:#f2f2f2" />
          </g>
          <g
             id="Green_Book"
             data-name="Green Book"
             transform="translate(481.24799,-4.2999234)">
            <path
               class="cls-8"
               d="m 173.82,50 c -0.43,-1.68 -0.48,-1.69 -8.28,-1.28 -6.93,0.37 -7.86,0.28 -7.86,-0.75 a 2.75,2.75 0 0 0 -1.5,-2 c -1.32,-0.71 -3.2,0.33 -15.3,8.46 l -13.8,9.27 -0.2,26.61 c -0.11,14.64 0,27.34 0.19,28.23 0.39,1.59 0.6,1.62 11.17,1.62 H 149 l 12.08,-8 c 6.64,-4.4 12.3,-8.37 12.59,-8.82 0.63,-0.93 0.76,-50.89 0.15,-53.34 z"
               id="path74"
               inkscape:connector-curvature="0"
               style="fill:#507d3b" />
            <path
               class="cls-9"
               d="m 145.8,117 -7.64,0.2 -7.64,0.21 -0.46,-3.37 c -0.25,-1.85 -0.46,-13.2 -0.46,-25.22 V 66.93 h 16.58 z"
               id="path76"
               inkscape:connector-curvature="0"
               style="fill:#98c583" />
            <path
               class="cls-4"
               d="m 147.24,63.33 h -6.3 c -3.46,0 -6.3,-0.16 -6.3,-0.35 a 89.35,89.35 0 0 1 8.1,-5.76 l 8.09,-5.41 h 13.69 l -8.64,5.76 z"
               id="path78"
               inkscape:connector-curvature="0"
               style="fill:#f2f2f2" />
            <path
               class="cls-9"
               d="M 170.64,102.07 160.18,109 c -5.76,3.8 -10.62,6.91 -10.8,6.91 -0.18,0 -0.38,-11.19 -0.38,-24.84 V 66.25 l 9.75,-6.68 c 5.36,-3.67 10.22,-6.78 10.8,-6.91 0.91,-0.2 1,3.17 1,24.59 z"
               id="path80"
               inkscape:connector-curvature="0"
               style="fill:#98c583" />
          </g>
        </g>
        <rect
           x="682.70337"
           y="-10.969365"
           width="3.8825841"
           height="9.3307257"
           id="rect4"
           style="fill:#bd904d;fill-opacity:1;stroke:#5e4623;stroke-width:1.25244653;stroke-opacity:1" />
        <g
           transform="matrix(0.06262232,0,0,0.06262232,666.672,-15.102432)"
           id="g10"
           style="fill:#be9251;fill-opacity:1;filter:url(#filter0_d-2-3)">
          <rect
             x="199"
             y="132"
             width="176"
             height="125"
             rx="20"
             id="rect6-2"
             style="fill:#be9251;fill-opacity:1"
             ry="20" />
          <rect
             x="209"
             y="142"
             width="156"
             height="105"
             rx="10"
             id="rect8"
             style="fill:#be9251;fill-opacity:1;stroke:#5e4623;stroke-width:20;stroke-opacity:1"
             ry="10" />
        </g>
        <path
           d="m 668.3628,-14.476207 h 21.41684 c 0.44963,0 0.81409,0.364479 0.81409,0.81409 v 2.169075 c 0,0.480972 -0.41475,0.857094 -0.89343,0.810214 l -21.60777,0.0025 c -0.70326,-0.422662 -0.54382,-2.491435 -0.54382,-2.910316 v -0.07155 c 0,-0.449611 0.36449,-0.814093 0.81409,-0.814093 z"
           id="path16-9"
           style="fill:#c29a5f;fill-opacity:1;stroke:#5e4623;stroke-width:1.75199997;stroke-miterlimit:4;stroke-dasharray:none;stroke-opacity:1"
           inkscape:connector-curvature="0"
           sodipodi:nodetypes="ssssccsss" />
        <path
           inkscape:connector-curvature="0"
           d="m 666.672,25.977813 c 0,-9.787678 7.93444,-17.7221183 17.72212,-17.7221183 9.78768,0 17.72212,7.9344403 17.72212,17.7221183 v 22.293551 c 0,0.35757 -0.0106,0.71264 -0.0315,1.06458 h 0.0315 v 20.79061 c 0,2.69776 -2.1869,4.88453 -4.88454,4.88453 h -25.67516 c -2.69765,0 -4.88454,-2.18677 -4.88454,-4.88453 v -20.79061 h 0.0314 c -0.0209,-0.35194 -0.0314,-0.70701 -0.0314,-1.06458 z"
           id="path21"
           style="clip-rule:evenodd;fill:#b2dadb;fill-opacity:0.84656085;fill-rule:evenodd;stroke:#3b7a7d;stroke-width:2.70000005;stroke-miterlimit:4;stroke-dasharray:none;stroke-opacity:1" />
        <rect
           x="675.62695"
           y="-2.3274732"
           width="18.097851"
           height="13.463799"
           rx="1.4403135"
           id="rect12"
           style="fill:#c59d63;fill-opacity:1;stroke:#5e4623;stroke-width:1.65199995;stroke-miterlimit:4;stroke-dasharray:none;stroke-opacity:1"
           ry="1.4403135" />
        <path
           inkscape:connector-curvature="0"
           d="m 669.80345,50.372964 h -0.0316 v 16.64438 c 0,2.68087 2.17286,4.85323 4.85324,4.85323 h 19.99474 c 2.68036,0 4.85323,-2.17236 4.85323,-4.85323 v -16.64438 h -0.0316 l 0.002,-0.0332 c 0.0197,-0.31248 0.0295,-0.62747 0.0295,-0.94434 V 30.711365 c -8.21711,1.361348 -12.50124,5.245685 -15.95404,8.794989 -0.30134,0.30973 -0.59635,0.61696 -0.88717,0.91986 -3.04513,3.17139 -5.62931,5.8627 -10.11591,5.86339 l -2.74409,0.30979 v 2.79603 c 0,0.31687 0.01,0.63185 0.0296,0.94434 z"
           id="path29"
           style="opacity:0.90100002;fill:#83c2c5;fill-opacity:1;stroke:none;stroke-width:0.06262232" />
        <path
           inkscape:connector-curvature="0"
           style="stroke:#000000;stroke-width:0.93933487;stroke-linecap:round;stroke-linejoin:round;stroke-opacity:0.2"
           d="m 688.15146,-5.0202343 v 1.252445"
           id="path45" />
        <circle
           cx="680.16718"
           cy="26.447498"
           r="3.6634061"
           id="circle47"
           style="fill:#66b4b5;fill-opacity:1;stroke-width:0.06262232" />
        <ellipse
           style="fill:#ffffff;fill-opacity:0.5;stroke-width:0.06262232"
           cx="525.31482"
           cy="430.24725"
           rx="1.2211354"
           ry="0.37573394"
           transform="rotate(-37.255)"
           id="ellipse49" />
        <ellipse
           style="fill:#000000;fill-opacity:0.1;stroke-width:0.06262232"
           cx="525.59381"
           cy="435.31833"
           rx="2.129159"
           ry="0.68884557"
           transform="rotate(-37.255)"
           id="ellipse51" />
        <circle
           cx="688.30804"
           cy="19.058041"
           r="3.6634061"
           id="circle53"
           style="fill:#62b3b4;fill-opacity:1;stroke-width:0.06262232" />
        <ellipse
           style="fill:#ffffff;fill-opacity:0.5;stroke-width:0.06262232"
           cx="536.26782"
           cy="429.29385"
           rx="1.2211354"
           ry="0.37573394"
           transform="rotate(-37.255)"
           id="ellipse55" />
        <ellipse
           style="fill:#000000;fill-opacity:0.1;stroke-width:0.06262232"
           cx="536.54688"
           cy="434.36496"
           rx="2.129159"
           ry="0.68884557"
           transform="rotate(-37.255)"
           id="ellipse57" />
      </g>
    </g>
  </g>
</svg>
