<?xml version="1.0" encoding="UTF-8" standalone="no"?>
<svg
   xmlns:dc="http://purl.org/dc/elements/1.1/"
   xmlns:cc="http://creativecommons.org/ns#"
   xmlns:rdf="http://www.w3.org/1999/02/22-rdf-syntax-ns#"
   xmlns:svg="http://www.w3.org/2000/svg"
   xmlns="http://www.w3.org/2000/svg"
   xmlns:sodipodi="http://sodipodi.sourceforge.net/DTD/sodipodi-0.dtd"
   xmlns:inkscape="http://www.inkscape.org/namespaces/inkscape"
   viewBox="0 0 840.1484 180.83697"
   version="1.1"
   id="svg92"
   sodipodi:docname="Top Shelf v2.svg"
   inkscape:version="0.92.4 (5da689c313, 2019-01-14)"
   width="840.14838"
   height="180.83698">
  <metadata
     id="metadata96">
    <rdf:RDF>
      <cc:Work
         rdf:about="">
        <dc:format>image/svg+xml</dc:format>
        <dc:type
           rdf:resource="http://purl.org/dc/dcmitype/StillImage" />
      </cc:Work>
    </rdf:RDF>
  </metadata>
  <sodipodi:namedview
     pagecolor="#ffffff"
     bordercolor="#666666"
     borderopacity="1"
     objecttolerance="10"
     gridtolerance="10"
     guidetolerance="10"
     inkscape:pageopacity="0"
     inkscape:pageshadow="2"
     inkscape:window-width="1910"
     inkscape:window-height="526"
     id="namedview94"
     showgrid="false"
     inkscape:zoom="4.3252995"
     inkscape:cx="732.09375"
     inkscape:cy="15.460418"
     inkscape:window-x="1922"
     inkscape:window-y="1069"
     inkscape:window-maximized="0"
     inkscape:current-layer="_1st_Shelf" />
  <defs
     id="defs4">
    <style
       id="style2">.cls-3n{fill:#dbca4d;}.cls-4n{fill:#ffffcb;}.cls-1{fill:#bd9975;}.cls-2{fill:#916f6f;}.cls-3{fill:#b8e7e9;}.cls-4{fill:#30b6bb;}.cls-5{fill:#a14f14;}.cls-6{fill:#f58a01;}.cls-7{fill:#335810;}.cls-8{fill:#649239;}</style>
    <filter
       style="color-interpolation-filters:sRGB"
       inkscape:label="Drop Shadow"
       id="filter1368">
      <feFlood
         flood-opacity="0.498039"
         flood-color="rgb(0,0,0)"
         result="flood"
         id="feFlood1358" />
      <feComposite
         in="flood"
         in2="SourceGraphic"
         operator="in"
         result="composite1"
         id="feComposite1360" />
      <feGaussianBlur
         in="composite1"
         stdDeviation="0"
         result="blur"
         id="feGaussianBlur1362" />
      <feOffset
         dx="3.6"
         dy="-1.9"
         result="offset"
         id="feOffset1364" />
      <feComposite
         in="SourceGraphic"
         in2="offset"
         operator="over"
         result="composite2"
         id="feComposite1366" />
    </filter>
    <filter
       style="color-interpolation-filters:sRGB"
       inkscape:label="Drop Shadow"
       id="filter1404">
      <feFlood
         flood-opacity="0.498039"
         flood-color="rgb(0,0,0)"
         result="flood"
         id="feFlood1394" />
      <feComposite
         in="flood"
         in2="SourceGraphic"
         operator="in"
         result="composite1"
         id="feComposite1396" />
      <feGaussianBlur
         in="composite1"
         stdDeviation="0"
         result="blur"
         id="feGaussianBlur1398" />
      <feOffset
         dx="3.6"
         dy="-1.9"
         result="offset"
         id="feOffset1400" />
      <feComposite
         in="SourceGraphic"
         in2="offset"
         operator="over"
         result="composite2"
         id="feComposite1402" />
    </filter>
  </defs>
  <g
     id="Layer_2"
     data-name="Layer 2"
     transform="translate(1.7683039,11.173539)">
    <g
       id="_1st_Shelf"
       data-name="1st Shelf">
      <g
         transform="translate(-0.40575928,-0.22571045)"
         id="g957">
        <path
           inkscape:connector-curvature="0"
           id="path925-7"
           d="m 17.661993,169.60014 -19.0245376,-19.51157 4.3734584,-5.4578 14.6510792,15.82759 z"
           style="fill:#000000;fill-opacity:0.49756099;stroke:none;stroke-width:0.99999982px;stroke-linecap:butt;stroke-linejoin:miter;stroke-opacity:1" />
        <rect
           y="161.91571"
           x="17.65601"
           height="7.8471198"
           width="801.05975"
           id="rect906"
           style="fill:#000000;fill-opacity:0.49756099;stroke:none;stroke-width:5.49999952;stroke-linecap:round;stroke-miterlimit:4;stroke-dasharray:none;stroke-opacity:1" />
        <path
           inkscape:connector-curvature="0"
           id="path925"
           d="m 818.67163,169.88914 20.11422,-16.53064 -4.62396,-4.62396 -15.49026,13.40948 z"
           style="fill:#000000;fill-opacity:0.49756099;stroke:none;stroke-width:1px;stroke-linecap:butt;stroke-linejoin:miter;stroke-opacity:1" />
      </g>
      <rect
         class="cls-1"
         x="328.87933"
         y="91.073921"
         width="156.84779"
         height="68.406075"
         id="rect6"
         style="fill:#bd9975" />
      <path
         class="cls-1"
         d="m 829.49,146.28 -14.39,13.19 -100.4,-0.63 v 0.64 H 477.88 V 90.42 H 714.7 v 0.1 l 11.81,-0.1 3.94,3.08 19.19,0.52 z"
         id="path8"
         inkscape:connector-curvature="0"
         style="fill:#bd9975" />
      <path
         class="cls-1"
         d="m 120.46,90.42 h 220.19 v 69.06 H 120.46 v -0.64 l -103,0.64 L 3,146.29 82.89,94 l 19.19,-0.52 3.92,-3.05 14.44,0.12 z"
         id="path10"
         inkscape:connector-curvature="0"
         style="fill:#bd9975" />
      <path
         id="Left_Shelf_Outline"
         data-name="Left Shelf Outline"
         class="cls-2"
         d="m 99.71,98.09 a 24.29,24.29 0 0 0 4.2,-2.51 c 1.12,-1 24,-1.12 235.89,-1.13 v -6.14 c -74.85,0 -142,0.21 -173.65,0.46 L 104,89.25 102,91 c -2.42,2 -1.63,1.91 -12.33,1.75 L 81,92.56 41.18,118.41 C 19.25,132.64 0.92,144.87 0.43,145.6 c -1.25,1.87 -0.12,3.28 8.18,10.23 l 6.87,5.76 H 339.8 v -5.52 l -323.1,0.14 -3.52,-2.86 a 21,21 0 0 1 -3.37,-3 c 0.64,-0.65 30.8,-1 137.66,-1.46 58.75,-0.28 125.07,-0.44 192.33,-0.51 V 144 c -31.83,0.05 -62.17,0.15 -90.16,0.3 -42.22,0.23 -85.51,0.48 -121.24,0.71 -35.73,0.23 -63.92,0.43 -75.91,0.55 -24,0.25 -43.63,0.26 -43.63,0 0,-0.46 0.51,-0.8 44,-29 l 29.28,-19 5.9,0.21 L 94,98 67.66,116.14 c -14.45,10 -27.29,18.68 -28.53,19.39 -6,3.43 -12.52,3.31 148,2.67 43.13,-0.17 98.75,-0.29 152.65,-0.33 v -3 c -26.27,0 -49.94,0.1 -68.79,0.19 -65.38,0.32 -143.1,0.6 -172.7,0.63 l -53.83,0.06 2.84,-2 C 59.73,124.81 97.42,99.19 99.71,98.09 Z"
         inkscape:connector-curvature="0"
         style="fill:#916f6f" />
      <path
         id="Right_Shelf_Outline"
         data-name="Right Shelf Outline"
         class="cls-2"
         d="m 833,149.34 a 81,81 0 0 1 -8.28,7.29 l -6.41,5.06 H 477.88 v -5.59 l 339.81,-0.1 3.5,-2.67 a 20.51,20.51 0 0 0 3.33,-2.83 c -1.14,-1.14 -163.41,-1.93 -346.64,-2 V 144 c 104.83,0.14 214.56,0.68 304,1.57 38.42,0.38 43.78,0.3 42.84,-0.61 -0.6,-0.58 -17.21,-11.48 -36.93,-24.22 L 751.94,97.55 740.12,98 l 26.57,18.36 c 14.61,10.09 27.5,18.82 28.63,19.39 1.13,0.57 1.95,1.38 1.81,1.8 -0.28,0.86 -75.55,1 -297.13,0.44 l -22.12,-0.05 v -3 c 35,0 69.5,0.13 99.88,0.26 88.5,0.37 172.32,0.57 186.25,0.46 l 25.33,-0.21 -18.78,-13 c -30.95,-21.36 -36.15,-24.84 -37,-24.84 A 7.93,7.93 0 0 1 730.69,96 l -2.06,-1.62 H 477.88 V 88.2 c 81.5,0 156.27,0.21 189.78,0.49 l 62.17,0.5 L 732,91 c 2.09,1.77 2.45,1.82 11.62,1.67 l 9.46,-0.15 40,25.9 c 22,14.24 40.38,26.52 40.89,27.29 0.76,1.21 0.63,1.7 -0.97,3.63 z"
         inkscape:connector-curvature="0"
         style="fill:#916f6f" />
      <g
         id="Shelf_Middle"
         data-name="Shelf Middle">
        <polygon
           class="cls-2"
           points="508.82,161.69 314.86,161.69 314.86,156.15 425.71,156.12 508.82,156.09 "
           id="polygon14"
           style="fill:#916f6f" />
        <path
           class="cls-2"
           d="m 508.82,144 v 4.43 c -63.84,0 -129.15,0 -194,0 V 144 c 62.18,-0.06 127.51,-0.07 194,0 z"
           id="path16"
           inkscape:connector-curvature="0"
           style="fill:#916f6f" />
        <path
           class="cls-2"
           d="m 508.82,134.9 v 3 c -56.36,0 -124.35,0 -194,0 v -3 c 59.83,-0.05 127.35,-0.05 194,0 z"
           id="path18"
           inkscape:connector-curvature="0"
           style="fill:#916f6f" />
        <path
           class="cls-2"
           d="m 508.82,88.22 v 6.17 h -194 v -6.15 c 63.39,-0.03 129.88,-0.03 194,-0.02 z"
           id="path20"
           inkscape:connector-curvature="0"
           style="fill:#916f6f" />
      </g>
      <g
         id="Top_Flower_Pot"
         data-name="Top Flower Pot"
         style="filter:url(#filter1368)">
        <rect
           style="fill:#785b5b;fill-opacity:1;stroke:none;stroke-width:5.49999952;stroke-linecap:round;stroke-miterlimit:4;stroke-dasharray:none;stroke-opacity:1"
           id="rect1116"
           width="25.662964"
           height="8.0919247"
           x="121.84128"
           y="66.205284" />
        <g
           id="Top_Shelf_Pot"
           data-name="Top Shelf Pot">
          <path
             class="cls-3"
             d="m 156.27,79 c 3.6,11.59 -4.74,21.9 -5.62,22.94 a 17.46,17.46 0 0 1 -9.14,7.06 c -2,0.65 -3.82,0.63 -7.38,0.65 -4.44,0 -6.75,0 -9.17,-1 -1.3,-0.58 -3.48,-1.85 -6.5,-6.58 -3.5,-5.49 -8.91,-14 -6,-23.34 a 20.58,20.58 0 0 1 5.46,-8.73 47.41,47.41 0 0 0 7.7,3.2 46.22,46.22 0 0 0 8.13,1.8 50,50 0 0 0 17.25,-4.64 21.34,21.34 0 0 1 5.27,8.64 z"
             id="path23"
             inkscape:connector-curvature="0"
             style="fill:#b8e7e9" />
          <path
             class="cls-4"
             d="m 158,79.55 c -1.7,-7.61 -8.22,-14.35 -14,-14.46 -3.79,-0.08 -4.09,1.56 -0.49,2.73 8.25,2.66 -5.09,6.94 -15.12,4.84 -5.63,-1.18 -6.24,-1.67 -5.14,-4.09 2.33,-5.11 -4.23,-2.88 -8.66,2.94 -5.47,7.2 -5.54,16.53 -0.18,27.11 1.73,3.42 6.69,9.6 9,11.25 a 17.56,17.56 0 0 0 5.47,1.55 c 5.12,0.76 11.14,0.32 15,-1.11 8.35,-3.12 16.41,-20.66 14.12,-30.76 z M 154,92 c -2,5.55 -6.12,12.16 -8.81,14.21 -2.35,1.79 -3.23,2 -9.51,2.18 -9.13,0.26 -11,-0.48 -15.26,-6 -6.72,-8.78 -8.69,-19.22 -5,-26.44 2,-3.85 4,-5.65 4.87,-4.31 3,4.61 22.65,5.24 27.29,0.88 2.14,-2 3.13,-1.47 5.58,3 1.7,3.12 2.06,4.63 2,8.54 A 28.85,28.85 0 0 1 154,92 Z"
             id="path25"
             inkscape:connector-curvature="0"
             style="fill:#30b6bb" />
        </g>
        <g
           id="Flower">
          <path
             class="cls-5"
             d="m 136.76,15.19 a 18.36,18.36 0 0 1 -1.35,-4.82 c -0.58,-4.57 -2.41,-8.21 -4.53,-9 -2.5,-1 -2.89,-0.62 -3.87,3.27 l -0.83,3.29 -2.83,-3.58 c -2.8,-3.55 -5.35,-5.14 -6.46,-3.96 -1.11,1.18 -2.19,5.51 -2.19,8.28 0,3.3 -1.2,3.62 -3.7,1 -1.77,-1.87 -3.8,-2.34 -4.59,-1.06 -0.79,1.28 2.24,10 4.31,13.07 a 10.25,10.25 0 0 1 1.82,4.19 7,7 0 0 0 2.11,3.64 c 2.6,2.6 7.06,2.88 10.69,0.66 a 11.27,11.27 0 0 1 4.93,-1.43 c 2,0 3.16,-0.58 5,-2.45 2.08,-2.08 2.44,-3 2.44,-5.8 a 14.38,14.38 0 0 0 -0.95,-5.3 z"
             id="path28"
             inkscape:connector-curvature="0"
             style="fill:#a14f14" />
          <path
             class="cls-6"
             d="m 118.55,4.49 c 0.33,-0.33 1.38,0.37 2.34,1.56 a 7.82,7.82 0 0 1 1.73,5.53 c 0,4 -0.69,4.66 -3,2.81 -1.41,-1.14 -1.7,-2.05 -1.7,-5.34 0.02,-2.18 0.3,-4.23 0.63,-4.56 z"
             id="path30"
             inkscape:connector-curvature="0"
             style="fill:#f58a01" />
          <path
             class="cls-6"
             d="m 122.59,28 c -1.48,0.94 -4.56,0.84 -5.58,-0.18 -1.43,-1.42 -1,-2.07 1.11,-1.62 l 3.75,0.78 c 1.39,0.33 1.54,0.54 0.72,1.02 z"
             id="path32"
             inkscape:connector-curvature="0"
             style="fill:#f58a01" />
          <path
             class="cls-6"
             d="m 121.57,24.41 a 7.2,7.2 0 0 1 -5.8,-2.28 20.09,20.09 0 0 1 -4,-5 c -1.81,-3.53 -0.89,-3.63 5.2,-0.55 4.81,2.43 7.81,5 7.81,6.75 0,0.8 -0.78,1.08 -3.21,1.08 z"
             id="path34"
             inkscape:connector-curvature="0"
             style="fill:#f58a01" />
          <path
             class="cls-6"
             d="m 126.35,20.1 c -2.1,-2.84 -2,-4 1,-8.62 a 19.43,19.43 0 0 0 2.5,-4.86 c 0,-0.51 0.29,-0.93 0.64,-0.93 1.67,0 2.07,8.82 0.56,12.44 -1.67,3.87 -2.89,4.43 -4.7,1.97 z"
             id="path36"
             inkscape:connector-curvature="0"
             style="fill:#f58a01" />
          <path
             class="cls-6"
             d="m 133.9,23.59 a 9.77,9.77 0 0 1 -3.42,1.29 l -2.46,0.48 2.31,-1.95 a 10.2,10.2 0 0 0 2.74,-3.36 c 0.25,-0.77 0.75,-1.4 1.12,-1.4 1.04,0 0.81,4.04 -0.29,4.94 z"
             id="path38"
             inkscape:connector-curvature="0"
             style="fill:#f58a01" />
          <path
             class="cls-7"
             d="m 154.54,31.75 c -0.89,1.45 -4.65,7 -8.36,12.35 -3.71,5.35 -7.58,11.34 -8.62,13.32 l -1.88,3.58 -0.55,-5.4 a 165.79,165.79 0 0 0 -4.65,-22.79 c -1,-3.52 -2.46,-5.07 -3.93,-4.17 -0.74,0.46 -0.46,1.91 1.88,9.68 0.9,3 1.82,6.45 2,7.74 0.38,2.14 0.31,2.26 -0.93,1.49 a 8.78,8.78 0 0 1 -2.44,-3.12 c -2.87,-6 -13.51,-6.2 -24.87,-0.4 -2.09,1.07 -3,2 -2.84,2.79 0.16,0.79 0.9,1.18 3.53,1 2.82,-0.2 4.32,0.3 10.38,3.48 7.68,4 9.92,4.28 13,1.42 a 6.09,6.09 0 0 1 2,-1.43 c 0.8,0 3.23,5.3 3.79,8.25 0.47,2.54 0.4,2.74 -0.84,2.23 -0.75,-0.3 -4,-1.45 -7.15,-2.54 A 80.23,80.23 0 0 1 115.88,56 c -2,-1 -2.56,-1.08 -3.36,-0.27 -1.41,1.42 0.52,5 4.81,8.81 4.47,4 7.88,5.61 13.25,6.17 6.44,0.67 10.45,-1.16 16.6,-7.59 5.61,-5.87 10.6,-17.51 11.6,-27.05 0.82,-7.8 -0.97,-9.62 -4.24,-4.32 z"
             id="path40"
             inkscape:connector-curvature="0"
             style="fill:#335810" />
          <path
             class="cls-8"
             d="m 132.38,67.23 c 0,3.16 -10.53,-0.82 -14.37,-5.44 -1.67,-2 -0.31,-2 5.43,0 6.72,2.27 8.94,3.63 8.94,5.44 z"
             id="path42"
             inkscape:connector-curvature="0"
             style="fill:#649239" />
          <path
             class="cls-8"
             d="m 154.29,44.27 c -1.93,8 -7.3,16.6 -12.79,20.55 a 19.34,19.34 0 0 1 -3.75,2.32 c -0.94,0 0.35,-4.62 2.42,-8.69 2.5,-4.89 14.48,-22.27 15.36,-22.27 0.64,0 0.52,0.82 -1.24,8.09 z"
             id="path44"
             inkscape:connector-curvature="0"
             style="fill:#649239" />
          <path
             class="cls-8"
             d="m 126.79,48.5 -1.65,1.76 A 5.56,5.56 0 0 1 121.63,52 c -2,0 -13.14,-5.77 -13.55,-7 -0.32,-0.94 3.26,-2.2 7.61,-2.69 4.53,-0.5 8,0.86 9.72,3.8 z"
             id="path46"
             inkscape:connector-curvature="0"
             style="fill:#649239" />
        </g>
      </g>
      <g
         id="g1392"
         style="filter:url(#filter1404)">
        <g
           transform="translate(0,30.08061)"
           data-name="Middle Box"
           id="Middle_Box">
          <path
             style="fill:#dbca4d"
             inkscape:connector-curvature="0"
             id="path50"
             d="m 727.75,60.24 c -0.24,-0.63 -5.86,-4.4 -12.49,-8.37 l -12,-7.21 -37,0.48 c -24.15,0.32 -37.35,0.75 -38,1.25 -0.65,0.5 -0.84,1.92 -0.51,5.12 0.24,2.4 0.62,7.52 0.82,11.37 l 0.38,7 10,8.36 c 5.52,4.6 10.92,8.63 12,9 1.08,0.37 17.25,0.62 35.91,0.66 30.81,0 34,0 34.92,-1.14 0.7,-0.85 1,-3.47 1,-9.18 v -8 l 2.15,-0.25 a 4.35,4.35 0 0 0 2.69,-1.08 c 0.67,-1.03 0.74,-6.42 0.13,-8.01 z"
             class="cls-3n" />
          <path
             style="fill:#ffffcb"
             inkscape:connector-curvature="0"
             id="path52"
             d="m 640.65,56.66 c 5.62,3.75 8.35,6 8.35,6.89 0,0.73 -0.09,1.3 -0.18,1.27 -0.74,-0.22 -14.88,-10.38 -16,-11.47 -3.29,-3.28 0.07,-1.86 7.83,3.31 z"
             class="cls-4n" />
          <path
             style="fill:#ffffcb"
             inkscape:connector-curvature="0"
             id="path54"
             d="m 649.51,80.72 c -0.35,0 -11.55,-9.36 -14,-11.68 -2.15,-2.06 -2.27,-2.43 -1.88,-5.88 a 24.51,24.51 0 0 1 0.63,-3.93 c 0.11,-0.14 3.27,1.89 7,4.5 3.73,2.61 7.17,4.75 7.61,4.75 0.44,0 0.8,2.12 0.8,6.12 a 46.2,46.2 0 0 1 -0.16,6.12 z"
             class="cls-4n" />
          <path
             style="fill:#ffffcb"
             inkscape:connector-curvature="0"
             id="path56"
             d="m 644.42,55.25 c -6.24,-4 -6.9,-4.62 -5.4,-5 0.93,-0.25 15.63,-0.46 32.66,-0.46 h 31 l 7.92,4.75 c 4.35,2.61 8.05,4.88 8.22,5 0,0.16 -15,0.28 -33.48,0.28 h -33.82 z"
             class="cls-4n" />
          <path
             style="fill:#ffffcb"
             inkscape:connector-curvature="0"
             id="path58"
             d="m 718.12,83.45 -32.46,-0.1 C 667.81,83.29 653.07,83.1 652.9,82.94 a 48.7,48.7 0 0 1 -0.3,-7.38 v -7.08 h 65.52 z"
             class="cls-4n" />
          <path
             style="fill:#ffffcb"
             inkscape:connector-curvature="0"
             id="path60"
             d="m 723.1,64.42 c -0.57,0.48 -70.27,1.17 -70.75,0.69 a 2.57,2.57 0 0 1 -0.47,-1.55 c 0,-1 4.23,-1 35.4,-0.6 19.47,0.27 35.56,0.64 35.76,0.84 a 0.43,0.43 0 0 1 0.06,0.62 z"
             class="cls-4n" />
        </g>
        <g
           transform="translate(0,30.08061)"
           data-name="Middle Plant Pot"
           id="Middle_Plant_Pot">
          <g
             data-name="Middle Shelf Pot"
             id="Middle_Shelf_Pot">
            <path
               style="fill:#a14f14"
               inkscape:connector-curvature="0"
               id="path63"
               d="m 703.48,37 c -2.67,-8.53 -6,-13.24 -10.22,-14.64 -1.72,-0.57 -2.78,-0.56 -3.88,0 -2.12,1.13 -1.51,2.21 2.4,4.22 1.85,0.95 3.36,2 3.36,2.33 0,0.33 -1.67,1.09 -3.73,1.7 -5.33,1.58 -26.18,1.55 -31.58,-0.05 l -3.89,-1.16 2,-1.72 c 1.76,-1.52 3.25,-2.06 4.94,-1.82 0.73,0.1 1.47,-2.65 1,-3.5 -1.25,-2 -8.34,0.53 -11.05,4 -2.37,3 -5.5,11.89 -5.44,15.47 0.12,8.36 8.45,17 18.09,18.73 5.39,1 20.9,0.33 24.71,-1 6.22,-2.22 12,-8.6 13.77,-15.07 0.7,-2.83 0.64,-3.89 -0.48,-7.49 z"
               class="cls-5" />
            <path
               style="fill:#f58a01"
               inkscape:connector-curvature="0"
               id="path65"
               d="m 699.52,44.21 c -1.22,3.68 -6.65,9.49 -10.23,10.92 -5.68,2.27 -23.77,1.88 -28.6,-0.62 -3.05,-1.58 -7.64,-7.09 -8.62,-10.35 -0.71,-2.39 -0.63,-3.43 0.56,-6.89 a 46.08,46.08 0 0 1 1.8,-4.71 c 0.21,-0.35 2.36,0 4.78,0.73 3.57,1.11 6.61,1.36 16.38,1.36 11,0 15.8,-0.59 20.3,-2.45 0.84,-0.35 1.49,0.67 2.8,4.46 1.49,4.34 1.59,5.24 0.83,7.55 z"
               class="cls-6" />
            <path
               style="fill:#a14f14"
               inkscape:connector-curvature="0"
               id="path67"
               d="m 678.44,50.35 c -1.05,1 -3.36,1.09 -5.08,0.09 -2.44,-1.43 -1.42,-2.55 2.34,-2.55 3.76,0 4.45,0.75 2.74,2.46 z"
               class="cls-5" />
            <path
               style="fill:#a14f14"
               inkscape:connector-curvature="0"
               id="path69"
               d="m 668.14,43.28 c -0.35,-0.56 -1.5,-0.7 -3.33,-0.41 -3,0.47 -3.83,-0.69 -1.76,-2.41 1.62,-1.35 6.47,-0.68 6.78,0.93 0.31,1.61 -0.95,3.1 -1.69,1.89 z"
               class="cls-5" />
            <path
               style="fill:#a14f14"
               inkscape:connector-curvature="0"
               id="path71"
               d="m 689.38,42.39 c 0,0.72 -0.65,0.85 -2.52,0.5 a 4.59,4.59 0 0 0 -3.59,0.41 c -0.86,0.71 -1.16,0.65 -1.52,-0.29 -0.67,-1.75 1,-3.31 3.62,-3.31 2.41,0 4.01,1.07 4.01,2.69 z"
               class="cls-5" />
          </g>
          <g
             id="Plant">
            <path
               style="fill:#335810"
               inkscape:connector-curvature="0"
               id="path74"
               d="m 699.76,6.42 c -0.9,-0.89 -1.73,-0.69 -6.23,1.47 l -5.19,2.49 V 7.31 c 0,-5.22 -2.54,-6.36 -5,-2.22 l -1.52,2.58 -2.21,-1.86 c -2.5,-2.1 -4.38,-2.36 -5.7,-0.78 -0.76,0.93 -1.19,0.61 -3,-2.19 C 669.76,1 668.55,-0.24 668.09,0 a 15,15 0 0 0 -2.41,4 l -1.62,3.5 -3,-2.15 c -3.54,-2.57 -4.12,-2.64 -5.2,-0.61 -1.25,2.33 -0.45,8.38 1.76,13.21 2.21,4.83 7.5,10.77 10.9,12.29 2.69,1.22 2.51,1.21 4.74,0 1.56,-0.81 2.07,-0.81 3.2,0 1.84,1.34 4.23,1.22 7.4,-0.4 6.48,-3.2 18.43,-20.84 15.9,-23.42 z"
               class="cls-7" />
            <path
               style="fill:#649239"
               inkscape:connector-curvature="0"
               id="path76"
               d="m 668.14,5.05 c 1,-0.62 3.07,3.77 2.54,5.42 -0.53,1.65 -1.14,1.76 -2.36,0.54 -1.03,-1.01 -1.16,-5.35 -0.18,-5.96 z"
               class="cls-8" />
            <path
               style="fill:#649239"
               inkscape:connector-curvature="0"
               id="path78"
               d="m 673.34,27.24 c -2,1.79 -3.2,1.48 -6.83,-1.72 -3.83,-3.38 -8.41,-11.84 -8.41,-15.54 0,-1.34 0.18,-2.43 0.41,-2.43 1.17,0 7.21,4.14 10,6.88 5.88,5.69 7.61,10.29 4.83,12.81 z"
               class="cls-8" />
            <path
               style="fill:#649239"
               inkscape:connector-curvature="0"
               id="path80"
               d="m 673.76,16.52 c -1.55,-2.07 -1.59,-3.38 -0.15,-6.15 1.57,-3 2.49,-2 2.49,2.94 0,4.94 -0.56,5.6 -2.34,3.21 z"
               class="cls-8" />
            <path
               style="fill:#649239"
               inkscape:connector-curvature="0"
               id="path82"
               d="m 678.86,9 c 0.34,0 1.21,1.12 1.95,2.49 1.3,2.42 1.3,2.52 0,4 -2.06,2.28 -2.55,1.8 -2.55,-2.49 0,-2.23 0.27,-4 0.6,-4 z"
               class="cls-8" />
            <path
               style="fill:#649239"
               inkscape:connector-curvature="0"
               id="path84"
               d="m 694.73,13.52 c -2.36,4.7 -6.91,10.43 -10.15,12.78 -3.24,2.35 -6.13,2.76 -6.81,1 -0.84,-2.21 1.18,-6.65 4.19,-9.23 3.01,-2.58 14.3,-8.86 14.3,-8 a 22.48,22.48 0 0 1 -1.53,3.45 z"
               class="cls-8" />
            <path
               style="fill:#649239"
               inkscape:connector-curvature="0"
               id="path86"
               d="m 683.7,11.45 c -0.32,-1.29 -0.17,-2.16 0.45,-2.55 0.62,-0.39 1,-0.05 1.18,1.28 0.34,2.67 -1.01,3.72 -1.63,1.27 z"
               class="cls-8" />
          </g>
        </g>
      </g>
    </g>
  </g>
</svg>
