<?xml version="1.0" encoding="UTF-8" standalone="no"?>
<svg
   xmlns:dc="http://purl.org/dc/elements/1.1/"
   xmlns:cc="http://creativecommons.org/ns#"
   xmlns:rdf="http://www.w3.org/1999/02/22-rdf-syntax-ns#"
   xmlns:svg="http://www.w3.org/2000/svg"
   xmlns="http://www.w3.org/2000/svg"
   xmlns:sodipodi="http://sodipodi.sourceforge.net/DTD/sodipodi-0.dtd"
   xmlns:inkscape="http://www.inkscape.org/namespaces/inkscape"
   viewBox="0 0 834.41 161.69"
   version="1.1"
   id="svg92"
   sodipodi:docname="Top Shelf v2.svg"
   inkscape:version="0.92.4 (5da689c313, 2019-01-14)">
  <metadata
     id="metadata96">
    <rdf:RDF>
      <cc:Work
         rdf:about="">
        <dc:format>image/svg+xml</dc:format>
        <dc:type
           rdf:resource="http://purl.org/dc/dcmitype/StillImage" />
      </cc:Work>
    </rdf:RDF>
  </metadata>
  <sodipodi:namedview
     pagecolor="#ffffff"
     bordercolor="#666666"
     borderopacity="1"
     objecttolerance="10"
     gridtolerance="10"
     guidetolerance="10"
     inkscape:pageopacity="0"
     inkscape:pageshadow="2"
     inkscape:window-width="2371"
     inkscape:window-height="526"
     id="namedview94"
     showgrid="false"
     inkscape:zoom="1.5292243"
     inkscape:cx="566.01356"
     inkscape:cy="103.36685"
     inkscape:window-x="1461"
     inkscape:window-y="1261"
     inkscape:window-maximized="0"
     inkscape:current-layer="_1st_Shelf" />
  <defs
     id="defs4">
    <style
       id="style2">.cls-3n{fill:#dbca4d;}.cls-4n{fill:#ffffcb;}.cls-1{fill:#bd9975;}.cls-2{fill:#916f6f;}.cls-3{fill:#b8e7e9;}.cls-4{fill:#30b6bb;}.cls-5{fill:#a14f14;}.cls-6{fill:#f58a01;}.cls-7{fill:#335810;}.cls-8{fill:#649239;}</style>
  </defs>
  <g
     id="Layer_2"
     data-name="Layer 2">
    <g
       id="_1st_Shelf"
       data-name="1st Shelf">
      <rect
         class="cls-1"
         x="328.87933"
         y="91.073921"
         width="156.84779"
         height="68.406075"
         id="rect6"
         style="fill:#bd9975" />
      <path
         class="cls-1"
         d="M829.49,146.28,815.1,159.47l-100.4-.63v.64H477.88V90.42H714.7v.1l11.81-.1,3.94,3.08,19.19.52Z"
         id="path8" />
      <path
         class="cls-1"
         d="M120.46,90.42H340.65v69.06H120.46v-.64l-103,.64L3,146.29,82.89,94l19.19-.52L106,90.43l14.44.12Z"
         id="path10" />
      <path
         id="Left_Shelf_Outline"
         data-name="Left Shelf Outline"
         class="cls-2"
         d="M99.71,98.09a24.29,24.29,0,0,0,4.2-2.51c1.12-1,24-1.12,235.89-1.13V88.31c-74.85,0-142,.21-173.65.46L104,89.25,102,91c-2.42,2-1.63,1.91-12.33,1.75L81,92.56,41.18,118.41C19.25,132.64.92,144.87.43,145.6c-1.25,1.87-.12,3.28,8.18,10.23l6.87,5.76H339.8v-5.52l-323.1.14-3.52-2.86a21,21,0,0,1-3.37-3c.64-.65,30.8-1,137.66-1.46,58.75-.28,125.07-.44,192.33-.51V144c-31.83.05-62.17.15-90.16.3-42.22.23-85.51.48-121.24.71s-63.92.43-75.91.55c-24,.25-43.63.26-43.63,0,0-.46.51-.8,44-29l29.28-19,5.9.21L94,98,67.66,116.14c-14.45,10-27.29,18.68-28.53,19.39-6,3.43-12.52,3.31,148,2.67,43.13-.17,98.75-.29,152.65-.33v-3c-26.27,0-49.94.1-68.79.19-65.38.32-143.1.6-172.7.63l-53.83.06,2.84-2C59.73,124.81,97.42,99.19,99.71,98.09Z" />
      <path
         id="Right_Shelf_Outline"
         data-name="Right Shelf Outline"
         class="cls-2"
         d="M833,149.34a81,81,0,0,1-8.28,7.29l-6.41,5.06H477.88V156.1L817.69,156l3.5-2.67a20.51,20.51,0,0,0,3.33-2.83c-1.14-1.14-163.41-1.93-346.64-2V144c104.83.14,214.56.68,304,1.57,38.42.38,43.78.3,42.84-.61-.6-.58-17.21-11.48-36.93-24.22L751.94,97.55,740.12,98l26.57,18.36c14.61,10.09,27.5,18.82,28.63,19.39s1.95,1.38,1.81,1.8c-.28.86-75.55,1-297.13.44l-22.12-.05v-3c35,0,69.5.13,99.88.26,88.5.37,172.32.57,186.25.46l25.33-.21-18.78-13c-30.95-21.36-36.15-24.84-37-24.84A7.93,7.93,0,0,1,730.69,96l-2.06-1.62H477.88V88.2c81.5,0,156.27.21,189.78.49l62.17.5L732,91c2.09,1.77,2.45,1.82,11.62,1.67l9.46-.15,40,25.9c22,14.24,40.38,26.52,40.89,27.29C834.73,146.92,834.6,147.41,833,149.34Z" />
      <g
         id="Shelf_Middle"
         data-name="Shelf Middle">
        <polygon
           class="cls-2"
           points="508.82 156.09 508.82 161.69 314.86 161.69 314.86 156.15 425.71 156.12 508.82 156.09"
           id="polygon14" />
        <path
           class="cls-2"
           d="M508.82,144v4.43c-63.84,0-129.15,0-194,0V144C377,143.94,442.33,143.93,508.82,144Z"
           id="path16" />
        <path
           class="cls-2"
           d="M508.82,134.9v3c-56.36,0-124.35,0-194,0v-3C374.65,134.85,442.17,134.85,508.82,134.9Z"
           id="path18" />
        <path
           class="cls-2"
           d="M508.82,88.22v6.17h-194V88.24C378.21,88.21,444.7,88.21,508.82,88.22Z"
           id="path20" />
      </g>
      <g
         id="Top_Flower_Pot"
         data-name="Top Flower Pot">
        <g
           id="Top_Shelf_Pot"
           data-name="Top Shelf Pot">
          <path
             class="cls-3"
             d="M156.27,79c3.6,11.59-4.74,21.9-5.62,22.94a17.46,17.46,0,0,1-9.14,7.06c-2,.65-3.82.63-7.38.65-4.44,0-6.75,0-9.17-1-1.3-.58-3.48-1.85-6.5-6.58-3.5-5.49-8.91-14-6-23.34A20.58,20.58,0,0,1,117.92,70a47.41,47.41,0,0,0,7.7,3.2A46.22,46.22,0,0,0,133.75,75,50,50,0,0,0,151,70.36,21.34,21.34,0,0,1,156.27,79Z"
             id="path23" />
          <path
             class="cls-4"
             d="M158,79.55c-1.7-7.61-8.22-14.35-14-14.46-3.79-.08-4.09,1.56-.49,2.73,8.25,2.66-5.09,6.94-15.12,4.84-5.63-1.18-6.24-1.67-5.14-4.09,2.33-5.11-4.23-2.88-8.66,2.94-5.47,7.2-5.54,16.53-.18,27.11,1.73,3.42,6.69,9.6,9,11.25a17.56,17.56,0,0,0,5.47,1.55c5.12.76,11.14.32,15-1.11C152.23,107.19,160.29,89.65,158,79.55ZM154,92c-2,5.55-6.12,12.16-8.81,14.21-2.35,1.79-3.23,2-9.51,2.18-9.13.26-11-.48-15.26-6-6.72-8.78-8.69-19.22-5-26.44,2-3.85,4-5.65,4.87-4.31,3,4.61,22.65,5.24,27.29.88,2.14-2,3.13-1.47,5.58,3,1.7,3.12,2.06,4.63,2,8.54A28.85,28.85,0,0,1,154,92Z"
             id="path25" />
        </g>
        <g
           id="Flower">
          <path
             class="cls-5"
             d="M136.76,15.19a18.36,18.36,0,0,1-1.35-4.82c-.58-4.57-2.41-8.21-4.53-9-2.5-1-2.89-.62-3.87,3.27l-.83,3.29-2.83-3.58C120.55.8,118-.79,116.89.39S114.7,5.9,114.7,8.67c0,3.3-1.2,3.62-3.7,1-1.77-1.87-3.8-2.34-4.59-1.06s2.24,10,4.31,13.07a10.25,10.25,0,0,1,1.82,4.19,7,7,0,0,0,2.11,3.64c2.6,2.6,7.06,2.88,10.69.66a11.27,11.27,0,0,1,4.93-1.43c2,0,3.16-.58,5-2.45,2.08-2.08,2.44-3,2.44-5.8A14.38,14.38,0,0,0,136.76,15.19Z"
             id="path28" />
          <path
             class="cls-6"
             d="M118.55,4.49c.33-.33,1.38.37,2.34,1.56a7.82,7.82,0,0,1,1.73,5.53c0,4-.69,4.66-3,2.81-1.41-1.14-1.7-2.05-1.7-5.34C117.94,6.87,118.22,4.82,118.55,4.49Z"
             id="path30" />
          <path
             class="cls-6"
             d="M122.59,28c-1.48.94-4.56.84-5.58-.18-1.43-1.42-1-2.07,1.11-1.62l3.75.78C123.26,27.31,123.41,27.52,122.59,28Z"
             id="path32" />
          <path
             class="cls-6"
             d="M121.57,24.41a7.2,7.2,0,0,1-5.8-2.28,20.09,20.09,0,0,1-4-5c-1.81-3.53-.89-3.63,5.2-.55,4.81,2.43,7.81,5,7.81,6.75C124.78,24.13,124,24.41,121.57,24.41Z"
             id="path34" />
          <path
             class="cls-6"
             d="M126.35,20.1c-2.1-2.84-2-4,1-8.62a19.43,19.43,0,0,0,2.5-4.86c0-.51.29-.93.64-.93,1.67,0,2.07,8.82.56,12.44C129.38,22,128.16,22.56,126.35,20.1Z"
             id="path36" />
          <path
             class="cls-6"
             d="M133.9,23.59a9.77,9.77,0,0,1-3.42,1.29l-2.46.48,2.31-1.95a10.2,10.2,0,0,0,2.74-3.36c.25-.77.75-1.4,1.12-1.4C135.23,18.65,135,22.69,133.9,23.59Z"
             id="path38" />
          <path
             class="cls-7"
             d="M154.54,31.75c-.89,1.45-4.65,7-8.36,12.35s-7.58,11.34-8.62,13.32L135.68,61l-.55-5.4a165.79,165.79,0,0,0-4.65-22.79c-1-3.52-2.46-5.07-3.93-4.17-.74.46-.46,1.91,1.88,9.68.9,3,1.82,6.45,2,7.74.38,2.14.31,2.26-.93,1.49a8.78,8.78,0,0,1-2.44-3.12c-2.87-6-13.51-6.2-24.87-.4-2.09,1.07-3,2-2.84,2.79s.9,1.18,3.53,1c2.82-.2,4.32.3,10.38,3.48,7.68,4,9.92,4.28,13,1.42a6.09,6.09,0,0,1,2-1.43c.8,0,3.23,5.3,3.79,8.25.47,2.54.4,2.74-.84,2.23-.75-.3-4-1.45-7.15-2.54A80.23,80.23,0,0,1,115.88,56c-2-1-2.56-1.08-3.36-.27-1.41,1.42.52,5,4.81,8.81,4.47,4,7.88,5.61,13.25,6.17,6.44.67,10.45-1.16,16.6-7.59,5.61-5.87,10.6-17.51,11.6-27.05C159.6,28.27,157.81,26.45,154.54,31.75Z"
             id="path40" />
          <path
             class="cls-8"
             d="M132.38,67.23c0,3.16-10.53-.82-14.37-5.44-1.67-2-.31-2,5.43,0C130.16,64.06,132.38,65.42,132.38,67.23Z"
             id="path42" />
          <path
             class="cls-8"
             d="M154.29,44.27c-1.93,8-7.3,16.6-12.79,20.55a19.34,19.34,0,0,1-3.75,2.32c-.94,0,.35-4.62,2.42-8.69,2.5-4.89,14.48-22.27,15.36-22.27C156.17,36.18,156.05,37,154.29,44.27Z"
             id="path44" />
          <path
             class="cls-8"
             d="M126.79,48.5l-1.65,1.76A5.56,5.56,0,0,1,121.63,52c-2,0-13.14-5.77-13.55-7-.32-.94,3.26-2.2,7.61-2.69,4.53-.5,8,.86,9.72,3.8Z"
             id="path46" />
        </g>
      </g>
      <g
         id="Middle_Box"
         data-name="Middle Box"
         transform="translate(0,30.08061)">
        <path
           class="cls-3n"
           d="m 727.75,60.24 c -0.24,-0.63 -5.86,-4.4 -12.49,-8.37 l -12,-7.21 -37,0.48 c -24.15,0.32 -37.35,0.75 -38,1.25 -0.65,0.5 -0.84,1.92 -0.51,5.12 0.24,2.4 0.62,7.52 0.82,11.37 l 0.38,7 10,8.36 c 5.52,4.6 10.92,8.63 12,9 1.08,0.37 17.25,0.62 35.91,0.66 30.81,0 34,0 34.92,-1.14 0.7,-0.85 1,-3.47 1,-9.18 v -8 l 2.15,-0.25 a 4.35,4.35 0 0 0 2.69,-1.08 c 0.67,-1.03 0.74,-6.42 0.13,-8.01 z"
           id="path50"
           inkscape:connector-curvature="0"
           style="fill:#dbca4d" />
        <path
           class="cls-4n"
           d="m 640.65,56.66 c 5.62,3.75 8.35,6 8.35,6.89 0,0.73 -0.09,1.3 -0.18,1.27 -0.74,-0.22 -14.88,-10.38 -16,-11.47 -3.29,-3.28 0.07,-1.86 7.83,3.31 z"
           id="path52"
           inkscape:connector-curvature="0"
           style="fill:#ffffcb" />
        <path
           class="cls-4n"
           d="m 649.51,80.72 c -0.35,0 -11.55,-9.36 -14,-11.68 -2.15,-2.06 -2.27,-2.43 -1.88,-5.88 a 24.51,24.51 0 0 1 0.63,-3.93 c 0.11,-0.14 3.27,1.89 7,4.5 3.73,2.61 7.17,4.75 7.61,4.75 0.44,0 0.8,2.12 0.8,6.12 a 46.2,46.2 0 0 1 -0.16,6.12 z"
           id="path54"
           inkscape:connector-curvature="0"
           style="fill:#ffffcb" />
        <path
           class="cls-4n"
           d="m 644.42,55.25 c -6.24,-4 -6.9,-4.62 -5.4,-5 0.93,-0.25 15.63,-0.46 32.66,-0.46 h 31 l 7.92,4.75 c 4.35,2.61 8.05,4.88 8.22,5 0,0.16 -15,0.28 -33.48,0.28 h -33.82 z"
           id="path56"
           inkscape:connector-curvature="0"
           style="fill:#ffffcb" />
        <path
           class="cls-4n"
           d="m 718.12,83.45 -32.46,-0.1 C 667.81,83.29 653.07,83.1 652.9,82.94 a 48.7,48.7 0 0 1 -0.3,-7.38 v -7.08 h 65.52 z"
           id="path58"
           inkscape:connector-curvature="0"
           style="fill:#ffffcb" />
        <path
           class="cls-4n"
           d="m 723.1,64.42 c -0.57,0.48 -70.27,1.17 -70.75,0.69 a 2.57,2.57 0 0 1 -0.47,-1.55 c 0,-1 4.23,-1 35.4,-0.6 19.47,0.27 35.56,0.64 35.76,0.84 a 0.43,0.43 0 0 1 0.06,0.62 z"
           id="path60"
           inkscape:connector-curvature="0"
           style="fill:#ffffcb" />
      </g>
      <g
         id="Middle_Plant_Pot"
         data-name="Middle Plant Pot"
         transform="translate(0,30.08061)">
        <g
           id="Middle_Shelf_Pot"
           data-name="Middle Shelf Pot">
          <path
             class="cls-5"
             d="m 703.48,37 c -2.67,-8.53 -6,-13.24 -10.22,-14.64 -1.72,-0.57 -2.78,-0.56 -3.88,0 -2.12,1.13 -1.51,2.21 2.4,4.22 1.85,0.95 3.36,2 3.36,2.33 0,0.33 -1.67,1.09 -3.73,1.7 -5.33,1.58 -26.18,1.55 -31.58,-0.05 l -3.89,-1.16 2,-1.72 c 1.76,-1.52 3.25,-2.06 4.94,-1.82 0.73,0.1 1.47,-2.65 1,-3.5 -1.25,-2 -8.34,0.53 -11.05,4 -2.37,3 -5.5,11.89 -5.44,15.47 0.12,8.36 8.45,17 18.09,18.73 5.39,1 20.9,0.33 24.71,-1 6.22,-2.22 12,-8.6 13.77,-15.07 0.7,-2.83 0.64,-3.89 -0.48,-7.49 z"
             id="path63"
             inkscape:connector-curvature="0"
             style="fill:#a14f14" />
          <path
             class="cls-6"
             d="m 699.52,44.21 c -1.22,3.68 -6.65,9.49 -10.23,10.92 -5.68,2.27 -23.77,1.88 -28.6,-0.62 -3.05,-1.58 -7.64,-7.09 -8.62,-10.35 -0.71,-2.39 -0.63,-3.43 0.56,-6.89 a 46.08,46.08 0 0 1 1.8,-4.71 c 0.21,-0.35 2.36,0 4.78,0.73 3.57,1.11 6.61,1.36 16.38,1.36 11,0 15.8,-0.59 20.3,-2.45 0.84,-0.35 1.49,0.67 2.8,4.46 1.49,4.34 1.59,5.24 0.83,7.55 z"
             id="path65"
             inkscape:connector-curvature="0"
             style="fill:#f58a01" />
          <path
             class="cls-5"
             d="m 678.44,50.35 c -1.05,1 -3.36,1.09 -5.08,0.09 -2.44,-1.43 -1.42,-2.55 2.34,-2.55 3.76,0 4.45,0.75 2.74,2.46 z"
             id="path67"
             inkscape:connector-curvature="0"
             style="fill:#a14f14" />
          <path
             class="cls-5"
             d="m 668.14,43.28 c -0.35,-0.56 -1.5,-0.7 -3.33,-0.41 -3,0.47 -3.83,-0.69 -1.76,-2.41 1.62,-1.35 6.47,-0.68 6.78,0.93 0.31,1.61 -0.95,3.1 -1.69,1.89 z"
             id="path69"
             inkscape:connector-curvature="0"
             style="fill:#a14f14" />
          <path
             class="cls-5"
             d="m 689.38,42.39 c 0,0.72 -0.65,0.85 -2.52,0.5 a 4.59,4.59 0 0 0 -3.59,0.41 c -0.86,0.71 -1.16,0.65 -1.52,-0.29 -0.67,-1.75 1,-3.31 3.62,-3.31 2.41,0 4.01,1.07 4.01,2.69 z"
             id="path71"
             inkscape:connector-curvature="0"
             style="fill:#a14f14" />
        </g>
        <g
           id="Plant">
          <path
             class="cls-7"
             d="m 699.76,6.42 c -0.9,-0.89 -1.73,-0.69 -6.23,1.47 l -5.19,2.49 V 7.31 c 0,-5.22 -2.54,-6.36 -5,-2.22 l -1.52,2.58 -2.21,-1.86 c -2.5,-2.1 -4.38,-2.36 -5.7,-0.78 -0.76,0.93 -1.19,0.61 -3,-2.19 C 669.76,1 668.55,-0.24 668.09,0 a 15,15 0 0 0 -2.41,4 l -1.62,3.5 -3,-2.15 c -3.54,-2.57 -4.12,-2.64 -5.2,-0.61 -1.25,2.33 -0.45,8.38 1.76,13.21 2.21,4.83 7.5,10.77 10.9,12.29 2.69,1.22 2.51,1.21 4.74,0 1.56,-0.81 2.07,-0.81 3.2,0 1.84,1.34 4.23,1.22 7.4,-0.4 6.48,-3.2 18.43,-20.84 15.9,-23.42 z"
             id="path74"
             inkscape:connector-curvature="0"
             style="fill:#335810" />
          <path
             class="cls-8"
             d="m 668.14,5.05 c 1,-0.62 3.07,3.77 2.54,5.42 -0.53,1.65 -1.14,1.76 -2.36,0.54 -1.03,-1.01 -1.16,-5.35 -0.18,-5.96 z"
             id="path76"
             inkscape:connector-curvature="0"
             style="fill:#649239" />
          <path
             class="cls-8"
             d="m 673.34,27.24 c -2,1.79 -3.2,1.48 -6.83,-1.72 -3.83,-3.38 -8.41,-11.84 -8.41,-15.54 0,-1.34 0.18,-2.43 0.41,-2.43 1.17,0 7.21,4.14 10,6.88 5.88,5.69 7.61,10.29 4.83,12.81 z"
             id="path78"
             inkscape:connector-curvature="0"
             style="fill:#649239" />
          <path
             class="cls-8"
             d="m 673.76,16.52 c -1.55,-2.07 -1.59,-3.38 -0.15,-6.15 1.57,-3 2.49,-2 2.49,2.94 0,4.94 -0.56,5.6 -2.34,3.21 z"
             id="path80"
             inkscape:connector-curvature="0"
             style="fill:#649239" />
          <path
             class="cls-8"
             d="m 678.86,9 c 0.34,0 1.21,1.12 1.95,2.49 1.3,2.42 1.3,2.52 0,4 -2.06,2.28 -2.55,1.8 -2.55,-2.49 0,-2.23 0.27,-4 0.6,-4 z"
             id="path82"
             inkscape:connector-curvature="0"
             style="fill:#649239" />
          <path
             class="cls-8"
             d="m 694.73,13.52 c -2.36,4.7 -6.91,10.43 -10.15,12.78 -3.24,2.35 -6.13,2.76 -6.81,1 -0.84,-2.21 1.18,-6.65 4.19,-9.23 3.01,-2.58 14.3,-8.86 14.3,-8 a 22.48,22.48 0 0 1 -1.53,3.45 z"
             id="path84"
             inkscape:connector-curvature="0"
             style="fill:#649239" />
          <path
             class="cls-8"
             d="m 683.7,11.45 c -0.32,-1.29 -0.17,-2.16 0.45,-2.55 0.62,-0.39 1,-0.05 1.18,1.28 0.34,2.67 -1.01,3.72 -1.63,1.27 z"
             id="path86"
             inkscape:connector-curvature="0"
             style="fill:#649239" />
        </g>
      </g>
    </g>
  </g>
</svg>
