<svg xmlns="http://www.w3.org/2000/svg" viewBox="0 0 834.41 161.69"><defs><style>.cls-1{fill:#bd9975;}.cls-2{fill:#916f6f;}.cls-3{fill:#b8e7e9;}.cls-4{fill:#30b6bb;}.cls-5{fill:#a14f14;}.cls-6{fill:#f58a01;}.cls-7{fill:#335810;}.cls-8{fill:#649239;}</style></defs><g id="Layer_2" data-name="Layer 2"><g id="_1st_Shelf" data-name="1st Shelf"><rect class="cls-1" x="340.65" y="90.42" width="137.23" height="69.06"/><path class="cls-1" d="M829.49,146.28,815.1,159.47l-100.4-.63v.64H477.88V90.42H714.7v.1l11.81-.1,3.94,3.08,19.19.52Z"/><path class="cls-1" d="M120.46,90.42H340.65v69.06H120.46v-.64l-103,.64L3,146.29,82.89,94l19.19-.52L106,90.43l14.44.12Z"/><path id="Left_Shelf_Outline" data-name="Left Shelf Outline" class="cls-2" d="M100,98a24.39,24.39,0,0,0,4.21-2.52c1.12-1,24-1.12,236.48-1.13V88.22c-75,0-142.39.21-174.09.46l-62.28.49-2,1.7c-2.42,2-1.63,1.91-12.36,1.75l-8.64-.14-40,25.92C19.3,132.66.92,144.92.43,145.66c-1.25,1.87-.12,3.28,8.2,10.25l6.89,5.78H340.65v-5.54l-323.91.14-3.53-2.86a21.28,21.28,0,0,1-3.37-3c.64-.65,30.87-1,138-1.47,58.89-.28,125.38-.44,192.81-.51V144c-31.91.05-62.33.15-90.39.3-42.32.23-85.72.48-121.54.71s-64.08.44-76.1.56c-24.06.25-43.74.26-43.74,0,0-.47.51-.81,44.12-29l29.36-19,5.91.21,5.91.21L67.83,116.12c-14.49,10-27.36,18.73-28.6,19.44-6,3.44-12.55,3.32,148.39,2.68,43.23-.17,99-.29,153-.33v-3c-26.34,0-50.07.1-69,.19-65.54.32-143.45.6-173.12.63l-54,.06,2.85-2C59.88,124.81,97.66,99.13,100,98Z"/><path id="Right_Shelf_Outline" data-name="Right Shelf Outline" class="cls-2" d="M833,149.34a81,81,0,0,1-8.28,7.29l-6.41,5.06H477.88V156.1L817.69,156l3.5-2.67a20.51,20.51,0,0,0,3.33-2.83c-1.14-1.14-163.41-1.93-346.64-2V144c104.83.14,214.56.68,304,1.57,38.42.38,43.78.3,42.84-.61-.6-.58-17.21-11.48-36.93-24.22L751.94,97.55,740.12,98l26.57,18.36c14.61,10.09,27.5,18.82,28.63,19.39s1.95,1.38,1.81,1.8c-.28.86-75.55,1-297.13.44l-22.12-.05v-3c35,0,69.5.13,99.88.26,88.5.37,172.32.57,186.25.46l25.33-.21-18.78-13c-30.95-21.36-36.15-24.84-37-24.84A7.93,7.93,0,0,1,730.69,96l-2.06-1.62H477.88V88.2c81.5,0,156.27.21,189.78.49l62.17.5L732,91c2.09,1.77,2.45,1.82,11.62,1.67l9.46-.15,40,25.9c22,14.24,40.38,26.52,40.89,27.29C834.73,146.92,834.6,147.41,833,149.34Z"/><g id="Shelf_Middle" data-name="Shelf Middle"><polygon class="cls-2" points="477.88 156.09 477.88 161.69 340.65 161.69 340.65 156.15 419.08 156.12 477.88 156.09"/><path class="cls-2" d="M477.88,144v4.43c-45.17,0-91.37,0-137.23,0V144C384.59,143.94,430.84,143.93,477.88,144Z"/><path class="cls-2" d="M477.88,134.9v3c-39.88,0-88,0-137.23,0v-3C383,134.85,430.72,134.85,477.88,134.9Z"/><path class="cls-2" d="M477.88,88.22v6.17H340.65V88.24C385.47,88.21,432.51,88.21,477.88,88.22Z"/></g><g id="Top_Flower_Pot" data-name="Top Flower Pot"><g id="Top_Shelf_Pot" data-name="Top Shelf Pot"><path class="cls-3" d="M156.27,79c3.6,11.59-4.74,21.9-5.62,22.94a17.46,17.46,0,0,1-9.14,7.06c-2,.65-3.82.63-7.38.65-4.44,0-6.75,0-9.17-1-1.3-.58-3.48-1.85-6.5-6.58-3.5-5.49-8.91-14-6-23.34A20.58,20.58,0,0,1,117.92,70a47.41,47.41,0,0,0,7.7,3.2A46.22,46.22,0,0,0,133.75,75,50,50,0,0,0,151,70.36,21.34,21.34,0,0,1,156.27,79Z"/><path class="cls-4" d="M158,79.55c-1.7-7.61-8.22-14.35-14-14.46-3.79-.08-4.09,1.56-.49,2.73,8.25,2.66-5.09,6.94-15.12,4.84-5.63-1.18-6.24-1.67-5.14-4.09,2.33-5.11-4.23-2.88-8.66,2.94-5.47,7.2-5.54,16.53-.18,27.11,1.73,3.42,6.69,9.6,9,11.25a17.56,17.56,0,0,0,5.47,1.55c5.12.76,11.14.32,15-1.11C152.23,107.19,160.29,89.65,158,79.55ZM154,92c-2,5.55-6.12,12.16-8.81,14.21-2.35,1.79-3.23,2-9.51,2.18-9.13.26-11-.48-15.26-6-6.72-8.78-8.69-19.22-5-26.44,2-3.85,4-5.65,4.87-4.31,3,4.61,22.65,5.24,27.29.88,2.14-2,3.13-1.47,5.58,3,1.7,3.12,2.06,4.63,2,8.54A28.85,28.85,0,0,1,154,92Z"/></g><g id="Flower"><path class="cls-5" d="M136.76,15.19a18.36,18.36,0,0,1-1.35-4.82c-.58-4.57-2.41-8.21-4.53-9-2.5-1-2.89-.62-3.87,3.27l-.83,3.29-2.83-3.58C120.55.8,118-.79,116.89.39S114.7,5.9,114.7,8.67c0,3.3-1.2,3.62-3.7,1-1.77-1.87-3.8-2.34-4.59-1.06s2.24,10,4.31,13.07a10.25,10.25,0,0,1,1.82,4.19,7,7,0,0,0,2.11,3.64c2.6,2.6,7.06,2.88,10.69.66a11.27,11.27,0,0,1,4.93-1.43c2,0,3.16-.58,5-2.45,2.08-2.08,2.44-3,2.44-5.8A14.38,14.38,0,0,0,136.76,15.19Z"/><path class="cls-6" d="M118.55,4.49c.33-.33,1.38.37,2.34,1.56a7.82,7.82,0,0,1,1.73,5.53c0,4-.69,4.66-3,2.81-1.41-1.14-1.7-2.05-1.7-5.34C117.94,6.87,118.22,4.82,118.55,4.49Z"/><path class="cls-6" d="M122.59,28c-1.48.94-4.56.84-5.58-.18-1.43-1.42-1-2.07,1.11-1.62l3.75.78C123.26,27.31,123.41,27.52,122.59,28Z"/><path class="cls-6" d="M121.57,24.41a7.2,7.2,0,0,1-5.8-2.28,20.09,20.09,0,0,1-4-5c-1.81-3.53-.89-3.63,5.2-.55,4.81,2.43,7.81,5,7.81,6.75C124.78,24.13,124,24.41,121.57,24.41Z"/><path class="cls-6" d="M126.35,20.1c-2.1-2.84-2-4,1-8.62a19.43,19.43,0,0,0,2.5-4.86c0-.51.29-.93.64-.93,1.67,0,2.07,8.82.56,12.44C129.38,22,128.16,22.56,126.35,20.1Z"/><path class="cls-6" d="M133.9,23.59a9.77,9.77,0,0,1-3.42,1.29l-2.46.48,2.31-1.95a10.2,10.2,0,0,0,2.74-3.36c.25-.77.75-1.4,1.12-1.4C135.23,18.65,135,22.69,133.9,23.59Z"/><path class="cls-7" d="M154.54,31.75c-.89,1.45-4.65,7-8.36,12.35s-7.58,11.34-8.62,13.32L135.68,61l-.55-5.4a165.79,165.79,0,0,0-4.65-22.79c-1-3.52-2.46-5.07-3.93-4.17-.74.46-.46,1.91,1.88,9.68.9,3,1.82,6.45,2,7.74.38,2.14.31,2.26-.93,1.49a8.78,8.78,0,0,1-2.44-3.12c-2.87-6-13.51-6.2-24.87-.4-2.09,1.07-3,2-2.84,2.79s.9,1.18,3.53,1c2.82-.2,4.32.3,10.38,3.48,7.68,4,9.92,4.28,13,1.42a6.09,6.09,0,0,1,2-1.43c.8,0,3.23,5.3,3.79,8.25.47,2.54.4,2.74-.84,2.23-.75-.3-4-1.45-7.15-2.54A80.23,80.23,0,0,1,115.88,56c-2-1-2.56-1.08-3.36-.27-1.41,1.42.52,5,4.81,8.81,4.47,4,7.88,5.61,13.25,6.17,6.44.67,10.45-1.16,16.6-7.59,5.61-5.87,10.6-17.51,11.6-27.05C159.6,28.27,157.81,26.45,154.54,31.75Z"/><path class="cls-8" d="M132.38,67.23c0,3.16-10.53-.82-14.37-5.44-1.67-2-.31-2,5.43,0C130.16,64.06,132.38,65.42,132.38,67.23Z"/><path class="cls-8" d="M154.29,44.27c-1.93,8-7.3,16.6-12.79,20.55a19.34,19.34,0,0,1-3.75,2.32c-.94,0,.35-4.62,2.42-8.69,2.5-4.89,14.48-22.27,15.36-22.27C156.17,36.18,156.05,37,154.29,44.27Z"/><path class="cls-8" d="M126.79,48.5l-1.65,1.76A5.56,5.56,0,0,1,121.63,52c-2,0-13.14-5.77-13.55-7-.32-.94,3.26-2.2,7.61-2.69,4.53-.5,8,.86,9.72,3.8Z"/></g></g></g></g></svg>